<svg xmlns="http://www.w3.org/2000/svg" xmlns:xlink="http://www.w3.org/1999/xlink" version="1.1" class="marks" width="851" height="447" viewBox="0 0 851 447"><rect width="851" height="447" fill="white"/><g fill="none" stroke-miterlimit="10" transform="translate(45,10)"><g class="mark-group role-frame root" role="graphics-object" aria-roledescription="group mark container"><g transform="translate(0,0)"><path class="background" aria-hidden="true" d="M0.5,0.5h800v400h-800Z" stroke="#ddd"/><g><g class="mark-group role-axis" aria-hidden="true"><g transform="translate(0.5,400.5)"><path class="background" aria-hidden="true" d="M0,0h0v0h0Z" pointer-events="none"/><g><g class="mark-rule role-axis-grid" pointer-events="none"><line transform="translate(3,-400)" x2="0" y2="400" stroke="#ddd" stroke-width="1" opacity="1"/><line transform="translate(26,-400)" x2="0" y2="400" stroke="#ddd" stroke-width="1" opacity="1"/><line transform="translate(49,-400)" x2="0" y2="400" stroke="#ddd" stroke-width="1" opacity="1"/><line transform="translate(72,-400)" x2="0" y2="400" stroke="#ddd" stroke-width="1" opacity="1"/><line transform="translate(95,-400)" x2="0" y2="400" stroke="#ddd" stroke-width="1" opacity="1"/><line transform="translate(118,-400)" x2="0" y2="400" stroke="#ddd" stroke-width="1" opacity="1"/><line transform="translate(141,-400)" x2="0" y2="400" stroke="#ddd" stroke-width="1" opacity="1"/><line transform="translate(164,-400)" x2="0" y2="400" stroke="#ddd" stroke-width="1" opacity="1"/><line transform="translate(187,-400)" x2="0" y2="400" stroke="#ddd" stroke-width="1" opacity="1"/><line transform="translate(210,-400)" x2="0" y2="400" stroke="#ddd" stroke-width="1" opacity="1"/><line transform="translate(233,-400)" x2="0" y2="400" stroke="#ddd" stroke-width="1" opacity="1"/><line transform="translate(255,-400)" x2="0" y2="400" stroke="#ddd" stroke-width="1" opacity="1"/><line transform="translate(278,-400)" x2="0" y2="400" stroke="#ddd" stroke-width="1" opacity="1"/><line transform="translate(301,-400)" x2="0" y2="400" stroke="#ddd" stroke-width="1" opacity="1"/><line transform="translate(324,-400)" x2="0" y2="400" stroke="#ddd" stroke-width="1" opacity="1"/><line transform="translate(347,-400)" x2="0" y2="400" stroke="#ddd" stroke-width="1" opacity="1"/><line transform="translate(370,-400)" x2="0" y2="400" stroke="#ddd" stroke-width="1" opacity="1"/><line transform="translate(393,-400)" x2="0" y2="400" stroke="#ddd" stroke-width="1" opacity="1"/><line transform="translate(416,-400)" x2="0" y2="400" stroke="#ddd" stroke-width="1" opacity="1"/><line transform="translate(439,-400)" x2="0" y2="400" stroke="#ddd" stroke-width="1" opacity="1"/><line transform="translate(462,-400)" x2="0" y2="400" stroke="#ddd" stroke-width="1" opacity="1"/><line transform="translate(485,-400)" x2="0" y2="400" stroke="#ddd" stroke-width="1" opacity="1"/><line transform="translate(508,-400)" x2="0" y2="400" stroke="#ddd" stroke-width="1" opacity="1"/><line transform="translate(531,-400)" x2="0" y2="400" stroke="#ddd" stroke-width="1" opacity="1"/><line transform="translate(554,-400)" x2="0" y2="400" stroke="#ddd" stroke-width="1" opacity="1"/><line transform="translate(577,-400)" x2="0" y2="400" stroke="#ddd" stroke-width="1" opacity="1"/><line transform="translate(600,-400)" x2="0" y2="400" stroke="#ddd" stroke-width="1" opacity="1"/><line transform="translate(623,-400)" x2="0" y2="400" stroke="#ddd" stroke-width="1" opacity="1"/><line transform="translate(645,-400)" x2="0" y2="400" stroke="#ddd" stroke-width="1" opacity="1"/><line transform="translate(668,-400)" x2="0" y2="400" stroke="#ddd" stroke-width="1" opacity="1"/><line transform="translate(691,-400)" x2="0" y2="400" stroke="#ddd" stroke-width="1" opacity="1"/><line transform="translate(714,-400)" x2="0" y2="400" stroke="#ddd" stroke-width="1" opacity="1"/><line transform="translate(737,-400)" x2="0" y2="400" stroke="#ddd" stroke-width="1" opacity="1"/><line transform="translate(760,-400)" x2="0" y2="400" stroke="#ddd" stroke-width="1" opacity="1"/><line transform="translate(783,-400)" x2="0" y2="400" stroke="#ddd" stroke-width="1" opacity="1"/></g></g><path class="foreground" aria-hidden="true" d="" pointer-events="none" display="none"/></g></g><g class="mark-group role-axis" aria-hidden="true"><g transform="translate(0.5,0.5)"><path class="background" aria-hidden="true" d="M0,0h0v0h0Z" pointer-events="none"/><g><g class="mark-rule role-axis-grid" pointer-events="none"><line transform="translate(0,400)" x2="800" y2="0" stroke="#ddd" stroke-width="1" opacity="1"/><line transform="translate(0,364)" x2="800" y2="0" stroke="#ddd" stroke-width="1" opacity="1"/><line transform="translate(0,327)" x2="800" y2="0" stroke="#ddd" stroke-width="1" opacity="1"/><line transform="translate(0,291)" x2="800" y2="0" stroke="#ddd" stroke-width="1" opacity="1"/><line transform="translate(0,255)" x2="800" y2="0" stroke="#ddd" stroke-width="1" opacity="1"/><line transform="translate(0,218)" x2="800" y2="0" stroke="#ddd" stroke-width="1" opacity="1"/><line transform="translate(0,182)" x2="800" y2="0" stroke="#ddd" stroke-width="1" opacity="1"/><line transform="translate(0,145)" x2="800" y2="0" stroke="#ddd" stroke-width="1" opacity="1"/><line transform="translate(0,109)" x2="800" y2="0" stroke="#ddd" stroke-width="1" opacity="1"/><line transform="translate(0,73)" x2="800" y2="0" stroke="#ddd" stroke-width="1" opacity="1"/><line transform="translate(0,36)" x2="800" y2="0" stroke="#ddd" stroke-width="1" opacity="1"/><line transform="translate(0,0)" x2="800" y2="0" stroke="#ddd" stroke-width="1" opacity="1"/></g></g><path class="foreground" aria-hidden="true" d="" pointer-events="none" display="none"/></g></g><g class="mark-group role-axis" role="graphics-symbol" aria-roledescription="axis" aria-label="X-axis titled 'date' for a time scale with values from Saturday, 01 January 2022, 2:00:00 AM to Friday, 02 September 2022, 3:00:00 AM"><g transform="translate(0.5,400.5)"><path class="background" aria-hidden="true" d="M0,0h0v0h0Z" pointer-events="none"/><g><g class="mark-rule role-axis-tick" pointer-events="none"><line transform="translate(3,0)" x2="0" y2="5" stroke="#888" stroke-width="1" opacity="1"/><line transform="translate(26,0)" x2="0" y2="5" stroke="#888" stroke-width="1" opacity="1"/><line transform="translate(49,0)" x2="0" y2="5" stroke="#888" stroke-width="1" opacity="1"/><line transform="translate(72,0)" x2="0" y2="5" stroke="#888" stroke-width="1" opacity="1"/><line transform="translate(95,0)" x2="0" y2="5" stroke="#888" stroke-width="1" opacity="1"/><line transform="translate(118,0)" x2="0" y2="5" stroke="#888" stroke-width="1" opacity="1"/><line transform="translate(141,0)" x2="0" y2="5" stroke="#888" stroke-width="1" opacity="1"/><line transform="translate(164,0)" x2="0" y2="5" stroke="#888" stroke-width="1" opacity="1"/><line transform="translate(187,0)" x2="0" y2="5" stroke="#888" stroke-width="1" opacity="1"/><line transform="translate(210,0)" x2="0" y2="5" stroke="#888" stroke-width="1" opacity="1"/><line transform="translate(233,0)" x2="0" y2="5" stroke="#888" stroke-width="1" opacity="1"/><line transform="translate(255,0)" x2="0" y2="5" stroke="#888" stroke-width="1" opacity="1"/><line transform="translate(278,0)" x2="0" y2="5" stroke="#888" stroke-width="1" opacity="1"/><line transform="translate(301,0)" x2="0" y2="5" stroke="#888" stroke-width="1" opacity="1"/><line transform="translate(324,0)" x2="0" y2="5" stroke="#888" stroke-width="1" opacity="1"/><line transform="translate(347,0)" x2="0" y2="5" stroke="#888" stroke-width="1" opacity="1"/><line transform="translate(370,0)" x2="0" y2="5" stroke="#888" stroke-width="1" opacity="1"/><line transform="translate(393,0)" x2="0" y2="5" stroke="#888" stroke-width="1" opacity="1"/><line transform="translate(416,0)" x2="0" y2="5" stroke="#888" stroke-width="1" opacity="1"/><line transform="translate(439,0)" x2="0" y2="5" stroke="#888" stroke-width="1" opacity="1"/><line transform="translate(462,0)" x2="0" y2="5" stroke="#888" stroke-width="1" opacity="1"/><line transform="translate(485,0)" x2="0" y2="5" stroke="#888" stroke-width="1" opacity="1"/><line transform="translate(508,0)" x2="0" y2="5" stroke="#888" stroke-width="1" opacity="1"/><line transform="translate(531,0)" x2="0" y2="5" stroke="#888" stroke-width="1" opacity="1"/><line transform="translate(554,0)" x2="0" y2="5" stroke="#888" stroke-width="1" opacity="1"/><line transform="translate(577,0)" x2="0" y2="5" stroke="#888" stroke-width="1" opacity="1"/><line transform="translate(600,0)" x2="0" y2="5" stroke="#888" stroke-width="1" opacity="1"/><line transform="translate(623,0)" x2="0" y2="5" stroke="#888" stroke-width="1" opacity="1"/><line transform="translate(645,0)" x2="0" y2="5" stroke="#888" stroke-width="1" opacity="1"/><line transform="translate(668,0)" x2="0" y2="5" stroke="#888" stroke-width="1" opacity="1"/><line transform="translate(691,0)" x2="0" y2="5" stroke="#888" stroke-width="1" opacity="1"/><line transform="translate(714,0)" x2="0" y2="5" stroke="#888" stroke-width="1" opacity="1"/><line transform="translate(737,0)" x2="0" y2="5" stroke="#888" stroke-width="1" opacity="1"/><line transform="translate(760,0)" x2="0" y2="5" stroke="#888" stroke-width="1" opacity="1"/><line transform="translate(783,0)" x2="0" y2="5" stroke="#888" stroke-width="1" opacity="1"/></g><g class="mark-text role-axis-label" pointer-events="none"><text text-anchor="middle" transform="translate(3.0054644808743167,15)" font-family="sans-serif" font-size="10px" fill="#000" opacity="1">Jan 02</text><text text-anchor="middle" transform="translate(25.956284153005466,15)" font-family="sans-serif" font-size="10px" fill="#000" opacity="0">Jan 09</text><text text-anchor="middle" transform="translate(48.90710382513661,15)" font-family="sans-serif" font-size="10px" fill="#000" opacity="1">Jan 16</text><text text-anchor="middle" transform="translate(71.85792349726776,15)" font-family="sans-serif" font-size="10px" fill="#000" opacity="0">Jan 23</text><text text-anchor="middle" transform="translate(94.80874316939891,15)" font-family="sans-serif" font-size="10px" fill="#000" opacity="1">Jan 30</text><text text-anchor="middle" transform="translate(117.75956284153007,15)" font-family="sans-serif" font-size="10px" fill="#000" opacity="0">Feb 06</text><text text-anchor="middle" transform="translate(140.7103825136612,15)" font-family="sans-serif" font-size="10px" fill="#000" opacity="1">Feb 13</text><text text-anchor="middle" transform="translate(163.66120218579235,15)" font-family="sans-serif" font-size="10px" fill="#000" opacity="0">Feb 20</text><text text-anchor="middle" transform="translate(186.61202185792348,15)" font-family="sans-serif" font-size="10px" fill="#000" opacity="1">Feb 27</text><text text-anchor="middle" transform="translate(209.56284153005464,15)" font-family="sans-serif" font-size="10px" fill="#000" opacity="0">Mar 06</text><text text-anchor="middle" transform="translate(232.51366120218577,15)" font-family="sans-serif" font-size="10px" fill="#000" opacity="1">Mar 13</text><text text-anchor="middle" transform="translate(255.46448087431693,15)" font-family="sans-serif" font-size="10px" fill="#000" opacity="0">Mar 20</text><text text-anchor="middle" transform="translate(278.41530054644807,15)" font-family="sans-serif" font-size="10px" fill="#000" opacity="1">Mar 27</text><text text-anchor="middle" transform="translate(301.22950819672127,15)" font-family="sans-serif" font-size="10px" fill="#000" opacity="0">Apr 03</text><text text-anchor="middle" transform="translate(324.1803278688525,15)" font-family="sans-serif" font-size="10px" fill="#000" opacity="1">Apr 10</text><text text-anchor="middle" transform="translate(347.1311475409836,15)" font-family="sans-serif" font-size="10px" fill="#000" opacity="0">Apr 17</text><text text-anchor="middle" transform="translate(370.08196721311475,15)" font-family="sans-serif" font-size="10px" fill="#000" opacity="1">Apr 24</text><text text-anchor="middle" transform="translate(393.0327868852459,15)" font-family="sans-serif" font-size="10px" fill="#000" opacity="0">May</text><text text-anchor="middle" transform="translate(415.9836065573771,15)" font-family="sans-serif" font-size="10px" fill="#000" opacity="1">May 08</text><text text-anchor="middle" transform="translate(438.9344262295082,15)" font-family="sans-serif" font-size="10px" fill="#000" opacity="0">May 15</text><text text-anchor="middle" transform="translate(461.88524590163934,15)" font-family="sans-serif" font-size="10px" fill="#000" opacity="1">May 22</text><text text-anchor="middle" transform="translate(484.83606557377044,15)" font-family="sans-serif" font-size="10px" fill="#000" opacity="0">May 29</text><text text-anchor="middle" transform="translate(507.78688524590166,15)" font-family="sans-serif" font-size="10px" fill="#000" opacity="1">Jun 05</text><text text-anchor="middle" transform="translate(530.7377049180328,15)" font-family="sans-serif" font-size="10px" fill="#000" opacity="0">Jun 12</text><text text-anchor="middle" transform="translate(553.688524590164,15)" font-family="sans-serif" font-size="10px" fill="#000" opacity="1">Jun 19</text><text text-anchor="middle" transform="translate(576.639344262295,15)" font-family="sans-serif" font-size="10px" fill="#000" opacity="0">Jun 26</text><text text-anchor="middle" transform="translate(599.5901639344262,15)" font-family="sans-serif" font-size="10px" fill="#000" opacity="1">Jul 03</text><text text-anchor="middle" transform="translate(622.5409836065575,15)" font-family="sans-serif" font-size="10px" fill="#000" opacity="0">Jul 10</text><text text-anchor="middle" transform="translate(645.4918032786885,15)" font-family="sans-serif" font-size="10px" fill="#000" opacity="1">Jul 17</text><text text-anchor="middle" transform="translate(668.4426229508197,15)" font-family="sans-serif" font-size="10px" fill="#000" opacity="0">Jul 24</text><text text-anchor="middle" transform="translate(691.3934426229508,15)" font-family="sans-serif" font-size="10px" fill="#000" opacity="1">Jul 31</text><text text-anchor="middle" transform="translate(714.344262295082,15)" font-family="sans-serif" font-size="10px" fill="#000" opacity="0">Aug 07</text><text text-anchor="middle" transform="translate(737.2950819672132,15)" font-family="sans-serif" font-size="10px" fill="#000" opacity="1">Aug 14</text><text text-anchor="middle" transform="translate(760.2459016393443,15)" font-family="sans-serif" font-size="10px" fill="#000" opacity="0">Aug 21</text><text text-anchor="middle" transform="translate(783.1967213114754,15)" font-family="sans-serif" font-size="10px" fill="#000" opacity="1">Aug 28</text></g><g class="mark-rule role-axis-domain" pointer-events="none"><line transform="translate(0,0)" x2="800" y2="0" stroke="#888" stroke-width="1" opacity="1"/></g><g class="mark-text role-axis-title" pointer-events="none"><text text-anchor="middle" transform="translate(400,30)" font-family="sans-serif" font-size="11px" font-weight="bold" fill="#000" opacity="1">date</text></g></g><path class="foreground" aria-hidden="true" d="" pointer-events="none" display="none"/></g></g><g class="mark-group role-axis" role="graphics-symbol" aria-roledescription="axis" aria-label="Y-axis titled 'min, max' for a linear scale with values from 0 to 110"><g transform="translate(0.5,0.5)"><path class="background" aria-hidden="true" d="M0,0h0v0h0Z" pointer-events="none"/><g><g class="mark-rule role-axis-tick" pointer-events="none"><line transform="translate(0,400)" x2="-5" y2="0" stroke="#888" stroke-width="1" opacity="1"/><line transform="translate(0,364)" x2="-5" y2="0" stroke="#888" stroke-width="1" opacity="1"/><line transform="translate(0,327)" x2="-5" y2="0" stroke="#888" stroke-width="1" opacity="1"/><line transform="translate(0,291)" x2="-5" y2="0" stroke="#888" stroke-width="1" opacity="1"/><line transform="translate(0,255)" x2="-5" y2="0" stroke="#888" stroke-width="1" opacity="1"/><line transform="translate(0,218)" x2="-5" y2="0" stroke="#888" stroke-width="1" opacity="1"/><line transform="translate(0,182)" x2="-5" y2="0" stroke="#888" stroke-width="1" opacity="1"/><line transform="translate(0,145)" x2="-5" y2="0" stroke="#888" stroke-width="1" opacity="1"/><line transform="translate(0,109)" x2="-5" y2="0" stroke="#888" stroke-width="1" opacity="1"/><line transform="translate(0,73)" x2="-5" y2="0" stroke="#888" stroke-width="1" opacity="1"/><line transform="translate(0,36)" x2="-5" y2="0" stroke="#888" stroke-width="1" opacity="1"/><line transform="translate(0,0)" x2="-5" y2="0" stroke="#888" stroke-width="1" opacity="1"/></g><g class="mark-text role-axis-label" pointer-events="none"><text text-anchor="end" transform="translate(-7,403)" font-family="sans-serif" font-size="10px" fill="#000" opacity="1">0</text><text text-anchor="end" transform="translate(-7,366.6363636363636)" font-family="sans-serif" font-size="10px" fill="#000" opacity="1">10</text><text text-anchor="end" transform="translate(-7,330.27272727272725)" font-family="sans-serif" font-size="10px" fill="#000" opacity="1">20</text><text text-anchor="end" transform="translate(-7,293.90909090909093)" font-family="sans-serif" font-size="10px" fill="#000" opacity="1">30</text><text text-anchor="end" transform="translate(-7,257.5454545454545)" font-family="sans-serif" font-size="10px" fill="#000" opacity="1">40</text><text text-anchor="end" transform="translate(-7,221.18181818181816)" font-family="sans-serif" font-size="10px" fill="#000" opacity="1">50</text><text text-anchor="end" transform="translate(-7,184.81818181818184)" font-family="sans-serif" font-size="10px" fill="#000" opacity="1">60</text><text text-anchor="end" transform="translate(-7,148.45454545454547)" font-family="sans-serif" font-size="10px" fill="#000" opacity="1">70</text><text text-anchor="end" transform="translate(-7,112.09090909090908)" font-family="sans-serif" font-size="10px" fill="#000" opacity="1">80</text><text text-anchor="end" transform="translate(-7,75.7272727272727)" font-family="sans-serif" font-size="10px" fill="#000" opacity="1">90</text><text text-anchor="end" transform="translate(-7,39.363636363636374)" font-family="sans-serif" font-size="10px" fill="#000" opacity="1">100</text><text text-anchor="end" transform="translate(-7,3)" font-family="sans-serif" font-size="10px" fill="#000" opacity="1">110</text></g><g class="mark-rule role-axis-domain" pointer-events="none"><line transform="translate(0,400)" x2="0" y2="-400" stroke="#888" stroke-width="1" opacity="1"/></g><g class="mark-text role-axis-title" pointer-events="none"><text text-anchor="middle" transform="translate(-29,200) rotate(-90) translate(0,-2)" font-family="sans-serif" font-size="11px" font-weight="bold" fill="#000" opacity="1">min, max</text></g></g><path class="foreground" aria-hidden="true" d="" pointer-events="none" display="none"/></g></g><g class="mark-area role-mark marks" role="graphics-object" aria-roledescription="area mark container"><path aria-label="date: Jan 01, 2022; min: 4.67108; max: 18.59628" role="graphics-symbol" aria-roledescription="area mark" d="M0,383.01425454545455L3.278688524590164,390.5805090909091L6.557377049180328,391.0629818181818L9.836065573770492,383.4696727272727L13.114754098360656,366.0104727272727L16.39344262295082,364.7930181818182L19.672131147540984,355.14807272727273L22.950819672131146,361.6592L26.229508196721312,362.6917818181818L29.508196721311474,339.6638545454545L32.78688524590164,388.89861818181816L36.0655737704918,394.0976L39.34426229508197,395.2789818181818L42.62295081967213,394.85963636363635L45.90163934426229,392.4517818181818L49.18032786885246,394.048L52.459016393442624,395.45032727272724L55.73770491803278,393.1146181818182L59.01639344262295,393.72334545454544L62.295081967213115,395.9914181818182L65.57377049180327,393.21832727272727L68.85245901639344,360.3515636363636L72.1311475409836,394.7424L75.40983606557377,395.26094545454544L78.68852459016394,394.1742545454546L81.9672131147541,388.2808727272727L85.24590163934425,374.02763636363636L88.52459016393442,388.4026181818182L91.80327868852459,394.1246545454546L95.08196721311475,398.19185454545453L98.36065573770492,378.2075636363636L101.63934426229508,354.9136L104.91803278688525,366.10516363636367L108.19672131147541,357.5829818181818L111.47540983606557,392.8260363636364L114.75409836065573,393.11912727272727L118.0327868852459,394.65221818181817L121.31147540983606,393.76392727272724L124.59016393442623,388.7227636363636L127.86885245901641,394.6973090909091L131.14754098360655,394.86414545454545L134.4262295081967,388.73178181818184L137.70491803278688,394.9317818181818L140.98360655737704,395.3826909090909L144.2622950819672,394.1652363636364L147.54098360655738,393.6917818181818L150.81967213114754,393.6106181818182L154.0983606557377,394.0299636363636L157.37704918032787,394.2509090909091L160.65573770491804,393.5159272727273L163.9344262295082,391.04043636363633L167.21311475409837,392.3661090909091L170.4918032786885,386.4546909090909L173.77049180327867,394.8551272727273L177.04918032786884,395.10763636363635L180.327868852459,393.6512L183.60655737704917,393.6421818181818L186.88524590163937,393.80450909090905L190.1639344262295,393.8405818181818L193.44262295081967,394.6026181818182L196.72131147540983,394.91374545454545L200,393.67825454545454L203.27868852459017,350.41803636363636L206.55737704918033,376.53469090909095L209.8360655737705,388.69120000000004L213.11475409836066,377.42749090909086L216.39344262295083,368.9143272727273L219.672131147541,390.23781818181817L222.95081967213113,394.1742545454546L226.2295081967213,388.70923636363636L229.50819672131146,373.85629090909094L232.78688524590163,391.9061818181818L236.0655737704918,380.8093090909091L239.34426229508196,376.5978181818182L242.62295081967213,393.46632727272726L245.9016393442623,395.00843636363635L249.18032786885246,395.1572363636364L252.45901639344262,396.01396363636366L255.73770491803282,394.9453090909091L259.016393442623,393.70981818181815L262.2950819672131,387.19418181818185L265.57377049180326,394.1562181818182L268.8524590163934,394.42676363636366L272.1311475409836,396.56407272727273L275.40983606557376,397.93032727272725L278.6885245901639,396.37018181818183L281.9672131147541,396.46938181818183L285.24590163934425,380.3719272727273L288.5245901639344,379.8173090909091L291.8032786885246,355.0714181818182L295.08196721311475,357.3981090909091L298.3606557377049,388.6010181818182L301.6393442622951,384.1054545454545L304.91803278688525,392.3255272727273L308.1967213114754,392.3616L311.4754098360656,389.35403636363634L314.75409836065575,396.20334545454546L318.0327868852459,399.04858181818184L321.3114754098361,391.4282181818182L324.59016393442624,397.74545454545455L327.8688524590164,390.1792L331.1475409836066,382.77978181818185L334.42622950819674,373.5181090909091L337.7049180327869,379.86240000000004L340.983606557377,379.83083636363637L344.2622950819672,384.39403636363636L347.54098360655735,394.0750545454546L350.8196721311475,379.7090909090909L354.0983606557377,370.4564363636364L357.37704918032784,386.28334545454544L360.655737704918,392.78996363636367L363.9344262295082,392.4653090909091L367.21311475409834,394.0074181818182L370.4918032786885,385.6610909090909L373.77049180327873,395.7253818181818L377.0491803278689,397.78152727272726L380.327868852459,387.2077090909091L383.60655737704917,390.7157818181818L386.88524590163934,393.71883636363634L390.1639344262295,394.0299636363636L393.44262295081967,392.6186181818182L396.72131147540983,396.19432727272726L400,396.16727272727275L403.2786885245901,384.8178909090909L406.55737704918033,391.88814545454545L409.83606557377044,398.6788363636363L413.11475409836066,399.53556363636363L416.3934426229508,395.6442181818182L419.672131147541,394.4853818181818L422.9508196721311,396.8887272727273L426.2295081967213,397.01047272727277L429.5081967213115,381.9456L432.78688524590166,377.41847272727273L436.0655737704918,383.6184727272727L439.344262295082,396.94283636363633L442.62295081967216,397.2178909090909L445.90163934426226,396.14923636363636L449.1803278688525,394.3275636363636L452.4590163934426,371.5386181818182L455.7377049180328,360.9693090909091L459.0163934426229,372.79665454545454L462.29508196721315,365.78952727272724L465.57377049180326,351.4055272727273L468.8524590163935,363.89570909090907L472.1311475409836,389.24130909090906L475.4098360655738,390.3325090909091L478.6885245901639,363.4853818181818L481.96721311475403,382.392L485.24590163934425,383.7582545454545L488.52459016393436,382.3829818181818L491.8032786885246,395.71636363636367L495.08196721311475,395.9418181818182L498.3606557377049,394.4132363636363L501.6393442622951,394.76494545454545L504.91803278688525,338.64930909090907L508.1967213114754,397.9709090909091L511.47540983606564,391.2613818181818L514.7540983606557,389.0834909090909L518.032786885246,354.864L521.311475409836,343.4695272727273L524.5901639344262,391.10807272727277L527.8688524590164,398.09265454545454L531.1475409836065,399.0981818181818L534.4262295081967,393.8541090909091L537.7049180327868,395.1121454545455L540.983606557377,395.81105454545457L544.2622950819672,396.50094545454544L547.5409836065575,388.11403636363633L550.8196721311475,398.8592L554.0983606557378,399.32814545454545L557.3770491803278,387.9607272727273L560.655737704918,396.40625454545454L563.9344262295082,398.69236363636367L567.2131147540983,398.90880000000004L570.4918032786885,397.77250909090907L573.7704918032787,396.9293090909091L577.0491803278688,390.0439272727273L580.327868852459,388.3394909090909L583.6065573770492,392.6952727272727L586.8852459016393,387.42865454545455L590.1639344262295,384.94865454545453L593.4426229508197,393.2093090909091L596.7213114754098,399.504L600,399.5626181818182L603.2786885245902,398.83665454545456L606.5573770491803,399.57614545454544L609.8360655737705,399.5986909090909L613.1147540983607,399.8196363636364L616.3934426229508,399.8016L619.672131147541,368.14778181818184L622.9508196721312,398.4263272727273L626.2295081967213,318.8273454545455L629.5081967213115,330.9477818181818L632.7868852459017,309.8226909090909L636.0655737704918,332.3726545454545L639.344262295082,340.11927272727274L642.6229508196722,341.72901818181816L645.9016393442622,356.69018181818177L649.1803278688525,357.3530181818182L652.4590163934425,386.48174545454543L655.7377049180328,391.62210909090913L659.016393442623,392.6501818181818L662.2950819672132,372.19694545454547L665.5737704918033,393.57454545454544L668.8524590163935,384.0378181818182L672.1311475409836,398.8050909090909L675.4098360655738,399.35069090909093L678.688524590164,399.4002909090909L681.967213114754,398.9809454545454L685.2459016393443,389.14210909090906L688.5245901639344,391.2433454545455L691.8032786885246,394.95432727272726L695.0819672131147,394.85963636363635L698.360655737705,399.33265454545455L701.639344262295,399.33265454545455L704.9180327868853,399.33716363636364L708.1967213114754,399.29207272727274L711.4754098360656,399.6122181818182L714.7540983606557,399.6843636363636L718.032786885246,363.90923636363635L721.311475409836,398.3857454545455L724.5901639344262,399.9594181818182L727.8688524590164,399.9774545454545L731.1475409836065,388.71825454545456L734.4262295081967,329.97832727272726L737.7049180327868,332.36814545454547L740.983606557377,389.5659636363636L744.2622950819672,399.44538181818183L747.5409836065575,399.63025454545453L750.8196721311475,371.0832L754.0983606557378,377.4229818181818L757.3770491803278,399.7745454545455L760.655737704918,399.8016L763.9344262295082,398.92683636363637L767.2131147540983,329.63563636363637L770.4918032786885,327.55243636363633L773.7704918032787,312.23054545454545L777.0491803278688,350.23767272727275L780.327868852459,345.16043636363634L783.6065573770492,396.5370181818182L786.8852459016393,396.8661818181818L790.1639344262295,390.9502545454545L793.4426229508197,389.6967272727273L796.7213114754098,387.7984L800,380.23665454545454L800,137.58443636363634L796.7213114754098,117.46487272727268L793.4426229508197,82.67723636363644L790.1639344262295,39.28625454545454L786.8852459016393,147.2744727272727L783.6065573770492,280.464L780.327868852459,181.33614545454546L777.0491803278688,52.80000000000001L773.7704918032787,62.54414545454546L770.4918032786885,141.20523636363637L767.2131147540983,62.0706909090909L763.9344262295082,118.34414545454547L760.655737704918,366.2224L757.3770491803278,320.1845818181818L754.0983606557378,134.27476363636367L750.8196721311475,99.22560000000004L747.5409836065575,237.68174545454545L744.2622950819672,120.55359999999996L740.983606557377,165.4912L737.7049180327868,191.4094545454545L734.4262295081967,189.7861818181818L731.1475409836065,207.86312727272724L727.8688524590164,299.10007272727273L724.5901639344262,271.03549090909087L721.311475409836,207.81352727272724L718.032786885246,11.704145454545426L714.7540983606557,317.1048727272727L711.4754098360656,369.0541090909091L708.1967213114754,327.8365090909091L704.9180327868853,392.7493818181818L701.639344262295,360.96479999999997L698.360655737705,255.7361454545455L695.0819672131147,186.92741818181818L691.8032786885246,301.7018181818182L688.5245901639344,303.60465454545454L685.2459016393443,301.0029090909091L681.967213114754,282.2L678.688524590164,313.8493090909091L675.4098360655738,392.3976727272727L672.1311475409836,294.848L668.8524590163935,264.86705454545455L665.5737704918033,309.8181818181818L662.2950819672132,244.73847272727275L659.016393442623,264.72727272727275L655.7377049180328,251.79069090909093L652.4590163934425,217.54865454545453L649.1803278688525,242.18632727272728L645.9016393442622,319.64349090909093L642.6229508196722,267.7122909090909L639.344262295082,217.4269090909091L636.0655737704918,204.27389090909097L632.7868852459017,152.04509090909096L629.5081967213115,183.64479999999998L626.2295081967213,152L622.9508196721312,245.6132363636364L619.672131147541,312.32072727272725L616.3934426229508,299.4112L613.1147540983607,264.7002181818182L609.8360655737705,300.3941818181818L606.5573770491803,319.2151272727273L603.2786885245902,181.72392727272725L600,334.2845090909091L596.7213114754098,343.8618181818182L593.4426229508197,226.31432727272733L590.1639344262295,184.01454545454544L586.8852459016393,223.73963636363635L583.6065573770492,291.24974545454546L580.327868852459,232.6811636363636L577.0491803278688,327.8410181818182L573.7704918032787,330.4157090909091L570.4918032786885,337.58516363636363L567.2131147540983,332.36814545454547L563.9344262295082,231.1570909090909L560.655737704918,247.18690909090907L557.3770491803278,174.54545454545456L554.0983606557378,365.2304L550.8196721311475,353.3714909090909L547.5409836065575,253.13890909090907L544.2622950819672,289.5272727272727L540.983606557377,286.0192L537.7049180327868,286.6369454545454L534.4262295081967,304.3531636363636L531.1475409836065,379.1499636363636L527.8688524590164,383.6229818181818L524.5901639344262,233.8039272727273L521.311475409836,285.0046545454545L518.032786885246,270.52145454545456L514.7540983606557,291.7818181818182L511.47540983606564,276.35170909090914L508.1967213114754,337.3552L504.91803278688525,309.8948363636364L501.6393442622951,297.83752727272724L498.3606557377049,299.4021818181818L495.08196721311475,286.3799272727273L491.8032786885246,288.2782545454545L488.52459016393436,274.6112L485.24590163934425,320.5047272727273L481.96721311475403,325.8840727272728L478.6885245901639,298.0494545454546L475.4098360655738,301.4042181818182L472.1311475409836,293.0714181818182L468.8524590163935,285.0091636363636L465.57377049180326,287.27723636363635L462.29508196721315,297.23781818181817L459.0163934426229,296.24130909090906L455.7377049180328,174.5229090909091L452.4590163934426,233.66865454545453L449.1803278688525,237.2714181818182L445.90163934426226,268.7629090909091L442.62295081967216,289.5002181818182L439.344262295082,319.99970909090905L436.0655737704918,319.38647272727275L432.78688524590166,290.5463272727273L429.5081967213115,325.58196363636364L426.2295081967213,314.5346909090909L422.9508196721311,310.4269090909091L419.672131147541,284.46356363636363L416.3934426229508,313.27665454545456L413.11475409836066,354.09294545454543L409.83606557377044,276.0360727272727L406.55737704918033,282.8944L403.2786885245901,266.1250909090909L400,278.15083636363636L396.72131147540983,292.2597818181818L393.44262295081967,300.8541090909091L390.1639344262295,301.0074181818182L386.88524590163934,268.6862545454545L383.60655737704917,272.22589090909094L380.327868852459,277.7991272727273L377.0491803278689,306.36421818181816L373.77049180327873,277.1408L370.4918032786885,323.3770181818182L367.21311475409834,381.72465454545454L363.9344262295082,362.28596363636365L360.655737704918,363.08407272727277L357.37704918032784,350.4045090909091L354.0983606557377,321.0909090909091L350.8196721311475,361.03243636363635L347.54098360655735,366.84916363636364L344.2622950819672,368.8512L340.983606557377,364.26094545454544L337.7049180327869,333.01294545454545L334.42622950819674,313.5381818181818L331.1475409836066,278.8046545454546L327.8688524590164,310.224L324.59016393442624,386.5133090909091L321.3114754098361,381.99519999999995L318.0327868852459,378.58181818181816L314.75409836065575,331.72785454545453L311.4754098360656,319.54429090909093L308.1967213114754,350.43607272727274L304.91803278688525,345.62036363636366L301.6393442622951,359.37760000000003L298.3606557377049,362.41672727272726L295.08196721311475,305.9989818181818L291.8032786885246,254.10385454545454L288.5245901639344,329.6221090909091L285.24590163934425,287.2727272727273L281.9672131147541,381.52174545454545L278.6885245901639,353.0648727272727L275.40983606557376,370.4789818181818L272.1311475409836,348.1860363636364L268.8524590163934,309.16436363636365L265.57377049180326,269.2498909090909L262.2950819672131,273.24945454545457L259.016393442623,365.8526545454545L255.73770491803282,371.9850181818182L252.45901639344262,392.2669090909091L249.18032786885246,323.3725090909091L245.9016393442623,366.63723636363636L242.62295081967213,313.96203636363634L239.34426229508196,293.2698181818182L236.0655737704918,296.4757818181818L232.78688524590163,346.7837090909091L229.50819672131146,307.9469090909091L226.2295081967213,316.55476363636365L222.95081967213113,361.9072L219.672131147541,138.72072727272723L216.39344262295083,276.6402909090909L213.11475409836066,173.35054545454545L209.8360655737705,341.34574545454547L206.55737704918033,345.92698181818184L203.27868852459017,215.1047272727273L200,345.89992727272727L196.72131147540983,343.5191272727273L193.44262295081967,350.4L190.1639344262295,320.92407272727274L186.88524590163937,372.9589818181818L183.60655737704917,334.30705454545455L180.327868852459,339.4970181818182L177.04918032786884,342.5677090909091L173.77049180327867,303.64974545454544L170.4918032786885,306.8827636363636L167.21311475409837,347.26618181818185L163.9344262295082,355.7117090909091L160.65573770491804,348.28523636363633L157.37704918032787,346.7611636363636L154.0983606557377,350.49920000000003L150.81967213114754,346.5447272727273L147.54098360655738,346.3778909090909L144.2622950819672,347.0722909090909L140.98360655737704,373.82923636363637L137.70491803278688,347.7170909090909L134.4262295081967,330.9117090909091L131.14754098360655,341.83272727272725L127.86885245901641,342.6849454545454L124.59016393442623,336.21890909090905L121.31147540983606,330.09556363636364L118.0327868852459,345.92698181818184L114.75409836065573,343.9610181818182L111.47540983606557,330.12712727272725L108.19672131147541,293.4005818181818L104.91803278688525,279.65236363636365L101.63934426229508,290.10443636363635L98.36065573770492,288.24669090909094L95.08196721311475,357.1861818181818L91.80327868852459,380.8002909090909L88.52459016393442,332.2869818181818L85.24590163934425,298.50487272727275L81.9672131147541,339.4384L78.68852459016394,282.7861818181818L75.40983606557377,338.2840727272727L72.1311475409836,347.70356363636364L68.85245901639344,298.41920000000005L65.57377049180327,329.1531636363636L62.295081967213115,339.20843636363634L59.01639344262295,341.3728L55.73770491803278,270.44029090909095L52.459016393442624,332.0840727272727L49.18032786885246,377.928L45.90163934426229,285.5773090909091L42.62295081967213,336.1152L39.34426229508197,383.632L36.0655737704918,332.9949090909091L32.78688524590164,303.9293090909091L29.508196721311474,257.751709090909L26.229508196721312,290.34341818181815L22.950819672131146,314.3723636363637L19.672131147540984,288.30080000000004L16.39344262295082,278.22298181818184L13.114754098360656,327.8500363636364L9.836065573770492,324.3013818181818L6.557377049180328,337.06661818181817L3.278688524590164,356.9832727272727L0,332.3771636363636Z" fill="#4c78a8"/></g></g><path class="foreground" aria-hidden="true" d="" display="none"/></g></g></g></svg>