<svg xmlns="http://www.w3.org/2000/svg" xmlns:xlink="http://www.w3.org/1999/xlink" version="1.1" class="marks" width="850" height="447" viewBox="0 0 850 447"><rect width="850" height="447" fill="white"/><g fill="none" stroke-miterlimit="10" transform="translate(45,10)"><g class="mark-group role-frame root" role="graphics-object" aria-roledescription="group mark container"><g transform="translate(0,0)"><path class="background" aria-hidden="true" d="M0.5,0.5h800v400h-800Z" stroke="#ddd"/><g><g class="mark-group role-axis" aria-hidden="true"><g transform="translate(0.5,400.5)"><path class="background" aria-hidden="true" d="M0,0h0v0h0Z" pointer-events="none"/><g><g class="mark-rule role-axis-grid" pointer-events="none"><line transform="translate(3,-400)" x2="0" y2="400" stroke="#ddd" stroke-width="1" opacity="1"/><line transform="translate(23,-400)" x2="0" y2="400" stroke="#ddd" stroke-width="1" opacity="1"/><line transform="translate(43,-400)" x2="0" y2="400" stroke="#ddd" stroke-width="1" opacity="1"/><line transform="translate(63,-400)" x2="0" y2="400" stroke="#ddd" stroke-width="1" opacity="1"/><line transform="translate(84,-400)" x2="0" y2="400" stroke="#ddd" stroke-width="1" opacity="1"/><line transform="translate(104,-400)" x2="0" y2="400" stroke="#ddd" stroke-width="1" opacity="1"/><line transform="translate(124,-400)" x2="0" y2="400" stroke="#ddd" stroke-width="1" opacity="1"/><line transform="translate(144,-400)" x2="0" y2="400" stroke="#ddd" stroke-width="1" opacity="1"/><line transform="translate(164,-400)" x2="0" y2="400" stroke="#ddd" stroke-width="1" opacity="1"/><line transform="translate(185,-400)" x2="0" y2="400" stroke="#ddd" stroke-width="1" opacity="1"/><line transform="translate(205,-400)" x2="0" y2="400" stroke="#ddd" stroke-width="1" opacity="1"/><line transform="translate(225,-400)" x2="0" y2="400" stroke="#ddd" stroke-width="1" opacity="1"/><line transform="translate(245,-400)" x2="0" y2="400" stroke="#ddd" stroke-width="1" opacity="1"/><line transform="translate(265,-400)" x2="0" y2="400" stroke="#ddd" stroke-width="1" opacity="1"/><line transform="translate(286,-400)" x2="0" y2="400" stroke="#ddd" stroke-width="1" opacity="1"/><line transform="translate(306,-400)" x2="0" y2="400" stroke="#ddd" stroke-width="1" opacity="1"/><line transform="translate(326,-400)" x2="0" y2="400" stroke="#ddd" stroke-width="1" opacity="1"/><line transform="translate(346,-400)" x2="0" y2="400" stroke="#ddd" stroke-width="1" opacity="1"/><line transform="translate(366,-400)" x2="0" y2="400" stroke="#ddd" stroke-width="1" opacity="1"/><line transform="translate(387,-400)" x2="0" y2="400" stroke="#ddd" stroke-width="1" opacity="1"/><line transform="translate(407,-400)" x2="0" y2="400" stroke="#ddd" stroke-width="1" opacity="1"/><line transform="translate(427,-400)" x2="0" y2="400" stroke="#ddd" stroke-width="1" opacity="1"/><line transform="translate(447,-400)" x2="0" y2="400" stroke="#ddd" stroke-width="1" opacity="1"/><line transform="translate(468,-400)" x2="0" y2="400" stroke="#ddd" stroke-width="1" opacity="1"/><line transform="translate(488,-400)" x2="0" y2="400" stroke="#ddd" stroke-width="1" opacity="1"/><line transform="translate(508,-400)" x2="0" y2="400" stroke="#ddd" stroke-width="1" opacity="1"/><line transform="translate(528,-400)" x2="0" y2="400" stroke="#ddd" stroke-width="1" opacity="1"/><line transform="translate(548,-400)" x2="0" y2="400" stroke="#ddd" stroke-width="1" opacity="1"/><line transform="translate(569,-400)" x2="0" y2="400" stroke="#ddd" stroke-width="1" opacity="1"/><line transform="translate(589,-400)" x2="0" y2="400" stroke="#ddd" stroke-width="1" opacity="1"/><line transform="translate(609,-400)" x2="0" y2="400" stroke="#ddd" stroke-width="1" opacity="1"/><line transform="translate(629,-400)" x2="0" y2="400" stroke="#ddd" stroke-width="1" opacity="1"/><line transform="translate(649,-400)" x2="0" y2="400" stroke="#ddd" stroke-width="1" opacity="1"/><line transform="translate(670,-400)" x2="0" y2="400" stroke="#ddd" stroke-width="1" opacity="1"/><line transform="translate(690,-400)" x2="0" y2="400" stroke="#ddd" stroke-width="1" opacity="1"/><line transform="translate(710,-400)" x2="0" y2="400" stroke="#ddd" stroke-width="1" opacity="1"/><line transform="translate(730,-400)" x2="0" y2="400" stroke="#ddd" stroke-width="1" opacity="1"/><line transform="translate(751,-400)" x2="0" y2="400" stroke="#ddd" stroke-width="1" opacity="1"/><line transform="translate(771,-400)" x2="0" y2="400" stroke="#ddd" stroke-width="1" opacity="1"/><line transform="translate(791,-400)" x2="0" y2="400" stroke="#ddd" stroke-width="1" opacity="1"/></g></g><path class="foreground" aria-hidden="true" d="" pointer-events="none" display="none"/></g></g><g class="mark-group role-axis" aria-hidden="true"><g transform="translate(0.5,0.5)"><path class="background" aria-hidden="true" d="M0,0h0v0h0Z" pointer-events="none"/><g><g class="mark-rule role-axis-grid" pointer-events="none"><line transform="translate(0,400)" x2="800" y2="0" stroke="#ddd" stroke-width="1" opacity="1"/><line transform="translate(0,364)" x2="800" y2="0" stroke="#ddd" stroke-width="1" opacity="1"/><line transform="translate(0,327)" x2="800" y2="0" stroke="#ddd" stroke-width="1" opacity="1"/><line transform="translate(0,291)" x2="800" y2="0" stroke="#ddd" stroke-width="1" opacity="1"/><line transform="translate(0,255)" x2="800" y2="0" stroke="#ddd" stroke-width="1" opacity="1"/><line transform="translate(0,218)" x2="800" y2="0" stroke="#ddd" stroke-width="1" opacity="1"/><line transform="translate(0,182)" x2="800" y2="0" stroke="#ddd" stroke-width="1" opacity="1"/><line transform="translate(0,145)" x2="800" y2="0" stroke="#ddd" stroke-width="1" opacity="1"/><line transform="translate(0,109)" x2="800" y2="0" stroke="#ddd" stroke-width="1" opacity="1"/><line transform="translate(0,73)" x2="800" y2="0" stroke="#ddd" stroke-width="1" opacity="1"/><line transform="translate(0,36)" x2="800" y2="0" stroke="#ddd" stroke-width="1" opacity="1"/><line transform="translate(0,0)" x2="800" y2="0" stroke="#ddd" stroke-width="1" opacity="1"/></g></g><path class="foreground" aria-hidden="true" d="" pointer-events="none" display="none"/></g></g><g class="mark-group role-axis" role="graphics-symbol" aria-roledescription="axis" aria-label="X-axis titled 'date' for a time scale with values from Saturday, 01 January 2022, 2:00:00 AM to Wednesday, 05 October 2022, 3:00:00 AM"><g transform="translate(0.5,400.5)"><path class="background" aria-hidden="true" d="M0,0h0v0h0Z" pointer-events="none"/><g><g class="mark-rule role-axis-tick" pointer-events="none"><line transform="translate(3,0)" x2="0" y2="5" stroke="#888" stroke-width="1" opacity="1"/><line transform="translate(23,0)" x2="0" y2="5" stroke="#888" stroke-width="1" opacity="1"/><line transform="translate(43,0)" x2="0" y2="5" stroke="#888" stroke-width="1" opacity="1"/><line transform="translate(63,0)" x2="0" y2="5" stroke="#888" stroke-width="1" opacity="1"/><line transform="translate(84,0)" x2="0" y2="5" stroke="#888" stroke-width="1" opacity="1"/><line transform="translate(104,0)" x2="0" y2="5" stroke="#888" stroke-width="1" opacity="1"/><line transform="translate(124,0)" x2="0" y2="5" stroke="#888" stroke-width="1" opacity="1"/><line transform="translate(144,0)" x2="0" y2="5" stroke="#888" stroke-width="1" opacity="1"/><line transform="translate(164,0)" x2="0" y2="5" stroke="#888" stroke-width="1" opacity="1"/><line transform="translate(185,0)" x2="0" y2="5" stroke="#888" stroke-width="1" opacity="1"/><line transform="translate(205,0)" x2="0" y2="5" stroke="#888" stroke-width="1" opacity="1"/><line transform="translate(225,0)" x2="0" y2="5" stroke="#888" stroke-width="1" opacity="1"/><line transform="translate(245,0)" x2="0" y2="5" stroke="#888" stroke-width="1" opacity="1"/><line transform="translate(265,0)" x2="0" y2="5" stroke="#888" stroke-width="1" opacity="1"/><line transform="translate(286,0)" x2="0" y2="5" stroke="#888" stroke-width="1" opacity="1"/><line transform="translate(306,0)" x2="0" y2="5" stroke="#888" stroke-width="1" opacity="1"/><line transform="translate(326,0)" x2="0" y2="5" stroke="#888" stroke-width="1" opacity="1"/><line transform="translate(346,0)" x2="0" y2="5" stroke="#888" stroke-width="1" opacity="1"/><line transform="translate(366,0)" x2="0" y2="5" stroke="#888" stroke-width="1" opacity="1"/><line transform="translate(387,0)" x2="0" y2="5" stroke="#888" stroke-width="1" opacity="1"/><line transform="translate(407,0)" x2="0" y2="5" stroke="#888" stroke-width="1" opacity="1"/><line transform="translate(427,0)" x2="0" y2="5" stroke="#888" stroke-width="1" opacity="1"/><line transform="translate(447,0)" x2="0" y2="5" stroke="#888" stroke-width="1" opacity="1"/><line transform="translate(468,0)" x2="0" y2="5" stroke="#888" stroke-width="1" opacity="1"/><line transform="translate(488,0)" x2="0" y2="5" stroke="#888" stroke-width="1" opacity="1"/><line transform="translate(508,0)" x2="0" y2="5" stroke="#888" stroke-width="1" opacity="1"/><line transform="translate(528,0)" x2="0" y2="5" stroke="#888" stroke-width="1" opacity="1"/><line transform="translate(548,0)" x2="0" y2="5" stroke="#888" stroke-width="1" opacity="1"/><line transform="translate(569,0)" x2="0" y2="5" stroke="#888" stroke-width="1" opacity="1"/><line transform="translate(589,0)" x2="0" y2="5" stroke="#888" stroke-width="1" opacity="1"/><line transform="translate(609,0)" x2="0" y2="5" stroke="#888" stroke-width="1" opacity="1"/><line transform="translate(629,0)" x2="0" y2="5" stroke="#888" stroke-width="1" opacity="1"/><line transform="translate(649,0)" x2="0" y2="5" stroke="#888" stroke-width="1" opacity="1"/><line transform="translate(670,0)" x2="0" y2="5" stroke="#888" stroke-width="1" opacity="1"/><line transform="translate(690,0)" x2="0" y2="5" stroke="#888" stroke-width="1" opacity="1"/><line transform="translate(710,0)" x2="0" y2="5" stroke="#888" stroke-width="1" opacity="1"/><line transform="translate(730,0)" x2="0" y2="5" stroke="#888" stroke-width="1" opacity="1"/><line transform="translate(751,0)" x2="0" y2="5" stroke="#888" stroke-width="1" opacity="1"/><line transform="translate(771,0)" x2="0" y2="5" stroke="#888" stroke-width="1" opacity="1"/><line transform="translate(791,0)" x2="0" y2="5" stroke="#888" stroke-width="1" opacity="1"/></g><g class="mark-text role-axis-label" pointer-events="none"><text text-anchor="middle" transform="translate(2.6474127557160045,15)" font-family="sans-serif" font-size="10px" fill="#000" opacity="1">Jan 02</text><text text-anchor="middle" transform="translate(22.86401925391095,15)" font-family="sans-serif" font-size="10px" fill="#000" opacity="0">Jan 09</text><text text-anchor="middle" transform="translate(43.080625752105895,15)" font-family="sans-serif" font-size="10px" fill="#000" opacity="1">Jan 16</text><text text-anchor="middle" transform="translate(63.29723225030084,15)" font-family="sans-serif" font-size="10px" fill="#000" opacity="0">Jan 23</text><text text-anchor="middle" transform="translate(83.51383874849579,15)" font-family="sans-serif" font-size="10px" fill="#000" opacity="1">Jan 30</text><text text-anchor="middle" transform="translate(103.73044524669072,15)" font-family="sans-serif" font-size="10px" fill="#000" opacity="0">Feb 06</text><text text-anchor="middle" transform="translate(123.94705174488567,15)" font-family="sans-serif" font-size="10px" fill="#000" opacity="1">Feb 13</text><text text-anchor="middle" transform="translate(144.16365824308062,15)" font-family="sans-serif" font-size="10px" fill="#000" opacity="0">Feb 20</text><text text-anchor="middle" transform="translate(164.38026474127557,15)" font-family="sans-serif" font-size="10px" fill="#000" opacity="1">Feb 27</text><text text-anchor="middle" transform="translate(184.59687123947052,15)" font-family="sans-serif" font-size="10px" fill="#000" opacity="0">Mar 06</text><text text-anchor="middle" transform="translate(204.81347773766547,15)" font-family="sans-serif" font-size="10px" fill="#000" opacity="1">Mar 13</text><text text-anchor="middle" transform="translate(225.0300842358604,15)" font-family="sans-serif" font-size="10px" fill="#000" opacity="0">Mar 20</text><text text-anchor="middle" transform="translate(245.24669073405536,15)" font-family="sans-serif" font-size="10px" fill="#000" opacity="1">Mar 27</text><text text-anchor="middle" transform="translate(265.3429602888087,15)" font-family="sans-serif" font-size="10px" fill="#000" opacity="0">Apr 03</text><text text-anchor="middle" transform="translate(285.55956678700363,15)" font-family="sans-serif" font-size="10px" fill="#000" opacity="1">Apr 10</text><text text-anchor="middle" transform="translate(305.7761732851985,15)" font-family="sans-serif" font-size="10px" fill="#000" opacity="0">Apr 17</text><text text-anchor="middle" transform="translate(325.99277978339353,15)" font-family="sans-serif" font-size="10px" fill="#000" opacity="1">Apr 24</text><text text-anchor="middle" transform="translate(346.2093862815884,15)" font-family="sans-serif" font-size="10px" fill="#000" opacity="0">May</text><text text-anchor="middle" transform="translate(366.4259927797834,15)" font-family="sans-serif" font-size="10px" fill="#000" opacity="1">May 08</text><text text-anchor="middle" transform="translate(386.6425992779783,15)" font-family="sans-serif" font-size="10px" fill="#000" opacity="0">May 15</text><text text-anchor="middle" transform="translate(406.85920577617327,15)" font-family="sans-serif" font-size="10px" fill="#000" opacity="1">May 22</text><text text-anchor="middle" transform="translate(427.0758122743683,15)" font-family="sans-serif" font-size="10px" fill="#000" opacity="0">May 29</text><text text-anchor="middle" transform="translate(447.2924187725631,15)" font-family="sans-serif" font-size="10px" fill="#000" opacity="1">Jun 05</text><text text-anchor="middle" transform="translate(467.5090252707581,15)" font-family="sans-serif" font-size="10px" fill="#000" opacity="0">Jun 12</text><text text-anchor="middle" transform="translate(487.72563176895306,15)" font-family="sans-serif" font-size="10px" fill="#000" opacity="1">Jun 19</text><text text-anchor="middle" transform="translate(507.942238267148,15)" font-family="sans-serif" font-size="10px" fill="#000" opacity="0">Jun 26</text><text text-anchor="middle" transform="translate(528.1588447653429,15)" font-family="sans-serif" font-size="10px" fill="#000" opacity="1">Jul 03</text><text text-anchor="middle" transform="translate(548.3754512635379,15)" font-family="sans-serif" font-size="10px" fill="#000" opacity="0">Jul 10</text><text text-anchor="middle" transform="translate(568.5920577617328,15)" font-family="sans-serif" font-size="10px" fill="#000" opacity="1">Jul 17</text><text text-anchor="middle" transform="translate(588.8086642599278,15)" font-family="sans-serif" font-size="10px" fill="#000" opacity="0">Jul 24</text><text text-anchor="middle" transform="translate(609.0252707581228,15)" font-family="sans-serif" font-size="10px" fill="#000" opacity="1">Jul 31</text><text text-anchor="middle" transform="translate(629.2418772563177,15)" font-family="sans-serif" font-size="10px" fill="#000" opacity="0">Aug 07</text><text text-anchor="middle" transform="translate(649.4584837545126,15)" font-family="sans-serif" font-size="10px" fill="#000" opacity="1">Aug 14</text><text text-anchor="middle" transform="translate(669.6750902527076,15)" font-family="sans-serif" font-size="10px" fill="#000" opacity="0">Aug 21</text><text text-anchor="middle" transform="translate(689.8916967509026,15)" font-family="sans-serif" font-size="10px" fill="#000" opacity="1">Aug 28</text><text text-anchor="middle" transform="translate(710.1083032490974,15)" font-family="sans-serif" font-size="10px" fill="#000" opacity="0">Sep 04</text><text text-anchor="middle" transform="translate(730.3249097472924,15)" font-family="sans-serif" font-size="10px" fill="#000" opacity="1">Sep 11</text><text text-anchor="middle" transform="translate(750.5415162454874,15)" font-family="sans-serif" font-size="10px" fill="#000" opacity="0">Sep 18</text><text text-anchor="middle" transform="translate(770.7581227436823,15)" font-family="sans-serif" font-size="10px" fill="#000" opacity="1">Sep 25</text><text text-anchor="middle" transform="translate(790.9747292418772,15)" font-family="sans-serif" font-size="10px" fill="#000" opacity="0">Oct 02</text></g><g class="mark-rule role-axis-domain" pointer-events="none"><line transform="translate(0,0)" x2="800" y2="0" stroke="#888" stroke-width="1" opacity="1"/></g><g class="mark-text role-axis-title" pointer-events="none"><text text-anchor="middle" transform="translate(400,30)" font-family="sans-serif" font-size="11px" font-weight="bold" fill="#000" opacity="1">date</text></g></g><path class="foreground" aria-hidden="true" d="" pointer-events="none" display="none"/></g></g><g class="mark-group role-axis" role="graphics-symbol" aria-roledescription="axis" aria-label="Y-axis titled 'min, max' for a linear scale with values from 0 to 110"><g transform="translate(0.5,0.5)"><path class="background" aria-hidden="true" d="M0,0h0v0h0Z" pointer-events="none"/><g><g class="mark-rule role-axis-tick" pointer-events="none"><line transform="translate(0,400)" x2="-5" y2="0" stroke="#888" stroke-width="1" opacity="1"/><line transform="translate(0,364)" x2="-5" y2="0" stroke="#888" stroke-width="1" opacity="1"/><line transform="translate(0,327)" x2="-5" y2="0" stroke="#888" stroke-width="1" opacity="1"/><line transform="translate(0,291)" x2="-5" y2="0" stroke="#888" stroke-width="1" opacity="1"/><line transform="translate(0,255)" x2="-5" y2="0" stroke="#888" stroke-width="1" opacity="1"/><line transform="translate(0,218)" x2="-5" y2="0" stroke="#888" stroke-width="1" opacity="1"/><line transform="translate(0,182)" x2="-5" y2="0" stroke="#888" stroke-width="1" opacity="1"/><line transform="translate(0,145)" x2="-5" y2="0" stroke="#888" stroke-width="1" opacity="1"/><line transform="translate(0,109)" x2="-5" y2="0" stroke="#888" stroke-width="1" opacity="1"/><line transform="translate(0,73)" x2="-5" y2="0" stroke="#888" stroke-width="1" opacity="1"/><line transform="translate(0,36)" x2="-5" y2="0" stroke="#888" stroke-width="1" opacity="1"/><line transform="translate(0,0)" x2="-5" y2="0" stroke="#888" stroke-width="1" opacity="1"/></g><g class="mark-text role-axis-label" pointer-events="none"><text text-anchor="end" transform="translate(-7,403)" font-family="sans-serif" font-size="10px" fill="#000" opacity="1">0</text><text text-anchor="end" transform="translate(-7,366.6363636363636)" font-family="sans-serif" font-size="10px" fill="#000" opacity="1">10</text><text text-anchor="end" transform="translate(-7,330.27272727272725)" font-family="sans-serif" font-size="10px" fill="#000" opacity="1">20</text><text text-anchor="end" transform="translate(-7,293.90909090909093)" font-family="sans-serif" font-size="10px" fill="#000" opacity="1">30</text><text text-anchor="end" transform="translate(-7,257.5454545454545)" font-family="sans-serif" font-size="10px" fill="#000" opacity="1">40</text><text text-anchor="end" transform="translate(-7,221.18181818181816)" font-family="sans-serif" font-size="10px" fill="#000" opacity="1">50</text><text text-anchor="end" transform="translate(-7,184.81818181818184)" font-family="sans-serif" font-size="10px" fill="#000" opacity="1">60</text><text text-anchor="end" transform="translate(-7,148.45454545454547)" font-family="sans-serif" font-size="10px" fill="#000" opacity="1">70</text><text text-anchor="end" transform="translate(-7,112.09090909090908)" font-family="sans-serif" font-size="10px" fill="#000" opacity="1">80</text><text text-anchor="end" transform="translate(-7,75.7272727272727)" font-family="sans-serif" font-size="10px" fill="#000" opacity="1">90</text><text text-anchor="end" transform="translate(-7,39.363636363636374)" font-family="sans-serif" font-size="10px" fill="#000" opacity="1">100</text><text text-anchor="end" transform="translate(-7,3)" font-family="sans-serif" font-size="10px" fill="#000" opacity="1">110</text></g><g class="mark-rule role-axis-domain" pointer-events="none"><line transform="translate(0,400)" x2="0" y2="-400" stroke="#888" stroke-width="1" opacity="1"/></g><g class="mark-text role-axis-title" pointer-events="none"><text text-anchor="middle" transform="translate(-29,200) rotate(-90) translate(0,-2)" font-family="sans-serif" font-size="11px" font-weight="bold" fill="#000" opacity="1">min, max</text></g></g><path class="foreground" aria-hidden="true" d="" pointer-events="none" display="none"/></g></g><g class="mark-area role-mark marks" role="graphics-object" aria-roledescription="area mark container"><path aria-label="date: Jan 01, 2022; min: 4.67108; max: 18.59628" role="graphics-symbol" aria-roledescription="area mark" d="M0,383.01425454545455L2.888086642599278,390.5805090909091L5.776173285198556,391.0629818181818L8.664259927797833,383.4696727272727L11.552346570397113,366.0104727272727L14.440433212996389,364.7930181818182L17.328519855595665,355.14807272727273L20.216606498194945,361.6592L23.104693140794225,362.6917818181818L25.992779783393498,339.6638545454545L28.880866425992778,388.89861818181816L31.768953068592058,394.0976L34.65703971119133,395.2789818181818L37.545126353790614,394.85963636363635L40.43321299638989,392.4517818181818L43.32129963898917,394.048L46.20938628158845,395.45032727272724L49.09747292418773,393.1146181818182L51.985559566786996,393.72334545454544L54.87364620938629,395.9914181818182L57.761732851985556,393.21832727272727L60.64981949458483,360.3515636363636L63.537906137184116,394.7424L66.4259927797834,395.26094545454544L69.31407942238266,394.1742545454546L72.20216606498195,388.2808727272727L75.09025270758123,374.02763636363636L77.9783393501805,388.4026181818182L80.86642599277978,394.1246545454546L83.75451263537906,398.19185454545453L86.64259927797833,378.2075636363636L89.53068592057761,354.9136L92.4187725631769,366.10516363636367L95.30685920577618,357.5829818181818L98.19494584837545,392.8260363636364L101.08303249097472,393.11912727272727L103.97111913357399,394.65221818181817L106.8592057761733,393.76392727272724L109.74729241877257,388.7227636363636L112.63537906137185,394.6973090909091L115.52346570397111,394.86414545454545L118.41155234657039,388.73178181818184L121.29963898916967,394.9317818181818L124.18772563176897,395.3826909090909L127.07581227436823,394.1652363636364L129.9638989169675,393.6917818181818L132.8519855595668,393.6106181818182L135.74007220216606,394.0299636363636L138.62815884476532,394.2509090909091L141.5162454873646,393.5159272727273L144.4043321299639,391.04043636363633L147.2924187725632,392.3661090909091L150.18050541516246,386.4546909090909L153.06859205776172,394.8551272727273L155.956678700361,395.10763636363635L158.84476534296027,393.6512L161.73285198555956,393.6421818181818L164.62093862815885,393.80450909090905L167.50902527075812,393.8405818181818L170.3971119133574,394.6026181818182L173.28519855595667,394.91374545454545L176.17328519855596,393.67825454545454L179.06137184115522,350.41803636363636L181.9494584837545,376.53469090909095L184.8375451263538,388.69120000000004L187.72563176895306,377.42749090909086L190.61371841155236,368.9143272727273L193.50180505415162,390.23781818181817L196.3898916967509,394.1742545454546L199.27797833935017,388.70923636363636L202.16606498194943,373.85629090909094L205.05415162454872,391.9061818181818L207.94223826714799,380.8093090909091L210.8303249097473,376.5978181818182L213.7184115523466,393.46632727272726L216.60649819494586,395.00843636363635L219.49458483754515,395.1572363636364L222.3826714801444,396.01396363636366L225.2707581227437,394.9453090909091L228.15884476534296,393.70981818181815L231.04693140794222,387.19418181818185L233.93501805054152,394.1562181818182L236.82310469314078,394.42676363636366L239.71119133574007,396.56407272727273L242.59927797833933,397.93032727272725L245.48736462093862,396.37018181818183L248.37545126353794,396.46938181818183L251.2635379061372,380.3719272727273L254.15162454873646,379.8173090909091L257.03971119133575,355.0714181818182L259.927797833935,357.3981090909091L262.8158844765343,388.6010181818182L265.7039711191336,384.1054545454545L268.59205776173286,392.3255272727273L271.4801444043321,392.3616L274.3682310469314,389.35403636363634L277.25631768953065,396.20334545454546L280.14440433212997,399.04858181818184L283.0324909747292,391.4282181818182L285.92057761732855,397.74545454545455L288.8086642599278,390.1792L291.69675090252707,382.77978181818185L294.5848375451264,373.5181090909091L297.47292418772565,379.86240000000004L300.3610108303249,379.83083636363637L303.2490974729242,384.39403636363636L306.13718411552344,394.0750545454546L309.02527075812276,379.7090909090909L311.913357400722,370.4564363636364L314.8014440433213,386.28334545454544L317.68953068592054,392.78996363636367L320.57761732851986,392.4653090909091L323.4657039711191,394.0074181818182L326.35379061371845,385.6610909090909L329.2418772563177,395.7253818181818L332.12996389891697,397.78152727272726L335.01805054151623,387.2077090909091L337.90613718411555,390.7157818181818L340.7942238267148,393.71883636363634L343.6823104693141,394.0299636363636L346.57039711191334,392.6186181818182L349.4584837545126,396.19432727272726L352.3465703971119,396.16727272727275L355.2346570397112,384.8178909090909L358.12274368231044,391.88814545454545L361.0108303249097,398.6788363636363L363.898916967509,399.53556363636363L366.78700361010834,395.6442181818182L369.6750902527076,394.4853818181818L372.56317689530687,396.8887272727273L375.45126353790613,397.01047272727277L378.3393501805054,381.9456L381.2274368231047,377.41847272727273L384.115523465704,383.6184727272727L387.00361010830323,396.94283636363633L389.8916967509025,397.2178909090909L392.7797833935018,396.14923636363636L395.6678700361011,394.3275636363636L398.55595667870034,371.5386181818182L401.44404332129966,360.9693090909091L404.33212996389886,372.79665454545454L407.2202166064982,365.78952727272724L410.10830324909745,351.4055272727273L412.99638989169677,363.89570909090907L415.88447653429597,389.24130909090906L418.7725631768953,390.3325090909091L421.6606498194946,363.4853818181818L424.54873646209387,382.392L427.4368231046932,383.7582545454545L430.3249097472924,382.3829818181818L433.2129963898917,395.71636363636367L436.101083032491,395.9418181818182L438.9891696750903,394.4132363636363L441.8772563176895,394.76494545454545L444.7653429602888,338.64930909090907L447.6534296028881,397.9709090909091L450.5415162454874,391.2613818181818L453.4296028880866,389.0834909090909L456.3176895306859,354.864L459.20577617328524,343.4695272727273L462.09386281588445,391.10807272727277L464.98194945848377,398.09265454545454L467.87003610108303,399.0981818181818L470.75812274368235,393.8541090909091L473.64620938628155,395.1121454545455L476.5342960288809,395.81105454545457L479.42238267148014,396.50094545454544L482.31046931407946,388.11403636363633L485.19855595667866,398.8592L488.086642599278,399.32814545454545L490.97472924187724,387.9607272727273L493.86281588447656,396.40625454545454L496.7509025270759,398.69236363636367L499.6389891696751,398.90880000000004L502.5270758122744,397.77250909090907L505.4151624548736,396.9293090909091L508.30324909747293,390.0439272727273L511.1913357400722,388.3394909090909L514.0794223826715,392.6952727272727L516.9675090252707,387.42865454545455L519.85559566787,384.94865454545453L522.7436823104692,393.2093090909091L525.6317689530686,399.504L528.5198555956679,399.5626181818182L531.4079422382672,398.83665454545456L534.2960288808665,399.57614545454544L537.1841155234657,399.5986909090909L540.072202166065,399.8196363636364L542.9602888086642,399.8016L545.8483754512636,368.14778181818184L548.7364620938628,398.4263272727273L551.6245487364621,318.8273454545455L554.5126353790613,330.9477818181818L557.4007220216606,309.8226909090909L560.2888086642599,332.3726545454545L563.1768953068593,340.11927272727274L566.0649819494585,341.72901818181816L568.9530685920578,356.69018181818177L571.8411552346571,357.3530181818182L574.7292418772563,386.48174545454543L577.6173285198556,391.62210909090913L580.5054151624548,392.6501818181818L583.3935018050541,372.19694545454547L586.2815884476535,393.57454545454544L589.1696750902528,384.0378181818182L592.057761732852,398.8050909090909L594.9458483754513,399.35069090909093L597.8339350180505,399.4002909090909L600.7220216606498,398.9809454545454L603.610108303249,389.14210909090906L606.4981949458484,391.2433454545455L609.3862815884476,394.95432727272726L612.2743682310469,394.85963636363635L615.1624548736462,399.33265454545455L618.0505415162455,399.33265454545455L620.9386281588448,399.33716363636364L623.826714801444,399.29207272727274L626.7148014440434,399.6122181818182L629.6028880866426,399.6843636363636L632.4909747292419,363.90923636363635L635.3790613718411,398.3857454545455L638.2671480144404,399.9594181818182L641.1552346570397,399.9774545454545L644.043321299639,388.71825454545456L646.9314079422383,329.97832727272726L649.8194945848376,332.36814545454547L652.7075812274369,389.5659636363636L655.5956678700361,399.44538181818183L658.4837545126354,399.63025454545453L661.3718411552346,371.0832L664.2599277978339,377.4229818181818L667.1480144404331,399.7745454545455L670.0361010830325,399.8016L672.9241877256318,398.92683636363637L675.8122743682311,329.63563636363637L678.7003610108303,327.55243636363633L681.5884476534296,312.23054545454545L684.4765342960288,350.23767272727275L687.3646209386281,345.16043636363634L690.2527075812275,396.5370181818182L693.1407942238267,396.8661818181818L696.028880866426,390.9502545454545L698.9169675090252,389.6967272727273L701.8050541516245,387.7984L704.6931407942238,381.4L707.5812274368232,380.7146181818182L710.4693140794224,374.18545454545455L713.3574007220217,374.8663272727273L716.2454873646209,373.5902545454545L719.1335740072202,358.1330909090909L722.0216606498194,361.3074909090909L724.9097472924187,362.9848727272727L727.797833935018,361.5284363636364L730.6859205776174,309.11025454545455L733.5740072202167,383.4381090909091L736.4620938628159,387.37905454545455L739.3501805054152,393.37614545454545L742.2382671480144,393.48887272727274L745.1263537906137,393.31301818181817L748.0144404332129,393.25440000000003L750.9025270758123,389.9943272727273L753.7906137184115,395.7930181818182L756.6787003610108,396.05905454545456L759.5667870036101,367.8186181818182L762.4548736462094,378.85236363636363L765.3429602888087,378.73963636363635L768.231046931408,372.9184L771.1191335740073,380.6514909090909L774.0072202166065,394.1381818181818L776.8953068592058,394.29149090909095L779.783393501805,377.15694545454545L782.6714801444043,377.24261818181816L785.5595667870036,328.7383272727273L788.447653429603,367.5616L791.3357400722022,363.5485090909091L794.2238267148015,358.832L797.1119133574007,392.3435636363636L800,399.9639272727273L800,350.42254545454546L797.1119133574007,181.7915636363636L794.2238267148015,226.67054545454545L791.3357400722022,160.71607272727272L788.447653429603,231.31040000000002L785.5595667870036,132.63345454545453L782.6714801444043,235.17018181818182L779.783393501805,227.9826909090909L776.8953068592058,303.11767272727275L774.0072202166065,251.20450909090906L771.1191335740073,238.76392727272727L768.231046931408,222.92800000000005L765.3429602888087,236.78443636363636L762.4548736462094,185.7911272727273L759.5667870036101,162.07330909090908L756.6787003610108,301.8145454545454L753.7906137184115,280.712L750.9025270758123,305.2775272727273L748.0144404332129,313.63287272727274L745.1263537906137,281.5867636363636L742.2382671480144,308.4474181818182L739.3501805054152,315.20654545454545L736.4620938628159,321.25323636363635L733.5740072202167,193.0462545454545L730.6859205776174,219.67243636363634L727.797833935018,238.0605090909091L724.9097472924187,197.1179636363636L722.0216606498194,171.02385454545455L719.1335740072202,151.9954909090909L716.2454873646209,152.7845818181818L713.3574007220217,152.04509090909096L710.4693140794224,175.58705454545458L707.5812274368232,273.7409454545455L704.6931407942238,137.58443636363634L701.8050541516245,117.46487272727268L698.9169675090252,82.67723636363644L696.028880866426,39.28625454545454L693.1407942238267,147.2744727272727L690.2527075812275,280.464L687.3646209386281,181.33614545454546L684.4765342960288,52.80000000000001L681.5884476534296,62.54414545454546L678.7003610108303,141.20523636363637L675.8122743682311,62.0706909090909L672.9241877256318,118.34414545454547L670.0361010830325,366.2224L667.1480144404331,320.1845818181818L664.2599277978339,134.27476363636367L661.3718411552346,99.22560000000004L658.4837545126354,237.68174545454545L655.5956678700361,120.55359999999996L652.7075812274369,165.4912L649.8194945848376,191.4094545454545L646.9314079422383,189.7861818181818L644.043321299639,207.86312727272724L641.1552346570397,299.10007272727273L638.2671480144404,271.03549090909087L635.3790613718411,207.81352727272724L632.4909747292419,11.704145454545426L629.6028880866426,317.1048727272727L626.7148014440434,369.0541090909091L623.826714801444,327.8365090909091L620.9386281588448,392.7493818181818L618.0505415162455,360.96479999999997L615.1624548736462,255.7361454545455L612.2743682310469,186.92741818181818L609.3862815884476,301.7018181818182L606.4981949458484,303.60465454545454L603.610108303249,301.0029090909091L600.7220216606498,282.2L597.8339350180505,313.8493090909091L594.9458483754513,392.3976727272727L592.057761732852,294.848L589.1696750902528,264.86705454545455L586.2815884476535,309.8181818181818L583.3935018050541,244.73847272727275L580.5054151624548,264.72727272727275L577.6173285198556,251.79069090909093L574.7292418772563,217.54865454545453L571.8411552346571,242.18632727272728L568.9530685920578,319.64349090909093L566.0649819494585,267.7122909090909L563.1768953068593,217.4269090909091L560.2888086642599,204.27389090909097L557.4007220216606,152.04509090909096L554.5126353790613,183.64479999999998L551.6245487364621,152L548.7364620938628,245.6132363636364L545.8483754512636,312.32072727272725L542.9602888086642,299.4112L540.072202166065,264.7002181818182L537.1841155234657,300.3941818181818L534.2960288808665,319.2151272727273L531.4079422382672,181.72392727272725L528.5198555956679,334.2845090909091L525.6317689530686,343.8618181818182L522.7436823104692,226.31432727272733L519.85559566787,184.01454545454544L516.9675090252707,223.73963636363635L514.0794223826715,291.24974545454546L511.1913357400722,232.6811636363636L508.30324909747293,327.8410181818182L505.4151624548736,330.4157090909091L502.5270758122744,337.58516363636363L499.6389891696751,332.36814545454547L496.7509025270759,231.1570909090909L493.86281588447656,247.18690909090907L490.97472924187724,174.54545454545456L488.086642599278,365.2304L485.19855595667866,353.3714909090909L482.31046931407946,253.13890909090907L479.42238267148014,289.5272727272727L476.5342960288809,286.0192L473.64620938628155,286.6369454545454L470.75812274368235,304.3531636363636L467.87003610108303,379.1499636363636L464.98194945848377,383.6229818181818L462.09386281588445,233.8039272727273L459.20577617328524,285.0046545454545L456.3176895306859,270.52145454545456L453.4296028880866,291.7818181818182L450.5415162454874,276.35170909090914L447.6534296028881,337.3552L444.7653429602888,309.8948363636364L441.8772563176895,297.83752727272724L438.9891696750903,299.4021818181818L436.101083032491,286.3799272727273L433.2129963898917,288.2782545454545L430.3249097472924,274.6112L427.4368231046932,320.5047272727273L424.54873646209387,325.8840727272728L421.6606498194946,298.0494545454546L418.7725631768953,301.4042181818182L415.88447653429597,293.0714181818182L412.99638989169677,285.0091636363636L410.10830324909745,287.27723636363635L407.2202166064982,297.23781818181817L404.33212996389886,296.24130909090906L401.44404332129966,174.5229090909091L398.55595667870034,233.66865454545453L395.6678700361011,237.2714181818182L392.7797833935018,268.7629090909091L389.8916967509025,289.5002181818182L387.00361010830323,319.99970909090905L384.115523465704,319.38647272727275L381.2274368231047,290.5463272727273L378.3393501805054,325.58196363636364L375.45126353790613,314.5346909090909L372.56317689530687,310.4269090909091L369.6750902527076,284.46356363636363L366.78700361010834,313.27665454545456L363.898916967509,354.09294545454543L361.0108303249097,276.0360727272727L358.12274368231044,282.8944L355.2346570397112,266.1250909090909L352.3465703971119,278.15083636363636L349.4584837545126,292.2597818181818L346.57039711191334,300.8541090909091L343.6823104693141,301.0074181818182L340.7942238267148,268.6862545454545L337.90613718411555,272.22589090909094L335.01805054151623,277.7991272727273L332.12996389891697,306.36421818181816L329.2418772563177,277.1408L326.35379061371845,323.3770181818182L323.4657039711191,381.72465454545454L320.57761732851986,362.28596363636365L317.68953068592054,363.08407272727277L314.8014440433213,350.4045090909091L311.913357400722,321.0909090909091L309.02527075812276,361.03243636363635L306.13718411552344,366.84916363636364L303.2490974729242,368.8512L300.3610108303249,364.26094545454544L297.47292418772565,333.01294545454545L294.5848375451264,313.5381818181818L291.69675090252707,278.8046545454546L288.8086642599278,310.224L285.92057761732855,386.5133090909091L283.0324909747292,381.99519999999995L280.14440433212997,378.58181818181816L277.25631768953065,331.72785454545453L274.3682310469314,319.54429090909093L271.4801444043321,350.43607272727274L268.59205776173286,345.62036363636366L265.7039711191336,359.37760000000003L262.8158844765343,362.41672727272726L259.927797833935,305.9989818181818L257.03971119133575,254.10385454545454L254.15162454873646,329.6221090909091L251.2635379061372,287.2727272727273L248.37545126353794,381.52174545454545L245.48736462093862,353.0648727272727L242.59927797833933,370.4789818181818L239.71119133574007,348.1860363636364L236.82310469314078,309.16436363636365L233.93501805054152,269.2498909090909L231.04693140794222,273.24945454545457L228.15884476534296,365.8526545454545L225.2707581227437,371.9850181818182L222.3826714801444,392.2669090909091L219.49458483754515,323.3725090909091L216.60649819494586,366.63723636363636L213.7184115523466,313.96203636363634L210.8303249097473,293.2698181818182L207.94223826714799,296.4757818181818L205.05415162454872,346.7837090909091L202.16606498194943,307.9469090909091L199.27797833935017,316.55476363636365L196.3898916967509,361.9072L193.50180505415162,138.72072727272723L190.61371841155236,276.6402909090909L187.72563176895306,173.35054545454545L184.8375451263538,341.34574545454547L181.9494584837545,345.92698181818184L179.06137184115522,215.1047272727273L176.17328519855596,345.89992727272727L173.28519855595667,343.5191272727273L170.3971119133574,350.4L167.50902527075812,320.92407272727274L164.62093862815885,372.9589818181818L161.73285198555956,334.30705454545455L158.84476534296027,339.4970181818182L155.956678700361,342.5677090909091L153.06859205776172,303.64974545454544L150.18050541516246,306.8827636363636L147.2924187725632,347.26618181818185L144.4043321299639,355.7117090909091L141.5162454873646,348.28523636363633L138.62815884476532,346.7611636363636L135.74007220216606,350.49920000000003L132.8519855595668,346.5447272727273L129.9638989169675,346.3778909090909L127.07581227436823,347.0722909090909L124.18772563176897,373.82923636363637L121.29963898916967,347.7170909090909L118.41155234657039,330.9117090909091L115.52346570397111,341.83272727272725L112.63537906137185,342.6849454545454L109.74729241877257,336.21890909090905L106.8592057761733,330.09556363636364L103.97111913357399,345.92698181818184L101.08303249097472,343.9610181818182L98.19494584837545,330.12712727272725L95.30685920577618,293.4005818181818L92.4187725631769,279.65236363636365L89.53068592057761,290.10443636363635L86.64259927797833,288.24669090909094L83.75451263537906,357.1861818181818L80.86642599277978,380.8002909090909L77.9783393501805,332.2869818181818L75.09025270758123,298.50487272727275L72.20216606498195,339.4384L69.31407942238266,282.7861818181818L66.4259927797834,338.2840727272727L63.537906137184116,347.70356363636364L60.64981949458483,298.41920000000005L57.761732851985556,329.1531636363636L54.87364620938629,339.20843636363634L51.985559566786996,341.3728L49.09747292418773,270.44029090909095L46.20938628158845,332.0840727272727L43.32129963898917,377.928L40.43321299638989,285.5773090909091L37.545126353790614,336.1152L34.65703971119133,383.632L31.768953068592058,332.9949090909091L28.880866425992778,303.9293090909091L25.992779783393498,257.751709090909L23.104693140794225,290.34341818181815L20.216606498194945,314.3723636363637L17.328519855595665,288.30080000000004L14.440433212996389,278.22298181818184L11.552346570397113,327.8500363636364L8.664259927797833,324.3013818181818L5.776173285198556,337.06661818181817L2.888086642599278,356.9832727272727L0,332.3771636363636Z" fill="#4c78a8"/></g></g><path class="foreground" aria-hidden="true" d="" display="none"/></g></g></g></svg>