<svg xmlns="http://www.w3.org/2000/svg" xmlns:xlink="http://www.w3.org/1999/xlink" version="1.1" class="marks" width="852" height="447" viewBox="0 0 852 447"><rect width="852" height="447" fill="white"/><g fill="none" stroke-miterlimit="10" transform="translate(47,10)"><g class="mark-group role-frame root" role="graphics-object" aria-roledescription="group mark container"><g transform="translate(0,0)"><path class="background" aria-hidden="true" d="M0.5,0.5h800v400h-800Z" stroke="#ddd"/><g><g class="mark-group role-axis" aria-hidden="true"><g transform="translate(0.5,400.5)"><path class="background" aria-hidden="true" d="M0,0h0v0h0Z" pointer-events="none"/><g><g class="mark-rule role-axis-grid" pointer-events="none"><line transform="translate(3,-400)" x2="0" y2="400" stroke="#ddd" stroke-width="1" opacity="1"/><line transform="translate(23,-400)" x2="0" y2="400" stroke="#ddd" stroke-width="1" opacity="1"/><line transform="translate(43,-400)" x2="0" y2="400" stroke="#ddd" stroke-width="1" opacity="1"/><line transform="translate(63,-400)" x2="0" y2="400" stroke="#ddd" stroke-width="1" opacity="1"/><line transform="translate(83,-400)" x2="0" y2="400" stroke="#ddd" stroke-width="1" opacity="1"/><line transform="translate(103,-400)" x2="0" y2="400" stroke="#ddd" stroke-width="1" opacity="1"/><line transform="translate(123,-400)" x2="0" y2="400" stroke="#ddd" stroke-width="1" opacity="1"/><line transform="translate(143,-400)" x2="0" y2="400" stroke="#ddd" stroke-width="1" opacity="1"/><line transform="translate(163,-400)" x2="0" y2="400" stroke="#ddd" stroke-width="1" opacity="1"/><line transform="translate(183,-400)" x2="0" y2="400" stroke="#ddd" stroke-width="1" opacity="1"/><line transform="translate(203,-400)" x2="0" y2="400" stroke="#ddd" stroke-width="1" opacity="1"/><line transform="translate(223,-400)" x2="0" y2="400" stroke="#ddd" stroke-width="1" opacity="1"/><line transform="translate(243,-400)" x2="0" y2="400" stroke="#ddd" stroke-width="1" opacity="1"/><line transform="translate(263,-400)" x2="0" y2="400" stroke="#ddd" stroke-width="1" opacity="1"/><line transform="translate(283,-400)" x2="0" y2="400" stroke="#ddd" stroke-width="1" opacity="1"/><line transform="translate(303,-400)" x2="0" y2="400" stroke="#ddd" stroke-width="1" opacity="1"/><line transform="translate(323,-400)" x2="0" y2="400" stroke="#ddd" stroke-width="1" opacity="1"/><line transform="translate(343,-400)" x2="0" y2="400" stroke="#ddd" stroke-width="1" opacity="1"/><line transform="translate(363,-400)" x2="0" y2="400" stroke="#ddd" stroke-width="1" opacity="1"/><line transform="translate(383,-400)" x2="0" y2="400" stroke="#ddd" stroke-width="1" opacity="1"/><line transform="translate(403,-400)" x2="0" y2="400" stroke="#ddd" stroke-width="1" opacity="1"/><line transform="translate(422,-400)" x2="0" y2="400" stroke="#ddd" stroke-width="1" opacity="1"/><line transform="translate(443,-400)" x2="0" y2="400" stroke="#ddd" stroke-width="1" opacity="1"/><line transform="translate(463,-400)" x2="0" y2="400" stroke="#ddd" stroke-width="1" opacity="1"/><line transform="translate(483,-400)" x2="0" y2="400" stroke="#ddd" stroke-width="1" opacity="1"/><line transform="translate(503,-400)" x2="0" y2="400" stroke="#ddd" stroke-width="1" opacity="1"/><line transform="translate(523,-400)" x2="0" y2="400" stroke="#ddd" stroke-width="1" opacity="1"/><line transform="translate(543,-400)" x2="0" y2="400" stroke="#ddd" stroke-width="1" opacity="1"/><line transform="translate(563,-400)" x2="0" y2="400" stroke="#ddd" stroke-width="1" opacity="1"/><line transform="translate(583,-400)" x2="0" y2="400" stroke="#ddd" stroke-width="1" opacity="1"/><line transform="translate(603,-400)" x2="0" y2="400" stroke="#ddd" stroke-width="1" opacity="1"/><line transform="translate(623,-400)" x2="0" y2="400" stroke="#ddd" stroke-width="1" opacity="1"/><line transform="translate(643,-400)" x2="0" y2="400" stroke="#ddd" stroke-width="1" opacity="1"/><line transform="translate(663,-400)" x2="0" y2="400" stroke="#ddd" stroke-width="1" opacity="1"/><line transform="translate(683,-400)" x2="0" y2="400" stroke="#ddd" stroke-width="1" opacity="1"/><line transform="translate(703,-400)" x2="0" y2="400" stroke="#ddd" stroke-width="1" opacity="1"/><line transform="translate(723,-400)" x2="0" y2="400" stroke="#ddd" stroke-width="1" opacity="1"/><line transform="translate(743,-400)" x2="0" y2="400" stroke="#ddd" stroke-width="1" opacity="1"/><line transform="translate(763,-400)" x2="0" y2="400" stroke="#ddd" stroke-width="1" opacity="1"/><line transform="translate(783,-400)" x2="0" y2="400" stroke="#ddd" stroke-width="1" opacity="1"/></g></g><path class="foreground" aria-hidden="true" d="" pointer-events="none" display="none"/></g></g><g class="mark-group role-axis" aria-hidden="true"><g transform="translate(0.5,0.5)"><path class="background" aria-hidden="true" d="M0,0h0v0h0Z" pointer-events="none"/><g><g class="mark-rule role-axis-grid" pointer-events="none"><line transform="translate(0,400)" x2="800" y2="0" stroke="#ddd" stroke-width="1" opacity="1"/><line transform="translate(0,367)" x2="800" y2="0" stroke="#ddd" stroke-width="1" opacity="1"/><line transform="translate(0,333)" x2="800" y2="0" stroke="#ddd" stroke-width="1" opacity="1"/><line transform="translate(0,300)" x2="800" y2="0" stroke="#ddd" stroke-width="1" opacity="1"/><line transform="translate(0,267)" x2="800" y2="0" stroke="#ddd" stroke-width="1" opacity="1"/><line transform="translate(0,233)" x2="800" y2="0" stroke="#ddd" stroke-width="1" opacity="1"/><line transform="translate(0,200)" x2="800" y2="0" stroke="#ddd" stroke-width="1" opacity="1"/><line transform="translate(0,167)" x2="800" y2="0" stroke="#ddd" stroke-width="1" opacity="1"/><line transform="translate(0,133)" x2="800" y2="0" stroke="#ddd" stroke-width="1" opacity="1"/><line transform="translate(0,100)" x2="800" y2="0" stroke="#ddd" stroke-width="1" opacity="1"/><line transform="translate(0,67)" x2="800" y2="0" stroke="#ddd" stroke-width="1" opacity="1"/><line transform="translate(0,33)" x2="800" y2="0" stroke="#ddd" stroke-width="1" opacity="1"/><line transform="translate(0,0)" x2="800" y2="0" stroke="#ddd" stroke-width="1" opacity="1"/></g></g><path class="foreground" aria-hidden="true" d="" pointer-events="none" display="none"/></g></g><g class="mark-group role-axis" role="graphics-symbol" aria-roledescription="axis" aria-label="X-axis titled 'date' for a time scale with values from Saturday, 01 January 2022, 2:00:00 AM to Saturday, 08 October 2022, 3:00:00 AM"><g transform="translate(0.5,400.5)"><path class="background" aria-hidden="true" d="M0,0h0v0h0Z" pointer-events="none"/><g><g class="mark-rule role-axis-tick" pointer-events="none"><line transform="translate(3,0)" x2="0" y2="5" stroke="#888" stroke-width="1" opacity="1"/><line transform="translate(23,0)" x2="0" y2="5" stroke="#888" stroke-width="1" opacity="1"/><line transform="translate(43,0)" x2="0" y2="5" stroke="#888" stroke-width="1" opacity="1"/><line transform="translate(63,0)" x2="0" y2="5" stroke="#888" stroke-width="1" opacity="1"/><line transform="translate(83,0)" x2="0" y2="5" stroke="#888" stroke-width="1" opacity="1"/><line transform="translate(103,0)" x2="0" y2="5" stroke="#888" stroke-width="1" opacity="1"/><line transform="translate(123,0)" x2="0" y2="5" stroke="#888" stroke-width="1" opacity="1"/><line transform="translate(143,0)" x2="0" y2="5" stroke="#888" stroke-width="1" opacity="1"/><line transform="translate(163,0)" x2="0" y2="5" stroke="#888" stroke-width="1" opacity="1"/><line transform="translate(183,0)" x2="0" y2="5" stroke="#888" stroke-width="1" opacity="1"/><line transform="translate(203,0)" x2="0" y2="5" stroke="#888" stroke-width="1" opacity="1"/><line transform="translate(223,0)" x2="0" y2="5" stroke="#888" stroke-width="1" opacity="1"/><line transform="translate(243,0)" x2="0" y2="5" stroke="#888" stroke-width="1" opacity="1"/><line transform="translate(263,0)" x2="0" y2="5" stroke="#888" stroke-width="1" opacity="1"/><line transform="translate(283,0)" x2="0" y2="5" stroke="#888" stroke-width="1" opacity="1"/><line transform="translate(303,0)" x2="0" y2="5" stroke="#888" stroke-width="1" opacity="1"/><line transform="translate(323,0)" x2="0" y2="5" stroke="#888" stroke-width="1" opacity="1"/><line transform="translate(343,0)" x2="0" y2="5" stroke="#888" stroke-width="1" opacity="1"/><line transform="translate(363,0)" x2="0" y2="5" stroke="#888" stroke-width="1" opacity="1"/><line transform="translate(383,0)" x2="0" y2="5" stroke="#888" stroke-width="1" opacity="1"/><line transform="translate(403,0)" x2="0" y2="5" stroke="#888" stroke-width="1" opacity="1"/><line transform="translate(422,0)" x2="0" y2="5" stroke="#888" stroke-width="1" opacity="1"/><line transform="translate(443,0)" x2="0" y2="5" stroke="#888" stroke-width="1" opacity="1"/><line transform="translate(463,0)" x2="0" y2="5" stroke="#888" stroke-width="1" opacity="1"/><line transform="translate(483,0)" x2="0" y2="5" stroke="#888" stroke-width="1" opacity="1"/><line transform="translate(503,0)" x2="0" y2="5" stroke="#888" stroke-width="1" opacity="1"/><line transform="translate(523,0)" x2="0" y2="5" stroke="#888" stroke-width="1" opacity="1"/><line transform="translate(543,0)" x2="0" y2="5" stroke="#888" stroke-width="1" opacity="1"/><line transform="translate(563,0)" x2="0" y2="5" stroke="#888" stroke-width="1" opacity="1"/><line transform="translate(583,0)" x2="0" y2="5" stroke="#888" stroke-width="1" opacity="1"/><line transform="translate(603,0)" x2="0" y2="5" stroke="#888" stroke-width="1" opacity="1"/><line transform="translate(623,0)" x2="0" y2="5" stroke="#888" stroke-width="1" opacity="1"/><line transform="translate(643,0)" x2="0" y2="5" stroke="#888" stroke-width="1" opacity="1"/><line transform="translate(663,0)" x2="0" y2="5" stroke="#888" stroke-width="1" opacity="1"/><line transform="translate(683,0)" x2="0" y2="5" stroke="#888" stroke-width="1" opacity="1"/><line transform="translate(703,0)" x2="0" y2="5" stroke="#888" stroke-width="1" opacity="1"/><line transform="translate(723,0)" x2="0" y2="5" stroke="#888" stroke-width="1" opacity="1"/><line transform="translate(743,0)" x2="0" y2="5" stroke="#888" stroke-width="1" opacity="1"/><line transform="translate(763,0)" x2="0" y2="5" stroke="#888" stroke-width="1" opacity="1"/><line transform="translate(783,0)" x2="0" y2="5" stroke="#888" stroke-width="1" opacity="1"/></g><g class="mark-text role-axis-label" pointer-events="none"><text text-anchor="middle" transform="translate(2.619047619047619,15)" font-family="sans-serif" font-size="10px" fill="#000" opacity="1">Jan 02</text><text text-anchor="middle" transform="translate(22.61904761904762,15)" font-family="sans-serif" font-size="10px" fill="#000" opacity="0">Jan 09</text><text text-anchor="middle" transform="translate(42.61904761904762,15)" font-family="sans-serif" font-size="10px" fill="#000" opacity="1">Jan 16</text><text text-anchor="middle" transform="translate(62.61904761904762,15)" font-family="sans-serif" font-size="10px" fill="#000" opacity="0">Jan 23</text><text text-anchor="middle" transform="translate(82.61904761904762,15)" font-family="sans-serif" font-size="10px" fill="#000" opacity="1">Jan 30</text><text text-anchor="middle" transform="translate(102.6190476190476,15)" font-family="sans-serif" font-size="10px" fill="#000" opacity="0">Feb 06</text><text text-anchor="middle" transform="translate(122.61904761904762,15)" font-family="sans-serif" font-size="10px" fill="#000" opacity="1">Feb 13</text><text text-anchor="middle" transform="translate(142.61904761904762,15)" font-family="sans-serif" font-size="10px" fill="#000" opacity="0">Feb 20</text><text text-anchor="middle" transform="translate(162.61904761904762,15)" font-family="sans-serif" font-size="10px" fill="#000" opacity="1">Feb 27</text><text text-anchor="middle" transform="translate(182.61904761904762,15)" font-family="sans-serif" font-size="10px" fill="#000" opacity="0">Mar 06</text><text text-anchor="middle" transform="translate(202.61904761904762,15)" font-family="sans-serif" font-size="10px" fill="#000" opacity="1">Mar 13</text><text text-anchor="middle" transform="translate(222.61904761904762,15)" font-family="sans-serif" font-size="10px" fill="#000" opacity="0">Mar 20</text><text text-anchor="middle" transform="translate(242.6190476190476,15)" font-family="sans-serif" font-size="10px" fill="#000" opacity="1">Mar 27</text><text text-anchor="middle" transform="translate(262.5,15)" font-family="sans-serif" font-size="10px" fill="#000" opacity="0">Apr 03</text><text text-anchor="middle" transform="translate(282.5,15)" font-family="sans-serif" font-size="10px" fill="#000" opacity="1">Apr 10</text><text text-anchor="middle" transform="translate(302.5,15)" font-family="sans-serif" font-size="10px" fill="#000" opacity="0">Apr 17</text><text text-anchor="middle" transform="translate(322.5,15)" font-family="sans-serif" font-size="10px" fill="#000" opacity="1">Apr 24</text><text text-anchor="middle" transform="translate(342.5,15)" font-family="sans-serif" font-size="10px" fill="#000" opacity="0">May</text><text text-anchor="middle" transform="translate(362.5,15)" font-family="sans-serif" font-size="10px" fill="#000" opacity="1">May 08</text><text text-anchor="middle" transform="translate(382.5,15)" font-family="sans-serif" font-size="10px" fill="#000" opacity="0">May 15</text><text text-anchor="middle" transform="translate(402.50000000000006,15)" font-family="sans-serif" font-size="10px" fill="#000" opacity="1">May 22</text><text text-anchor="middle" transform="translate(422.49999999999994,15)" font-family="sans-serif" font-size="10px" fill="#000" opacity="0">May 29</text><text text-anchor="middle" transform="translate(442.5,15)" font-family="sans-serif" font-size="10px" fill="#000" opacity="1">Jun 05</text><text text-anchor="middle" transform="translate(462.5,15)" font-family="sans-serif" font-size="10px" fill="#000" opacity="0">Jun 12</text><text text-anchor="middle" transform="translate(482.5,15)" font-family="sans-serif" font-size="10px" fill="#000" opacity="1">Jun 19</text><text text-anchor="middle" transform="translate(502.50000000000006,15)" font-family="sans-serif" font-size="10px" fill="#000" opacity="0">Jun 26</text><text text-anchor="middle" transform="translate(522.5,15)" font-family="sans-serif" font-size="10px" fill="#000" opacity="1">Jul 03</text><text text-anchor="middle" transform="translate(542.5,15)" font-family="sans-serif" font-size="10px" fill="#000" opacity="0">Jul 10</text><text text-anchor="middle" transform="translate(562.5,15)" font-family="sans-serif" font-size="10px" fill="#000" opacity="1">Jul 17</text><text text-anchor="middle" transform="translate(582.5,15)" font-family="sans-serif" font-size="10px" fill="#000" opacity="0">Jul 24</text><text text-anchor="middle" transform="translate(602.5,15)" font-family="sans-serif" font-size="10px" fill="#000" opacity="1">Jul 31</text><text text-anchor="middle" transform="translate(622.5,15)" font-family="sans-serif" font-size="10px" fill="#000" opacity="0">Aug 07</text><text text-anchor="middle" transform="translate(642.5,15)" font-family="sans-serif" font-size="10px" fill="#000" opacity="1">Aug 14</text><text text-anchor="middle" transform="translate(662.5,15)" font-family="sans-serif" font-size="10px" fill="#000" opacity="0">Aug 21</text><text text-anchor="middle" transform="translate(682.5,15)" font-family="sans-serif" font-size="10px" fill="#000" opacity="1">Aug 28</text><text text-anchor="middle" transform="translate(702.5,15)" font-family="sans-serif" font-size="10px" fill="#000" opacity="0">Sep 04</text><text text-anchor="middle" transform="translate(722.5,15)" font-family="sans-serif" font-size="10px" fill="#000" opacity="1">Sep 11</text><text text-anchor="middle" transform="translate(742.5,15)" font-family="sans-serif" font-size="10px" fill="#000" opacity="0">Sep 18</text><text text-anchor="middle" transform="translate(762.5,15)" font-family="sans-serif" font-size="10px" fill="#000" opacity="1">Sep 25</text><text text-anchor="middle" transform="translate(782.5,15)" font-family="sans-serif" font-size="10px" fill="#000" opacity="0">Oct 02</text></g><g class="mark-rule role-axis-domain" pointer-events="none"><line transform="translate(0,0)" x2="800" y2="0" stroke="#888" stroke-width="1" opacity="1"/></g><g class="mark-text role-axis-title" pointer-events="none"><text text-anchor="middle" transform="translate(400,30)" font-family="sans-serif" font-size="11px" font-weight="bold" fill="#000" opacity="1">date</text></g></g><path class="foreground" aria-hidden="true" d="" pointer-events="none" display="none"/></g></g><g class="mark-group role-axis" role="graphics-symbol" aria-roledescription="axis" aria-label="Y-axis titled 'min, max' for a linear scale with values from −10 to 110"><g transform="translate(0.5,0.5)"><path class="background" aria-hidden="true" d="M0,0h0v0h0Z" pointer-events="none"/><g><g class="mark-rule role-axis-tick" pointer-events="none"><line transform="translate(0,400)" x2="-5" y2="0" stroke="#888" stroke-width="1" opacity="1"/><line transform="translate(0,367)" x2="-5" y2="0" stroke="#888" stroke-width="1" opacity="1"/><line transform="translate(0,333)" x2="-5" y2="0" stroke="#888" stroke-width="1" opacity="1"/><line transform="translate(0,300)" x2="-5" y2="0" stroke="#888" stroke-width="1" opacity="1"/><line transform="translate(0,267)" x2="-5" y2="0" stroke="#888" stroke-width="1" opacity="1"/><line transform="translate(0,233)" x2="-5" y2="0" stroke="#888" stroke-width="1" opacity="1"/><line transform="translate(0,200)" x2="-5" y2="0" stroke="#888" stroke-width="1" opacity="1"/><line transform="translate(0,167)" x2="-5" y2="0" stroke="#888" stroke-width="1" opacity="1"/><line transform="translate(0,133)" x2="-5" y2="0" stroke="#888" stroke-width="1" opacity="1"/><line transform="translate(0,100)" x2="-5" y2="0" stroke="#888" stroke-width="1" opacity="1"/><line transform="translate(0,67)" x2="-5" y2="0" stroke="#888" stroke-width="1" opacity="1"/><line transform="translate(0,33)" x2="-5" y2="0" stroke="#888" stroke-width="1" opacity="1"/><line transform="translate(0,0)" x2="-5" y2="0" stroke="#888" stroke-width="1" opacity="1"/></g><g class="mark-text role-axis-label" pointer-events="none"><text text-anchor="end" transform="translate(-7,403)" font-family="sans-serif" font-size="10px" fill="#000" opacity="1">−10</text><text text-anchor="end" transform="translate(-7,369.66666666666663)" font-family="sans-serif" font-size="10px" fill="#000" opacity="1">0</text><text text-anchor="end" transform="translate(-7,336.33333333333337)" font-family="sans-serif" font-size="10px" fill="#000" opacity="1">10</text><text text-anchor="end" transform="translate(-7,303)" font-family="sans-serif" font-size="10px" fill="#000" opacity="1">20</text><text text-anchor="end" transform="translate(-7,269.6666666666667)" font-family="sans-serif" font-size="10px" fill="#000" opacity="1">30</text><text text-anchor="end" transform="translate(-7,236.33333333333331)" font-family="sans-serif" font-size="10px" fill="#000" opacity="1">40</text><text text-anchor="end" transform="translate(-7,203)" font-family="sans-serif" font-size="10px" fill="#000" opacity="1">50</text><text text-anchor="end" transform="translate(-7,169.66666666666666)" font-family="sans-serif" font-size="10px" fill="#000" opacity="1">60</text><text text-anchor="end" transform="translate(-7,136.33333333333334)" font-family="sans-serif" font-size="10px" fill="#000" opacity="1">70</text><text text-anchor="end" transform="translate(-7,103)" font-family="sans-serif" font-size="10px" fill="#000" opacity="1">80</text><text text-anchor="end" transform="translate(-7,69.66666666666666)" font-family="sans-serif" font-size="10px" fill="#000" opacity="1">90</text><text text-anchor="end" transform="translate(-7,36.33333333333335)" font-family="sans-serif" font-size="10px" fill="#000" opacity="1">100</text><text text-anchor="end" transform="translate(-7,3)" font-family="sans-serif" font-size="10px" fill="#000" opacity="1">110</text></g><g class="mark-rule role-axis-domain" pointer-events="none"><line transform="translate(0,400)" x2="0" y2="-400" stroke="#888" stroke-width="1" opacity="1"/></g><g class="mark-text role-axis-title" pointer-events="none"><text text-anchor="middle" transform="translate(-31,200) rotate(-90) translate(0,-2)" font-family="sans-serif" font-size="11px" font-weight="bold" fill="#000" opacity="1">min, max</text></g></g><path class="foreground" aria-hidden="true" d="" pointer-events="none" display="none"/></g></g><g class="mark-area role-mark marks" role="graphics-object" aria-roledescription="area mark container"><path aria-label="date: Jan 01, 2022; min: 4.67108; max: 18.59628" role="graphics-symbol" aria-roledescription="area mark" d="M0,351.0964L2.857142857142857,358.0321333333333L5.714285714285714,358.4744L8.571428571428571,351.5138666666667L11.428571428571429,335.50960000000003L14.285714285714285,334.39360000000005L17.142857142857142,325.5524L20,331.52093333333335L22.857142857142858,332.46746666666667L25.71428571428571,311.35853333333336L28.57142857142857,356.49039999999997L31.428571428571427,361.2561333333333L34.285714285714285,362.33906666666667L37.142857142857146,361.95466666666664L40,359.7474666666667L42.857142857142854,361.21066666666667L45.714285714285715,362.4961333333333L48.57142857142857,360.35506666666663L51.42857142857142,360.9130666666667L54.285714285714285,362.99213333333336L57.14285714285714,360.4501333333333L60,330.3222666666667L62.857142857142854,361.8472L65.71428571428571,362.3225333333333L68.57142857142857,361.3264L71.42857142857143,355.9241333333334L74.28571428571429,342.8586666666667L77.14285714285715,356.0357333333333L80,361.28093333333334L82.85714285714286,365.00919999999996L85.71428571428571,346.6902666666667L88.57142857142857,325.33746666666667L91.42857142857143,335.5964L94.28571428571428,327.7844L97.14285714285714,360.0905333333333L100,360.3592L102.85714285714285,361.76453333333336L105.71428571428572,360.95026666666666L108.57142857142857,356.3292L111.42857142857143,361.8058666666667L114.28571428571428,361.9588L117.14285714285715,356.33746666666667L120,362.0208L122.85714285714286,362.4341333333333L125.71428571428571,361.3181333333333L128.57142857142858,360.88413333333335L131.42857142857142,360.8097333333333L134.28571428571428,361.1941333333333L137.14285714285714,361.3966666666667L140,360.72293333333334L142.85714285714286,358.45373333333333L145.7142857142857,359.6689333333333L148.57142857142858,354.25013333333334L151.42857142857142,361.95053333333334L154.2857142857143,362.182L157.14285714285714,360.8469333333333L160,360.83866666666665L162.85714285714286,360.9874666666667L165.71428571428572,361.02053333333333L168.57142857142858,361.71906666666666L171.42857142857142,362.00426666666664L174.28571428571428,360.87173333333334L177.14285714285714,321.2165333333333L180,345.1568L182.85714285714286,356.3002666666667L185.71428571428572,345.9752L188.57142857142856,338.1714666666666L191.42857142857144,357.718L194.28571428571428,361.3264L197.14285714285717,356.3168L200,342.7016L202.85714285714283,359.24733333333336L205.7142857142857,349.0752L208.57142857142858,345.2146666666667L211.42857142857144,360.67746666666665L214.28571428571428,362.0910666666667L217.14285714285714,362.22746666666666L220.00000000000003,363.0128L222.85714285714286,362.03319999999997L225.71428571428572,360.90066666666667L228.57142857142856,354.928L231.42857142857144,361.30986666666666L234.2857142857143,361.55786666666665L237.14285714285714,363.51706666666666L240,364.7694666666667L242.85714285714283,363.33933333333334L245.71428571428572,363.4302666666667L248.57142857142858,348.67426666666665L251.42857142857142,348.16586666666666L254.28571428571428,325.48213333333337L257.14285714285717,327.61493333333334L260,356.2176L262.85714285714283,352.0966666666667L265.7142857142857,359.63173333333333L268.57142857142856,359.6648L271.42857142857144,356.9078666666667L274.2857142857143,363.18640000000005L277.1428571428571,365.79453333333333L280,358.80920000000003L282.8571428571429,364.59999999999997L285.7142857142857,357.66426666666666L288.57142857142856,350.8814666666667L291.4285714285714,342.39160000000004L294.28571428571433,348.2072L297.14285714285717,348.1782666666667L300,352.3612L302.85714285714283,361.23546666666664L305.71428571428567,348.06666666666666L308.5714285714286,339.58506666666665L311.42857142857144,354.0930666666667L314.2857142857143,360.05746666666664L317.1428571428571,359.7598666666667L320,361.1734666666666L322.8571428571429,353.5226666666666L325.7142857142857,362.74826666666667L328.57142857142856,364.63306666666665L331.42857142857144,354.9404L334.2857142857143,358.1561333333333L337.14285714285717,360.9089333333333L340,361.1941333333333L342.85714285714283,359.9004L345.7142857142857,363.17813333333334L348.57142857142856,363.15333333333336L351.42857142857144,352.7497333333333L354.2857142857143,359.2308L357.14285714285717,365.4556L360,366.2409333333333L362.85714285714283,362.6738666666667L365.7142857142857,361.6116L368.57142857142856,363.81466666666665L371.42857142857144,363.92626666666666L374.2857142857143,350.1168L377.1428571428571,345.9669333333333L380,351.65026666666665L382.8571428571429,363.86426666666665L385.7142857142857,364.1164L388.57142857142856,363.1368L391.4285714285714,361.4669333333334L394.28571428571433,340.57706666666667L397.14285714285717,330.8885333333333L400,341.73026666666664L402.85714285714283,335.3070666666666L405.71428571428567,322.12173333333334L408.57142857142856,333.57106666666664L411.4285714285714,356.8045333333333L414.28571428571433,357.8048L417.14285714285717,333.1949333333333L420,350.52599999999995L422.8571428571429,351.7784L425.7142857142857,350.5177333333333L428.57142857142856,362.73999999999995L431.4285714285714,362.94666666666666L434.2857142857143,361.54546666666664L437.1428571428571,361.86786666666666L440.00000000000006,310.42853333333335L442.8571428571429,364.8066666666667L445.7142857142857,358.6562666666667L448.57142857142856,356.6598666666667L451.42857142857144,325.29200000000003L454.2857142857143,314.84706666666665L457.1428571428571,358.5157333333333L459.99999999999994,364.9182666666666L462.8571428571429,365.84L465.7142857142857,361.03293333333335L468.5714285714286,362.1861333333333L471.42857142857144,362.8268L474.2857142857143,363.4592L477.1428571428571,355.7712L480,365.62093333333337L482.85714285714283,366.0508L485.71428571428567,355.6306666666666L488.5714285714286,363.37239999999997L491.42857142857144,365.468L494.28571428571433,365.6664L497.14285714285717,364.6248L500,363.8518666666667L502.85714285714283,357.5402666666667L505.71428571428567,355.9778666666666L508.57142857142856,359.97066666666666L511.4285714285714,355.1429333333333L514.2857142857143,352.8696L517.1428571428572,360.44186666666667L520,366.212L522.8571428571429,366.26573333333334L525.7142857142857,365.6002666666667L528.5714285714286,366.2781333333333L531.4285714285714,366.29879999999997L534.2857142857142,366.5013333333333L537.1428571428571,366.4848L540,337.4688L542.8571428571429,365.2241333333333L545.7142857142858,292.2584L548.5714285714286,303.36879999999996L551.4285714285714,284.0041333333333L554.2857142857142,304.67493333333334L557.1428571428571,311.776L560,313.2516L562.8571428571429,326.966L565.7142857142858,327.5736L568.5714285714286,354.2749333333333L571.4285714285714,358.98693333333335L574.2857142857143,359.9293333333333L577.1428571428571,341.18053333333336L580,360.77666666666664L582.8571428571428,352.0346666666667L585.7142857142857,365.5713333333333L588.5714285714287,366.07146666666665L591.4285714285714,366.11693333333335L594.2857142857143,365.7325333333334L597.1428571428571,356.7136L600,358.6397333333333L602.8571428571429,362.0414666666667L605.7142857142857,361.95466666666664L608.5714285714286,366.05493333333334L611.4285714285713,366.05493333333334L614.2857142857143,366.0590666666667L617.1428571428572,366.01773333333335L620,366.3112L622.8571428571429,366.37733333333335L625.7142857142857,333.58346666666665L628.5714285714286,365.18693333333334L631.4285714285714,366.62946666666664L634.2857142857142,366.64599999999996L637.1428571428571,356.32506666666666L640,302.48013333333336L642.8571428571429,304.67080000000004L645.7142857142858,357.1021333333333L648.5714285714286,366.1582666666667L651.4285714285714,366.3277333333333L654.2857142857142,340.1596L657.1428571428571,345.9710666666667L660,366.46000000000004L662.8571428571429,366.4848L665.7142857142858,365.6829333333333L668.5714285714286,302.166L671.4285714285714,300.2564L674.2857142857143,286.2113333333333L677.1428571428571,321.0512L680,316.39706666666666L682.8571428571428,363.4922666666667L685.7142857142857,363.794L688.5714285714287,358.37106666666665L691.4285714285714,357.222L694.2857142857143,355.4818666666667L697.1428571428571,349.6166666666666L700,348.9884L702.8571428571429,343.00333333333333L705.7142857142857,343.6274666666667L708.5714285714286,342.45773333333335L711.4285714285713,328.2886666666667L714.2857142857143,331.19853333333333L717.1428571428572,332.7361333333333L720,331.4010666666666L722.8571428571429,283.3510666666666L725.7142857142857,351.48493333333334L728.5714285714286,355.09746666666666L731.4285714285714,360.5948L734.2857142857142,360.6981333333334L737.1428571428571,360.53693333333337L740,360.4832L742.8571428571429,357.4948L745.7142857142858,362.8102666666667L748.5714285714286,363.0541333333333L751.4285714285714,337.16706666666664L754.2857142857142,347.28133333333335L757.1428571428571,347.178L760,341.84186666666665L762.8571428571429,348.9305333333333L765.7142857142858,361.29333333333335L768.5714285714286,361.4338666666667L771.4285714285714,345.72720000000004L774.2857142857143,345.80573333333336L777.1428571428571,301.3434666666667L780,336.93146666666667L782.8571428571428,333.2528L785.7142857142857,328.9293333333333L788.5714285714287,359.6482666666667L791.4285714285714,367.05933333333337L794.2857142857143,367.0758666666666L797.1428571428571,367.06346666666667L800,366.67906666666664L800,361.26026666666667L797.1428571428571,360.49146666666667L794.2857142857143,361.24786666666665L791.4285714285714,321.2206666666667L788.5714285714287,166.6422666666667L785.7142857142857,207.78133333333332L782.8571428571428,147.32306666666668L780,212.03453333333334L777.1428571428571,121.58066666666664L774.2857142857143,215.57266666666663L771.4285714285714,208.98413333333332L768.5714285714286,277.85786666666667L765.7142857142858,230.27079999999995L762.8571428571429,218.86693333333335L760,204.3506666666667L757.1428571428571,217.05240000000003L754.2857142857142,170.30853333333332L751.4285714285714,148.5672L748.5714285714286,276.6633333333333L745.7142857142858,257.3193333333333L742.8571428571429,279.83773333333335L740,287.4968L737.1428571428571,258.1212L734.2857142857142,282.7434666666667L731.4285714285714,288.93933333333337L728.5714285714286,294.48213333333337L725.7142857142857,176.95906666666664L722.8571428571429,201.36639999999994L720,218.22213333333335L717.1428571428572,180.69146666666663L714.2857142857143,156.77186666666665L711.4285714285713,139.32920000000001L708.5714285714286,140.05253333333334L705.7142857142857,139.37466666666668L702.8571428571429,160.95480000000006L700,250.92920000000004L697.1428571428571,126.11906666666664L694.2857142857143,107.67613333333327L691.4285714285714,75.78746666666666L688.5714285714287,36.012400000000014L685.7142857142857,135.00159999999997L682.8571428571428,257.092L680,166.2248L677.1428571428571,48.39999999999998L674.2857142857143,57.33213333333333L671.4285714285714,129.43813333333333L668.5714285714286,56.898133333333334L665.7142857142858,108.48213333333331L662.8571428571429,335.70386666666667L660,293.50253333333336L657.1428571428571,123.08519999999999L654.2857142857142,90.95680000000002L651.4285714285714,217.87493333333333L648.5714285714286,110.50746666666663L645.7142857142858,151.7002666666667L642.8571428571429,175.45866666666666L640,173.97066666666672L637.1428571428571,190.54119999999998L634.2857142857142,274.1750666666667L631.4285714285714,248.4492L628.5714285714286,190.49573333333333L625.7142857142857,10.728799999999978L622.8571428571429,290.67946666666666L620,338.2996L617.1428571428572,300.5168L614.2857142857143,360.02026666666666L611.4285714285713,330.8844L608.5714285714286,234.42480000000003L605.7142857142857,171.35013333333328L602.8571428571429,276.56L600,278.30426666666665L597.1428571428571,275.9193333333333L594.2857142857143,258.68333333333334L591.4285714285714,287.6952L588.5714285714287,359.6978666666667L585.7142857142857,270.27733333333333L582.8571428571428,242.79479999999998L580,284L577.1428571428571,224.3436L574.2857142857143,242.66666666666669L571.4285714285714,230.80813333333333L568.5714285714286,199.4196L565.7142857142858,222.00413333333336L562.8571428571429,293.0065333333333L560,245.40293333333335L557.1428571428571,199.30800000000005L554.2857142857142,187.25106666666673L551.4285714285714,139.37466666666668L548.5714285714286,168.34106666666665L545.7142857142858,139.33333333333331L542.8571428571429,225.14546666666666L540,286.294L537.1428571428571,274.46026666666666L534.2857142857142,242.64186666666666L531.4285714285714,275.36133333333333L528.5714285714286,292.6138666666667L525.7142857142857,166.58026666666666L522.8571428571429,306.42746666666665L520,315.20666666666665L517.1428571428572,207.4548L514.2857142857143,168.67999999999998L511.4285714285714,205.09466666666665L508.57142857142856,266.9789333333333L505.71428571428567,213.29106666666667L502.85714285714283,300.52093333333335L500,302.8810666666667L497.14285714285717,309.45306666666664L494.28571428571433,304.67080000000004L491.42857142857144,211.89399999999998L488.5714285714286,226.58800000000002L485.71428571428567,160L482.85714285714283,334.79453333333333L480,323.92386666666664L477.1428571428571,232.044L474.2857142857143,265.4L471.42857142857144,262.1842666666667L468.5714285714286,262.7505333333333L465.7142857142857,278.9904L462.8571428571429,347.5541333333333L459.99999999999994,351.6544L457.1428571428571,214.32026666666667L454.2857142857143,261.2542666666667L451.42857142857144,247.97800000000004L448.57142857142856,267.46666666666664L445.7142857142857,253.32240000000002L442.8571428571429,309.2422666666667L440.00000000000006,284.07026666666667L437.1428571428571,273.01773333333335L434.2857142857143,274.452L431.4285714285714,262.5149333333333L428.57142857142856,264.25506666666666L425.7142857142857,251.7269333333333L422.8571428571429,293.796L420,298.72706666666664L417.14285714285717,273.212L414.28571428571433,276.28720000000004L411.4285714285714,268.6488L408.57142857142856,261.2584L405.71428571428567,263.33746666666667L402.85714285714283,272.468L400,271.5545333333333L397.14285714285717,159.9793333333333L394.28571428571433,214.19626666666667L391.4285714285714,217.4988L388.57142857142856,246.36599999999999L385.7142857142857,265.3752L382.8571428571429,293.33306666666664L380,292.77093333333335L377.1428571428571,266.33413333333334L374.2857142857143,298.4501333333333L371.42857142857144,288.32346666666666L368.57142857142856,284.558L365.7142857142857,260.75826666666666L362.85714285714283,287.1702666666667L360,324.58520000000004L357.14285714285717,253.03306666666668L354.2857142857143,259.3198666666667L351.42857142857144,243.94799999999998L348.57142857142856,254.97160000000002L345.7142857142857,267.90479999999997L342.85714285714283,275.78293333333335L340,275.9234666666667L337.14285714285717,246.29573333333332L334.2857142857143,249.54039999999998L331.42857142857144,254.64919999999998L328.57142857142856,280.83386666666667L325.7142857142857,254.04573333333335L322.8571428571429,296.42893333333336L320,349.91426666666666L317.1428571428571,332.09546666666665L314.2857142857143,332.82706666666667L311.42857142857144,321.20413333333335L308.5714285714286,294.3333333333333L305.71428571428567,330.94640000000004L302.85714285714283,336.2784L300,338.1136L297.14285714285717,333.9058666666666L294.28571428571433,305.26186666666666L291.4285714285714,287.40999999999997L288.57142857142856,255.57093333333336L285.7142857142857,284.372L282.8571428571429,354.3038666666667L280,350.16226666666665L277.1428571428571,347.03333333333336L274.2857142857143,304.08386666666667L271.42857142857144,292.9156L268.57142857142856,321.2330666666667L265.7142857142857,316.8186666666667L262.85714285714283,329.42946666666666L260,332.2153333333334L257.14285714285717,280.4990666666667L254.28571428571428,232.92853333333335L251.42857142857142,302.15360000000004L248.57142857142858,263.3333333333333L245.71428571428572,349.7282666666666L242.85714285714283,323.6428L240,339.6057333333333L237.14285714285714,319.1705333333333L234.2857142857143,283.40066666666667L231.42857142857144,246.81239999999997L228.57142857142856,250.4786666666667L225.71428571428572,335.36493333333334L222.85714285714286,340.98626666666667L220.00000000000003,359.578L217.14285714285714,296.4248L214.28571428571428,336.0841333333333L211.42857142857144,287.7985333333333L208.57142857142858,268.8306666666667L205.7142857142857,271.76946666666663L202.85714285714283,317.88506666666666L200,282.2846666666667L197.14285714285717,290.1752L194.28571428571428,331.74826666666667L191.42857142857144,127.1606666666666L188.57142857142856,253.58693333333332L185.71428571428572,158.90466666666669L182.85714285714286,312.90026666666665L180,317.09973333333335L177.14285714285714,197.17933333333332L174.28571428571428,317.0749333333333L171.42857142857142,314.8925333333333L168.57142857142858,321.2L165.71428571428572,294.1804L162.85714285714286,341.8790666666667L160,306.4481333333333L157.14285714285714,311.2056L154.2857142857143,314.0204L151.42857142857142,278.3456L148.57142857142858,281.30920000000003L145.7142857142857,318.32733333333334L142.85714285714286,326.0690666666667L140,319.26146666666665L137.14285714285714,317.86440000000005L134.28571428571428,321.2909333333333L131.42857142857142,317.666L128.57142857142858,317.51306666666665L125.71428571428571,318.1496L122.85714285714286,342.6768L120,318.74066666666664L117.14285714285715,303.33573333333334L114.28571428571428,313.34666666666664L111.42857142857143,314.12786666666665L108.57142857142857,308.2006666666667L105.71428571428572,302.5876L102.85714285714285,317.09973333333335L100,315.29760000000005L97.14285714285714,302.61653333333334L94.28571428571428,268.9505333333333L91.42857142857143,256.348L88.57142857142857,265.92906666666664L85.71428571428571,264.22613333333334L82.85714285714286,327.42066666666665L80,349.06693333333334L77.14285714285715,304.5964L74.28571428571429,273.6294666666667L71.42857142857143,311.15186666666665L68.57142857142857,259.22066666666666L65.71428571428571,310.0937333333333L62.857142857142854,318.7282666666666L60,273.5509333333333L57.14285714285714,301.7237333333333L54.285714285714285,310.9410666666667L51.42857142857142,312.9250666666667L48.57142857142857,247.90360000000007L45.714285714285715,304.4104L42.857142857142854,346.43399999999997L40,261.7792L37.142857142857146,308.10560000000004L34.285714285714285,351.66266666666667L31.428571428571427,305.24533333333335L28.57142857142857,278.60186666666664L25.71428571428571,236.27239999999995L22.857142857142858,266.14813333333336L20,288.17466666666667L17.142857142857142,264.2757333333333L14.285714285714285,255.03773333333334L11.428571428571429,300.5292L8.571428571428571,297.2762666666667L5.714285714285714,308.97773333333333L2.857142857142857,327.23466666666667L0,304.67906666666664Z" fill="#4c78a8"/></g></g><path class="foreground" aria-hidden="true" d="" display="none"/></g></g></g></svg>