<svg xmlns="http://www.w3.org/2000/svg" xmlns:xlink="http://www.w3.org/1999/xlink" version="1.1" class="marks" width="859" height="447" viewBox="0 0 859 447"><rect width="859" height="447" fill="white"/><g fill="none" stroke-miterlimit="10" transform="translate(54,10)"><g class="mark-group role-frame root" role="graphics-object" aria-roledescription="group mark container"><g transform="translate(0,0)"><path class="background" aria-hidden="true" d="M0.5,0.5h800v400h-800Z" stroke="#ddd"/><g><g class="mark-group role-axis" aria-hidden="true"><g transform="translate(0.5,400.5)"><path class="background" aria-hidden="true" d="M0,0h0v0h0Z" pointer-events="none"/><g><g class="mark-rule role-axis-grid" pointer-events="none"><line transform="translate(51,-400)" x2="0" y2="400" stroke="#ddd" stroke-width="1" opacity="1"/><line transform="translate(97,-400)" x2="0" y2="400" stroke="#ddd" stroke-width="1" opacity="1"/><line transform="translate(147,-400)" x2="0" y2="400" stroke="#ddd" stroke-width="1" opacity="1"/><line transform="translate(197,-400)" x2="0" y2="400" stroke="#ddd" stroke-width="1" opacity="1"/><line transform="translate(247,-400)" x2="0" y2="400" stroke="#ddd" stroke-width="1" opacity="1"/><line transform="translate(297,-400)" x2="0" y2="400" stroke="#ddd" stroke-width="1" opacity="1"/><line transform="translate(347,-400)" x2="0" y2="400" stroke="#ddd" stroke-width="1" opacity="1"/><line transform="translate(398,-400)" x2="0" y2="400" stroke="#ddd" stroke-width="1" opacity="1"/><line transform="translate(447,-400)" x2="0" y2="400" stroke="#ddd" stroke-width="1" opacity="1"/><line transform="translate(498,-400)" x2="0" y2="400" stroke="#ddd" stroke-width="1" opacity="1"/><line transform="translate(547,-400)" x2="0" y2="400" stroke="#ddd" stroke-width="1" opacity="1"/><line transform="translate(598,-400)" x2="0" y2="400" stroke="#ddd" stroke-width="1" opacity="1"/><line transform="translate(649,-400)" x2="0" y2="400" stroke="#ddd" stroke-width="1" opacity="1"/><line transform="translate(695,-400)" x2="0" y2="400" stroke="#ddd" stroke-width="1" opacity="1"/><line transform="translate(746,-400)" x2="0" y2="400" stroke="#ddd" stroke-width="1" opacity="1"/><line transform="translate(795,-400)" x2="0" y2="400" stroke="#ddd" stroke-width="1" opacity="1"/></g></g><path class="foreground" aria-hidden="true" d="" pointer-events="none" display="none"/></g></g><g class="mark-group role-axis" aria-hidden="true"><g transform="translate(0.5,0.5)"><path class="background" aria-hidden="true" d="M0,0h0v0h0Z" pointer-events="none"/><g><g class="mark-rule role-axis-grid" pointer-events="none"><line transform="translate(0,400)" x2="800" y2="0" stroke="#ddd" stroke-width="1" opacity="1"/><line transform="translate(0,367)" x2="800" y2="0" stroke="#ddd" stroke-width="1" opacity="1"/><line transform="translate(0,333)" x2="800" y2="0" stroke="#ddd" stroke-width="1" opacity="1"/><line transform="translate(0,300)" x2="800" y2="0" stroke="#ddd" stroke-width="1" opacity="1"/><line transform="translate(0,267)" x2="800" y2="0" stroke="#ddd" stroke-width="1" opacity="1"/><line transform="translate(0,233)" x2="800" y2="0" stroke="#ddd" stroke-width="1" opacity="1"/><line transform="translate(0,200)" x2="800" y2="0" stroke="#ddd" stroke-width="1" opacity="1"/><line transform="translate(0,167)" x2="800" y2="0" stroke="#ddd" stroke-width="1" opacity="1"/><line transform="translate(0,133)" x2="800" y2="0" stroke="#ddd" stroke-width="1" opacity="1"/><line transform="translate(0,100)" x2="800" y2="0" stroke="#ddd" stroke-width="1" opacity="1"/><line transform="translate(0,67)" x2="800" y2="0" stroke="#ddd" stroke-width="1" opacity="1"/><line transform="translate(0,33)" x2="800" y2="0" stroke="#ddd" stroke-width="1" opacity="1"/><line transform="translate(0,0)" x2="800" y2="0" stroke="#ddd" stroke-width="1" opacity="1"/></g></g><path class="foreground" aria-hidden="true" d="" pointer-events="none" display="none"/></g></g><g class="mark-group role-axis" role="graphics-symbol" aria-roledescription="axis" aria-label="X-axis titled 'date' for a time scale with values from Friday, 01 January 2021, 2:00:00 AM to Wednesday, 04 May 2022, 3:00:00 AM"><g transform="translate(0.5,400.5)"><path class="background" aria-hidden="true" d="M0,0h0v0h0Z" pointer-events="none"/><g><g class="mark-rule role-axis-tick" pointer-events="none"><line transform="translate(51,0)" x2="0" y2="5" stroke="#888" stroke-width="1" opacity="1"/><line transform="translate(97,0)" x2="0" y2="5" stroke="#888" stroke-width="1" opacity="1"/><line transform="translate(147,0)" x2="0" y2="5" stroke="#888" stroke-width="1" opacity="1"/><line transform="translate(197,0)" x2="0" y2="5" stroke="#888" stroke-width="1" opacity="1"/><line transform="translate(247,0)" x2="0" y2="5" stroke="#888" stroke-width="1" opacity="1"/><line transform="translate(297,0)" x2="0" y2="5" stroke="#888" stroke-width="1" opacity="1"/><line transform="translate(347,0)" x2="0" y2="5" stroke="#888" stroke-width="1" opacity="1"/><line transform="translate(398,0)" x2="0" y2="5" stroke="#888" stroke-width="1" opacity="1"/><line transform="translate(447,0)" x2="0" y2="5" stroke="#888" stroke-width="1" opacity="1"/><line transform="translate(498,0)" x2="0" y2="5" stroke="#888" stroke-width="1" opacity="1"/><line transform="translate(547,0)" x2="0" y2="5" stroke="#888" stroke-width="1" opacity="1"/><line transform="translate(598,0)" x2="0" y2="5" stroke="#888" stroke-width="1" opacity="1"/><line transform="translate(649,0)" x2="0" y2="5" stroke="#888" stroke-width="1" opacity="1"/><line transform="translate(695,0)" x2="0" y2="5" stroke="#888" stroke-width="1" opacity="1"/><line transform="translate(746,0)" x2="0" y2="5" stroke="#888" stroke-width="1" opacity="1"/><line transform="translate(795,0)" x2="0" y2="5" stroke="#888" stroke-width="1" opacity="1"/></g><g class="mark-text role-axis-label" pointer-events="none"><text text-anchor="middle" transform="translate(50.68306010928961,15)" font-family="sans-serif" font-size="10px" fill="#000" opacity="1">February</text><text text-anchor="middle" transform="translate(96.58469945355192,15)" font-family="sans-serif" font-size="10px" fill="#000" opacity="0">March</text><text text-anchor="middle" transform="translate(147.3360655737705,15)" font-family="sans-serif" font-size="10px" fill="#000" opacity="1">April</text><text text-anchor="middle" transform="translate(196.51639344262296,15)" font-family="sans-serif" font-size="10px" fill="#000" opacity="0">May</text><text text-anchor="middle" transform="translate(247.3360655737705,15)" font-family="sans-serif" font-size="10px" fill="#000" opacity="1">June</text><text text-anchor="middle" transform="translate(296.516393442623,15)" font-family="sans-serif" font-size="10px" fill="#000" opacity="0">July</text><text text-anchor="middle" transform="translate(347.3360655737705,15)" font-family="sans-serif" font-size="10px" fill="#000" opacity="1">August</text><text text-anchor="middle" transform="translate(398.155737704918,15)" font-family="sans-serif" font-size="10px" fill="#000" opacity="0">September</text><text text-anchor="middle" transform="translate(447.33606557377044,15)" font-family="sans-serif" font-size="10px" fill="#000" opacity="1">October</text><text text-anchor="middle" transform="translate(498.224043715847,15)" font-family="sans-serif" font-size="10px" fill="#000" opacity="0">November</text><text text-anchor="middle" transform="translate(547.4043715846994,15)" font-family="sans-serif" font-size="10px" fill="#000" opacity="1">December</text><text text-anchor="middle" transform="translate(598.2240437158471,15)" font-family="sans-serif" font-size="10px" fill="#000" opacity="0">2022</text><text text-anchor="middle" transform="translate(649.0437158469946,15)" font-family="sans-serif" font-size="10px" fill="#000" opacity="1">February</text><text text-anchor="middle" transform="translate(694.9453551912568,15)" font-family="sans-serif" font-size="10px" fill="#000" opacity="0">March</text><text text-anchor="middle" transform="translate(745.6967213114754,15)" font-family="sans-serif" font-size="10px" fill="#000" opacity="1">April</text><text text-anchor="middle" transform="translate(794.8770491803278,15)" font-family="sans-serif" font-size="10px" fill="#000" opacity="0">May</text></g><g class="mark-rule role-axis-domain" pointer-events="none"><line transform="translate(0,0)" x2="800" y2="0" stroke="#888" stroke-width="1" opacity="1"/></g><g class="mark-text role-axis-title" pointer-events="none"><text text-anchor="middle" transform="translate(400,30)" font-family="sans-serif" font-size="11px" font-weight="bold" fill="#000" opacity="1">date</text></g></g><path class="foreground" aria-hidden="true" d="" pointer-events="none" display="none"/></g></g><g class="mark-group role-axis" role="graphics-symbol" aria-roledescription="axis" aria-label="Y-axis titled 'min, max' for a linear scale with values from −100 to 1,100"><g transform="translate(0.5,0.5)"><path class="background" aria-hidden="true" d="M0,0h0v0h0Z" pointer-events="none"/><g><g class="mark-rule role-axis-tick" pointer-events="none"><line transform="translate(0,400)" x2="-5" y2="0" stroke="#888" stroke-width="1" opacity="1"/><line transform="translate(0,367)" x2="-5" y2="0" stroke="#888" stroke-width="1" opacity="1"/><line transform="translate(0,333)" x2="-5" y2="0" stroke="#888" stroke-width="1" opacity="1"/><line transform="translate(0,300)" x2="-5" y2="0" stroke="#888" stroke-width="1" opacity="1"/><line transform="translate(0,267)" x2="-5" y2="0" stroke="#888" stroke-width="1" opacity="1"/><line transform="translate(0,233)" x2="-5" y2="0" stroke="#888" stroke-width="1" opacity="1"/><line transform="translate(0,200)" x2="-5" y2="0" stroke="#888" stroke-width="1" opacity="1"/><line transform="translate(0,167)" x2="-5" y2="0" stroke="#888" stroke-width="1" opacity="1"/><line transform="translate(0,133)" x2="-5" y2="0" stroke="#888" stroke-width="1" opacity="1"/><line transform="translate(0,100)" x2="-5" y2="0" stroke="#888" stroke-width="1" opacity="1"/><line transform="translate(0,67)" x2="-5" y2="0" stroke="#888" stroke-width="1" opacity="1"/><line transform="translate(0,33)" x2="-5" y2="0" stroke="#888" stroke-width="1" opacity="1"/><line transform="translate(0,0)" x2="-5" y2="0" stroke="#888" stroke-width="1" opacity="1"/></g><g class="mark-text role-axis-label" pointer-events="none"><text text-anchor="end" transform="translate(-7,403)" font-family="sans-serif" font-size="10px" fill="#000" opacity="1">−100</text><text text-anchor="end" transform="translate(-7,369.66666666666663)" font-family="sans-serif" font-size="10px" fill="#000" opacity="1">0</text><text text-anchor="end" transform="translate(-7,336.33333333333337)" font-family="sans-serif" font-size="10px" fill="#000" opacity="1">100</text><text text-anchor="end" transform="translate(-7,303)" font-family="sans-serif" font-size="10px" fill="#000" opacity="1">200</text><text text-anchor="end" transform="translate(-7,269.6666666666667)" font-family="sans-serif" font-size="10px" fill="#000" opacity="1">300</text><text text-anchor="end" transform="translate(-7,236.33333333333331)" font-family="sans-serif" font-size="10px" fill="#000" opacity="1">400</text><text text-anchor="end" transform="translate(-7,203)" font-family="sans-serif" font-size="10px" fill="#000" opacity="1">500</text><text text-anchor="end" transform="translate(-7,169.66666666666666)" font-family="sans-serif" font-size="10px" fill="#000" opacity="1">600</text><text text-anchor="end" transform="translate(-7,136.33333333333334)" font-family="sans-serif" font-size="10px" fill="#000" opacity="1">700</text><text text-anchor="end" transform="translate(-7,103)" font-family="sans-serif" font-size="10px" fill="#000" opacity="1">800</text><text text-anchor="end" transform="translate(-7,69.66666666666666)" font-family="sans-serif" font-size="10px" fill="#000" opacity="1">900</text><text text-anchor="end" transform="translate(-7,36.33333333333335)" font-family="sans-serif" font-size="10px" fill="#000" opacity="1">1,000</text><text text-anchor="end" transform="translate(-7,3)" font-family="sans-serif" font-size="10px" fill="#000" opacity="1">1,100</text></g><g class="mark-rule role-axis-domain" pointer-events="none"><line transform="translate(0,400)" x2="0" y2="-400" stroke="#888" stroke-width="1" opacity="1"/></g><g class="mark-text role-axis-title" pointer-events="none"><text text-anchor="middle" transform="translate(-38,200) rotate(-90) translate(0,-2)" font-family="sans-serif" font-size="11px" font-weight="bold" fill="#000" opacity="1">min, max</text></g></g><path class="foreground" aria-hidden="true" d="" pointer-events="none" display="none"/></g></g><g class="mark-area role-mark marks" role="graphics-object" aria-roledescription="area mark container"><path aria-label="date: Jan 01, 2021; min: 23.72; max: 30.25" role="graphics-symbol" aria-roledescription="area mark" d="M0,358.76L1.639344262295082,358.44666666666666L3.278688524590164,358.83666666666664L4.918032786885246,358.7066666666667L6.557377049180328,357.64L8.19672131147541,357.34L9.836065573770492,353.6033333333333L11.475409836065573,351.83L13.114754098360656,354.4533333333333L14.754098360655737,355.38666666666666L16.39344262295082,360.19L18.0327868852459,361.3933333333333L19.672131147540984,356.38666666666666L21.311475409836063,354.34000000000003L22.950819672131146,351.56666666666666L24.59016393442623,351.16999999999996L26.229508196721312,352.05L27.86885245901639,354.41666666666663L29.508196721311474,356.5566666666667L31.147540983606557,358.3833333333333L32.78688524590164,362.5166666666667L34.42622950819672,362.9733333333333L36.0655737704918,358.35333333333335L37.704918032786885,354.06L39.34426229508197,353.15333333333336L40.98360655737705,352.74L42.62295081967213,352.8066666666667L44.26229508196721,352.5333333333333L45.90163934426229,353.74L47.540983606557376,354.0133333333333L49.18032786885246,353.5L50.81967213114754,353.32666666666665L52.459016393442624,353.77L54.09836065573771,355.01666666666665L55.73770491803278,355.3533333333333L57.377049180327866,353.1066666666667L59.01639344262295,353.78333333333336L60.65573770491803,354.3433333333333L62.295081967213115,353.6666666666667L63.934426229508205,351.31666666666666L65.57377049180327,350.8333333333333L67.21311475409836,349.99333333333334L68.85245901639344,350.74333333333334L70.49180327868852,351.7733333333333L72.1311475409836,353.6166666666667L73.77049180327869,354.17L75.40983606557377,352.59333333333336L77.04918032786885,353.3333333333333L78.68852459016394,354.53000000000003L80.32786885245902,354.4566666666667L81.9672131147541,356.68666666666667L83.60655737704919,357.11L85.24590163934425,354.6L86.88524590163934,356.71333333333337L88.52459016393442,359.17333333333335L90.1639344262295,358.76666666666665L91.80327868852459,359.59L93.44262295081968,358.73333333333335L95.08196721311475,359.95L96.72131147540983,360.37333333333333L98.36065573770492,358.94666666666666L100,358.55L101.63934426229508,358.23333333333335L103.27868852459017,358.3833333333333L104.91803278688525,361.03000000000003L106.55737704918033,361.2633333333333L108.19672131147541,357.53666666666663L109.8360655737705,357.18333333333334L111.47540983606557,360.6433333333333L113.11475409836065,362.01666666666665L114.75409836065573,361.32666666666665L116.39344262295081,358.2933333333333L118.0327868852459,358.04999999999995L119.67213114754098,355.99L121.31147540983606,356.23L122.95081967213115,356.6333333333334L124.59016393442623,356.5933333333333L126.22950819672131,359.43333333333334L127.86885245901641,361.3L129.5081967213115,362.1766666666667L131.14754098360655,359.24333333333334L132.78688524590163,360.25333333333333L134.4262295081967,361.1633333333333L136.0655737704918,361.1166666666667L137.70491803278688,361.1933333333333L139.34426229508196,361.43666666666667L140.98360655737704,361.44L142.62295081967213,362.56L144.2622950819672,362.88L145.9016393442623,361.31333333333333L147.54098360655738,361.0566666666667L149.18032786885246,362.2033333333333L150.81967213114754,362.15000000000003L152.45901639344262,366.8233333333333L154.0983606557377,367.13666666666666L155.7377049180328,362.54333333333335L157.37704918032787,361.05L159.01639344262296,361.57L160.65573770491804,361.8933333333334L162.29508196721312,360.69L163.9344262295082,359.77000000000004L165.5737704918033,359.82L167.21311475409837,359.44666666666666L168.85245901639345,358.99666666666667L170.4918032786885,358.21999999999997L172.1311475409836,358L173.77049180327867,358.52666666666664L175.40983606557376,359.38L177.04918032786884,359.34333333333336L178.68852459016392,361.5233333333333L180.327868852459,363.76L181.9672131147541,363.74L183.60655737704917,361.62666666666667L185.24590163934425,362.04L186.88524590163937,366.64666666666665L188.52459016393445,359.1066666666666L190.1639344262295,351.4033333333333L191.80327868852459,351.00666666666666L193.44262295081967,354.99L195.08196721311475,355.1333333333333L196.72131147540983,352.51666666666665L198.36065573770492,355.6433333333334L200,353.6933333333333L201.63934426229505,359.21L203.27868852459017,359.31666666666666L204.91803278688522,354.39666666666665L206.55737704918033,350.10333333333335L208.1967213114754,360.04L209.8360655737705,361.4266666666667L211.47540983606555,360.14666666666665L213.11475409836066,360.83L214.75409836065575,359.86L216.39344262295083,359.94L218.0327868852459,359.96999999999997L219.672131147541,363.3333333333333L221.31147540983608,362.17333333333335L222.95081967213113,359.18333333333334L224.59016393442624,359.22999999999996L226.2295081967213,362.28333333333336L227.8688524590164,363.0933333333333L229.50819672131146,365.31666666666666L231.14754098360658,366.61L232.78688524590163,365.31333333333333L234.42622950819674,362.6766666666667L236.0655737704918,359.58L237.7049180327869,359.9166666666667L239.34426229508196,359.62666666666667L240.98360655737702,356.87666666666667L242.62295081967213,359.1766666666667L244.26229508196718,361.6L245.9016393442623,359.49666666666667L247.54098360655738,356.97999999999996L249.18032786885246,355.51666666666665L250.81967213114754,357.11L252.45901639344262,356.69L254.0983606557377,353.75L255.73770491803282,353.75L257.37704918032784,353.12666666666667L259.016393442623,351.6566666666667L260.655737704918,352.69666666666666L262.2950819672131,355.24666666666667L263.9344262295082,362.34000000000003L265.57377049180326,363.35333333333335L267.21311475409834,366.3333333333333L268.8524590163934,363.32666666666665L270.4918032786885,366.06666666666666L272.1311475409836,356.8433333333333L273.77049180327873,359.4766666666667L275.40983606557376,360.11333333333334L277.0491803278689,360.39666666666665L278.6885245901639,361.56333333333333L280.327868852459,365.45666666666665L281.9672131147541,358.3933333333333L283.60655737704917,358.3233333333333L285.24590163934425,356.92L286.88524590163934,357.95666666666665L288.5245901639344,359.42333333333335L290.1639344262295,358.45666666666665L291.8032786885246,357.60999999999996L293.44262295081967,355.18333333333334L295.08196721311475,355.56666666666666L296.72131147540983,354.9L298.3606557377049,352.86333333333334L300,353.46000000000004L301.6393442622951,353.4866666666667L303.27868852459017,352.9266666666667L304.91803278688525,351.80333333333334L306.55737704918033,351.11333333333334L308.1967213114754,351.37666666666667L309.8360655737705,348.1766666666667L311.4754098360656,349.82L313.11475409836066,350.2033333333333L314.75409836065575,348.37666666666667L316.39344262295083,344.97999999999996L318.0327868852459,342.4433333333333L319.672131147541,348.68333333333334L321.3114754098361,348.97333333333336L322.9508196721311,353.3366666666667L324.59016393442624,365.7L326.22950819672127,351.75333333333333L327.8688524590164,352.51666666666665L329.5081967213115,354.5833333333333L331.1475409836066,356.10333333333335L332.78688524590166,351.36333333333334L334.42622950819674,350.89L336.0655737704918,351.7933333333333L337.7049180327869,351.75333333333333L339.344262295082,350.94L340.983606557377,351.83333333333337L342.62295081967216,352.96333333333337L344.2622950819672,352.92L345.9016393442623,355.5433333333333L347.54098360655735,351.83333333333337L349.1803278688525,352.0933333333333L350.8196721311475,351.67L352.45901639344265,349.67333333333335L354.0983606557377,349.35L355.7377049180328,349.8933333333333L357.37704918032784,366.24333333333334L359.016393442623,366.6533333333333L360.655737704918,356.02666666666664L362.2950819672131,345.58666666666664L363.9344262295082,343.41999999999996L365.57377049180326,342.9433333333333L367.21311475409834,347.49666666666667L368.8524590163934,350.51L370.4918032786885,350.3433333333333L372.1311475409836,346.85L373.77049180327873,355.33000000000004L375.40983606557376,366.1L377.0491803278689,352.04L378.6885245901639,352.08L380.327868852459,354.40999999999997L381.9672131147541,352.4866666666667L383.60655737704917,351.1433333333333L385.24590163934425,359.56333333333333L386.88524590163934,360.4066666666667L388.5245901639344,357.93333333333334L390.1639344262295,352.64000000000004L391.8032786885246,350.90666666666664L393.44262295081967,350.44L395.08196721311475,351.60333333333335L396.72131147540983,358.1433333333334L398.3606557377049,357.7366666666667L400,356.74L401.6393442622951,356.71L403.2786885245901,351.39L404.91803278688525,350.4433333333333L406.55737704918033,350.88L408.1967213114754,358.59999999999997L409.83606557377044,359.61L411.47540983606564,350.36333333333334L413.11475409836066,348.6133333333333L414.75409836065575,348.42L416.3934426229508,349.57666666666665L418.03278688524597,352.64000000000004L419.672131147541,349.61333333333334L421.3114754098361,346.87666666666667L422.9508196721311,345.37666666666667L424.5901639344262,345.3566666666667L426.2295081967213,345.53333333333336L427.8688524590164,345.5733333333333L429.5081967213115,344.69L431.1475409836065,344.88666666666666L432.78688524590166,350.21666666666664L434.42622950819674,357.0466666666666L436.0655737704918,354.82L437.70491803278685,350.86333333333334L439.344262295082,350.00666666666666L440.9836065573771,350.22L442.62295081967216,348.69L444.2622950819672,347.41333333333336L445.90163934426226,355.12L447.5409836065574,360.03333333333336L449.1803278688525,366.63666666666666L450.8196721311475,366.6433333333333L452.4590163934426,366.35333333333335L454.09836065573774,361.31666666666666L455.7377049180328,355.0466666666666L457.37704918032784,356.56333333333333L459.0163934426229,351.01L460.655737704918,360.1533333333333L462.29508196721315,360.9766666666667L463.9344262295082,361.25666666666666L465.57377049180326,356.6166666666667L467.21311475409834,354.02L468.8524590163935,366.0733333333333L470.4918032786885,365.9L472.1311475409836,365.5333333333333L473.7704918032787,365.09999999999997L475.4098360655738,361.66999999999996L477.0491803278689,364.7833333333333L478.6885245901639,366.63666666666666L480.327868852459,365.3066666666667L481.96721311475403,365.8333333333333L483.6065573770492,362.66666666666663L485.24590163934425,362.4033333333333L486.88524590163934,361.93333333333334L488.52459016393436,361.32L490.16393442622956,364.09L491.8032786885246,364.21999999999997L493.44262295081967,362.89L495.08196721311475,362.9566666666667L496.7213114754099,362.02L498.3606557377049,364.45666666666665L500,365.5233333333333L501.6393442622951,361.68L503.2786885245901,361.28L504.91803278688525,365.53L506.55737704918033,366.06L508.1967213114754,366.1766666666667L509.83606557377044,361.59333333333336L511.47540983606564,365.36L513.1147540983607,365.69L514.7540983606557,365.54333333333335L516.3934426229508,362.96333333333337L518.032786885246,361.92L519.672131147541,362L521.311475409836,362.47333333333336L522.9508196721312,362.4633333333333L524.5901639344262,362.62666666666667L526.2295081967213,362.66333333333336L527.8688524590164,364.99666666666667L529.5081967213115,365.51L531.1475409836065,362.06333333333333L532.7868852459017,336.6666666666667L534.4262295081967,362.2166666666667L536.0655737704918,362.2133333333333L537.7049180327868,358.71666666666664L539.344262295082,337.58L540.983606557377,327.6166666666667L542.6229508196722,321.2866666666667L544.2622950819672,326.99L545.9016393442622,340.73333333333335L547.5409836065575,335.3433333333333L549.1803278688525,330.03333333333336L550.8196721311475,331.17333333333335L552.4590163934425,337.50666666666666L554.0983606557378,339.6933333333333L555.7377049180328,324.6933333333333L557.3770491803278,317.21L559.016393442623,317.7733333333333L560.655737704918,323.71666666666664L562.2950819672132,324.3266666666667L563.9344262295082,326.78333333333336L565.5737704918033,331.3666666666667L567.2131147540983,353.75666666666666L568.8524590163935,359.7966666666667L570.4918032786885,361.6766666666667L572.1311475409836,361.99333333333334L573.7704918032787,360.4033333333333L575.4098360655738,361.6633333333333L577.0491803278688,362.08333333333337L578.688524590164,355.3066666666667L580.327868852459,313.33000000000004L581.967213114754,318.24L583.6065573770492,333.9266666666667L585.2459016393443,339.4066666666667L586.8852459016393,343.9166666666667L588.5245901639344,336.15L590.1639344262295,336.2733333333333L591.8032786885246,337.01L593.4426229508197,342.3066666666667L595.0819672131147,358.07000000000005L596.7213114754098,358.66333333333336L598.360655737705,354.11L600,359.7033333333333L601.639344262295,360.06L603.2786885245902,354.44666666666666L604.9180327868853,341.54L606.5573770491803,340.64L608.1967213114754,333.51L609.8360655737705,338.3233333333333L611.4754098360656,339.08666666666664L613.1147540983607,322.06333333333333L614.7540983606557,358.46L616.3934426229508,362.30333333333334L618.032786885246,363.1766666666667L619.672131147541,362.8666666666667L621.311475409836,361.08666666666664L622.9508196721312,362.26666666666665L624.5901639344262,363.30333333333334L626.2295081967213,361.57666666666665L627.8688524590164,362.0266666666667L629.5081967213115,363.7033333333333L631.1475409836065,361.65333333333336L632.7868852459017,337.3566666666667L634.4262295081967,362.78000000000003L636.0655737704918,363.1633333333333L637.7049180327868,362.36L639.344262295082,358.00333333333333L640.983606557377,347.4666666666667L642.6229508196722,358.0933333333333L644.2622950819672,362.3233333333333L645.9016393442622,365.33L647.5409836065575,350.5566666666667L649.1803278688525,333.33666666666664L650.8196721311475,341.61L652.4590163934425,335.31L654.0983606557378,361.36333333333334L655.7377049180328,361.58000000000004L657.3770491803278,362.7133333333333L659.016393442623,362.0566666666667L660.655737704918,358.33L662.2950819672132,362.74666666666667L663.9344262295082,362.87L665.5737704918033,358.33666666666664L667.2131147540983,362.92L668.8524590163935,363.25333333333333L670.4918032786885,362.35333333333335L672.1311475409836,362.00333333333333L673.7704918032787,361.9433333333333L675.4098360655738,362.25333333333333L677.0491803278688,362.41666666666663L678.688524590164,361.87333333333333L680.327868852459,360.0433333333333L681.967213114754,361.0233333333333L683.6065573770492,356.6533333333333L685.2459016393443,362.86333333333334L686.8852459016393,363.05L688.5245901639344,361.97333333333336L690.1639344262295,361.9666666666667L691.8032786885246,362.08666666666664L693.4426229508197,362.11333333333334L695.0819672131147,362.6766666666667L696.7213114754098,362.90666666666664L698.360655737705,361.99333333333334L700,330.0133333333333L701.639344262295,349.32L703.2786885245902,358.3066666666667L704.9180327868853,349.98L706.5573770491803,343.68666666666667L708.1967213114754,359.45L709.8360655737705,362.36L711.4754098360656,358.32L713.1147540983607,347.34L714.7540983606557,360.68333333333334L716.3934426229508,352.48L718.032786885246,349.3666666666667L719.672131147541,361.8366666666667L721.311475409836,362.9766666666667L722.9508196721312,363.0866666666667L724.5901639344262,363.72L726.2295081967213,362.92999999999995L727.8688524590164,362.01666666666665L729.5081967213115,357.2L731.1475409836065,362.34666666666664L732.7868852459017,362.5466666666667L734.4262295081967,364.12666666666667L736.0655737704918,365.13666666666666L737.7049180327868,363.98333333333335L739.344262295082,364.0566666666667L740.983606557377,352.1566666666667L742.6229508196722,351.74666666666667L744.2622950819672,333.4533333333333L745.9016393442622,335.17333333333335L747.5409836065575,358.24L749.1803278688525,354.9166666666667L750.8196721311475,360.99333333333334L752.4590163934425,361.02L754.0983606557378,358.7966666666666L755.7377049180328,363.85999999999996L757.3770491803278,365.9633333333333L759.016393442623,360.33L760.655737704918,365L762.2950819672132,359.40666666666664L763.9344262295082,353.93666666666667L765.5737704918033,347.09L767.2131147540983,351.78000000000003L768.8524590163935,351.75666666666666L770.4918032786885,355.13L772.1311475409836,362.2866666666667L773.7704918032787,351.6666666666667L775.4098360655738,344.82666666666665L777.0491803278688,356.52666666666664L778.688524590164,361.3366666666667L780.327868852459,361.0966666666667L781.967213114754,362.2366666666667L783.6065573770492,356.06666666666666L785.2459016393443,363.50666666666666L786.8852459016393,365.02666666666664L788.5245901639344,357.21L790.1639344262295,359.80333333333334L791.8032786885246,362.0233333333333L793.4426229508197,362.25333333333333L795.0819672131147,361.21L796.7213114754098,363.8533333333333L798.360655737705,363.8333333333333L800,333.64000000000004L800,267.7L798.360655737705,276.59000000000003L796.7213114754098,287.02L795.0819672131147,293.37333333333333L793.4426229508197,293.4866666666667L791.8032786885246,269.59333333333336L790.1639344262295,272.21000000000004L788.5245901639344,276.33L786.8852459016393,297.44666666666666L785.2459016393443,275.84333333333336L783.6065573770492,310.0233333333333L781.967213114754,353.15666666666664L780.327868852459,338.78666666666663L778.688524590164,339.37666666666667L777.0491803278688,330.00333333333333L775.4098360655738,308.33333333333337L773.7704918032787,337.86L772.1311475409836,342.16L770.4918032786885,343.64L768.8524590163935,340.24666666666667L767.2131147540983,317.14666666666665L765.5737704918033,302.75L763.9344262295082,277.0733333333333L762.2950819672132,300.3L760.655737704918,356.69666666666666L759.016393442623,353.3566666666667L757.3770491803278,350.8333333333333L755.7377049180328,316.19666666666666L754.0983606557378,307.19L752.4590163934425,330.02666666666664L750.8196721311475,326.4666666666667L749.1803278688525,336.63666666666666L747.5409836065575,338.8833333333333L745.9016393442622,297.1766666666666L744.2622950819672,258.81333333333333L742.6229508196722,314.64L740.983606557377,283.3333333333333L739.344262295082,353.00666666666666L737.7049180327868,331.97L736.0655737704918,344.84333333333336L734.4262295081967,328.36333333333334L732.7868852459017,299.5166666666667L731.1475409836065,270.01L729.5081967213115,272.9666666666667L727.8688524590164,341.42333333333335L726.2295081967213,345.95666666666665L724.5901639344262,360.95L722.9508196721312,310.02L721.311475409836,342.00333333333333L719.672131147541,303.06333333333333L718.032786885246,287.76666666666665L716.3934426229508,290.13666666666666L714.7540983606557,327.32666666666665L713.1147540983607,298.6166666666667L711.4754098360656,304.97999999999996L709.8360655737705,338.50666666666666L708.1967213114754,173.51666666666662L706.5573770491803,275.4733333333333L704.9180327868853,199.11666666666665L703.2786885245902,323.3066666666667L701.639344262295,326.6933333333333L700,229.98333333333335L698.360655737705,326.67333333333335L696.7213114754098,324.91333333333336L695.0819672131147,330L693.4426229508197,308.21L691.8032786885246,346.6766666666667L690.1639344262295,318.10333333333335L688.5245901639344,321.94L686.8852459016393,324.21L685.2459016393443,295.43999999999994L683.6065573770492,297.83L681.967213114754,327.68333333333334L680.327868852459,333.9266666666667L678.688524590164,328.43666666666667L677.0491803278688,327.31L675.4098360655738,330.0733333333334L673.7704918032787,327.15000000000003L672.1311475409836,327.02666666666664L670.4918032786885,327.53999999999996L668.8524590163935,347.32000000000005L667.2131147540983,328.01666666666665L665.5737704918033,315.59333333333336L663.9344262295082,323.6666666666667L662.2950819672132,324.2966666666667L660.655737704918,319.51666666666665L659.016393442623,314.99L657.3770491803278,326.6933333333333L655.7377049180328,325.23999999999995L654.0983606557378,315.0133333333333L652.4590163934425,287.86333333333334L650.8196721311475,277.7L649.1803278688525,285.4266666666667L647.5409836065575,284.0533333333333L645.9016393442622,335.01666666666665L644.2622950819672,352.4733333333333L642.6229508196722,316.61L640.983606557377,291.63666666666666L639.344262295082,321.89666666666665L637.7049180327868,280.01666666666665L636.0655737704918,321.04333333333335L634.4262295081967,328.00666666666666L632.7868852459017,291.5733333333334L631.1475409836065,314.29333333333335L629.5081967213115,321.7266666666667L627.8688524590164,323.32666666666665L626.2295081967213,270.89L624.5901639344262,316.46000000000004L622.9508196721312,350.34999999999997L621.311475409836,282.08000000000004L619.672131147541,319.44L618.032786885246,354.56666666666666L616.3934426229508,317.1333333333333L614.7540983606557,295.64666666666665L613.1147540983607,261.51L611.4754098360656,285.60333333333335L609.8360655737705,303.3666666666667L608.1967213114754,284.0933333333333L606.5573770491803,276.6433333333334L604.9180327868853,313.33000000000004L603.2786885245902,310.70666666666665L601.639344262295,320.1433333333333L600,334.8666666666667L598.360655737705,316.6766666666667L596.7213114754098,331.6433333333333L595.0819672131147,332.21L593.4426229508197,298.09999999999997L591.8032786885246,313.31333333333333L590.1639344262295,296.65333333333336L588.5245901639344,294.15L586.8852459016393,298.59333333333336L585.2459016393443,303.34666666666664L583.6065573770492,283.34999999999997L581.967213114754,190.26666666666668L580.327868852459,160L578.688524590164,213.3066666666667L577.0491803278688,308.5L575.4098360655738,315.08000000000004L573.7704918032787,273.26L572.1311475409836,291.22666666666663L570.4918032786885,321.93666666666667L568.8524590163935,243.04000000000002L567.2131147540983,265.5466666666666L565.5737704918033,270.81333333333333L563.9344262295082,272.80333333333334L562.2950819672132,266.6533333333333L560.655737704918,248.10333333333335L559.016393442623,144.41000000000003L557.3770491803278,33.309999999999945L555.7377049180328,157.98000000000002L554.0983606557378,281.03L552.4590163934425,285.65L550.8196721311475,280.00333333333333L549.1803278688525,251.18L547.5409836065575,295.98L545.9016393442622,276.11L544.2622950819672,226.04333333333332L542.6229508196722,284.02000000000004L540.983606557377,276.40000000000003L539.344262295082,272.65L537.7049180327868,297.02000000000004L536.0655737704918,296.52666666666664L534.4262295081967,283.75666666666666L532.7868852459017,272.4633333333333L531.1475409836065,331L529.5081967213115,350.9L527.8688524590164,325.85333333333335L526.2295081967213,332.07L524.5901639344262,335.2L522.9508196721312,332.7366666666666L521.311475409836,331.20666666666665L519.672131147541,330.99333333333334L518.032786885246,333.6166666666667L516.3934426229508,333.33L514.7540983606557,335.15999999999997L513.1147540983607,334.06L511.47540983606564,321.69L509.83606557377044,272.2033333333333L508.1967213114754,338.71666666666664L506.55737704918033,341.63666666666666L504.91803278688525,332.53L503.2786885245901,325.0566666666667L501.6393442622951,326.86333333333334L500,333.62333333333333L498.3606557377049,336.28999999999996L496.7213114754099,340.28999999999996L495.08196721311475,346.6466666666667L493.44262295081967,335.66666666666663L491.8032786885246,339.85L490.16393442622956,305.3L488.52459016393436,327.68666666666667L486.88524590163934,325.06666666666666L485.24590163934425,338.3066666666667L483.6065573770492,301.8833333333333L481.96721311475403,335.93333333333334L480.327868852459,331.50333333333333L478.6885245901639,334.02666666666664L477.0491803278689,289.99333333333334L475.4098360655738,284.3666666666667L473.7704918032787,334.6533333333333L472.1311475409836,353.30333333333334L470.4918032786885,333.63L468.8524590163935,327.72L467.21311475409834,273.19666666666666L465.57377049180326,290.07L463.9344262295082,327.6466666666667L462.29508196721315,350.32L460.655737704918,323.7L459.0163934426229,324.35L457.37704918032784,318.37666666666667L455.7377049180328,333.02666666666664L454.09836065573774,333.93666666666667L452.4590163934426,333.9266666666667L450.8196721311475,357.04333333333335L449.1803278688525,337.7666666666667L447.5409836065574,336.3233333333334L445.90163934426226,326.6L444.2622950819672,304.52666666666664L442.62295081967216,325.71333333333337L440.9836065573771,328.1666666666667L439.344262295082,328.65666666666664L437.70491803278685,326.2633333333333L436.0655737704918,327.1533333333333L434.42622950819674,337.08L432.78688524590166,323.62666666666667L431.1475409836065,303.3333333333333L429.5081967213115,298.3333333333333L427.8688524590164,328.68L426.2295081967213,329.84L424.5901639344262,322.8066666666667L422.9508196721311,305.93333333333334L421.3114754098361,302.4066666666667L419.672131147541,303.93333333333334L418.03278688524597,336.63666666666666L416.3934426229508,326.03L414.75409836065575,317.34333333333336L413.11475409836066,312.57666666666665L411.47540983606564,326.7L409.83606557377044,339.7733333333333L408.1967213114754,328.9L406.55737704918033,313.3333333333333L404.91803278688525,334.98333333333335L403.2786885245901,337.7066666666667L401.6393442622951,334.50333333333333L400,317.87333333333333L398.3606557377049,319.76L396.72131147540983,320.99333333333334L395.08196721311475,322.36L393.44262295081967,337.2133333333333L391.8032786885246,340.35L390.1639344262295,333.53000000000003L388.5245901639344,336.10333333333335L386.88524590163934,332.99L385.24590163934425,324.31666666666666L383.60655737704917,339.6733333333333L381.9672131147541,346.30333333333334L380.327868852459,347.22999999999996L378.6885245901639,326.6933333333333L377.0491803278689,329.4766666666667L375.40983606557376,340.9033333333333L373.77049180327873,336.28333333333336L372.1311475409836,333.17333333333335L370.4918032786885,343.20666666666665L368.8524590163934,344.00666666666666L367.21311475409834,331.6333333333334L365.57377049180326,326.41L363.9344262295082,326.68666666666667L362.2950819672131,327.90333333333336L360.655737704918,329.3666666666667L359.016393442623,345.54L357.37704918032784,347.4166666666667L355.7377049180328,336.06333333333333L354.0983606557377,334.7L352.45901639344265,333.48L350.8196721311475,343.46999999999997L349.1803278688525,334.1766666666667L347.54098360655735,342.6933333333333L345.9016393442623,338.69L344.2622950819672,332.1766666666667L342.62295081967216,328.09333333333336L340.983606557377,329.38L339.344262295082,329.35333333333335L337.7049180327869,330.3333333333333L336.0655737704918,336.68L334.42622950819674,336.5966666666667L332.78688524590166,332.1933333333333L331.1475409836066,341.24L329.5081967213115,333.33666666666664L327.8688524590164,336.19666666666666L326.22950819672127,328.33L324.59016393442624,339.49L322.9508196721311,332.18666666666667L321.3114754098361,330.9866666666667L319.672131147541,323.3066666666667L318.0327868852459,320.99L316.39344262295083,326.6666666666667L314.75409836065575,324.81L313.11475409836066,334.30333333333334L311.4754098360656,335.48L309.8360655737705,330.52666666666664L308.1967213114754,332.5233333333333L306.55737704918033,322.51L304.91803278688525,331.44L303.27868852459017,328.3366666666667L301.6393442622951,334.2833333333333L300,334.8533333333333L298.3606557377049,325.8333333333333L296.72131147540983,332.07666666666665L295.08196721311475,330.6666666666667L293.44262295081967,329.65666666666664L291.8032786885246,325.3466666666667L290.1639344262295,355.0566666666667L288.5245901639344,355.18666666666667L286.88524590163934,352.14L285.24590163934425,326.73L283.60655737704917,320.09333333333336L281.9672131147541,333.18L280.327868852459,338.68333333333334L278.6885245901639,348.3833333333333L277.0491803278689,345.75666666666666L275.40983606557376,333.3266666666667L273.77049180327873,325.0366666666667L272.1311475409836,308.41333333333336L270.4918032786885,333.33333333333337L268.8524590163934,334.59L267.21311475409834,350.54333333333335L265.57377049180326,347.03L263.9344262295082,330.46L262.2950819672131,333.4533333333333L260.655737704918,336.47L259.016393442623,333.53000000000003L257.37704918032784,333.44666666666666L255.73770491803282,351.73L254.0983606557377,350.25333333333333L252.45901639344262,338.0333333333333L250.81967213114754,337.2866666666667L249.18032786885246,333.3566666666667L247.54098360655738,336.4433333333333L245.9016393442623,337.75666666666666L244.26229508196718,350.81666666666666L242.62295081967213,348.81L240.98360655737702,335.66333333333336L239.34426229508196,338.00333333333333L237.7049180327869,338.47L236.0655737704918,334.26L234.42622950819674,335.6066666666666L232.78688524590163,347.09666666666664L231.14754098360658,335.7266666666667L229.50819672131146,345L227.8688524590164,340.78L226.2295081967213,337.27333333333337L224.59016393442624,329.8966666666667L222.95081967213113,333.3266666666667L221.31147540983608,348.90333333333336L219.672131147541,357.28333333333336L218.0327868852459,348.71666666666664L216.39344262295083,349.0866666666667L214.75409836065575,341.69L213.11475409836066,346.98333333333335L211.47540983606555,347.40666666666664L209.8360655737705,350.1733333333333L208.1967213114754,346.1566666666667L206.55737704918033,333.31333333333333L204.91803278688522,338.24666666666667L203.27868852459017,339.5433333333333L201.63934426229505,318.45L200,337.3566666666667L198.36065573770492,348.17333333333335L196.72131147540983,349.13666666666666L195.08196721311475,339.2366666666667L193.44262295081967,338.9866666666666L191.80327868852459,338.1433333333333L190.1639344262295,339.4633333333333L188.52459016393445,339.5566666666667L186.88524590163937,357.50666666666666L185.24590163934425,358.5166666666667L183.60655737704917,345.68666666666667L181.9672131147541,345.28333333333336L180.327868852459,351.1066666666667L178.68852459016392,333.43666666666667L177.04918032786884,340.63666666666666L175.40983606557376,357.57L173.77049180327867,357.06333333333333L172.1311475409836,335.4033333333333L170.4918032786885,328.27666666666664L168.85245901639345,325L167.21311475409837,340.76L165.5737704918033,344.9866666666667L163.9344262295082,353.59333333333336L162.29508196721312,359.33000000000004L160.65573770491804,354.32666666666665L159.01639344262296,333.58L157.37704918032787,339.1766666666667L155.7377049180328,348.6933333333333L154.0983606557377,358.63L152.45901639344262,360.96333333333337L150.81967213114754,356.0133333333333L149.18032786885246,348.7L147.54098360655738,346.87L145.9016393442623,349.8L144.2622950819672,352.8033333333333L142.62295081967213,353.58L140.98360655737704,359.15L139.34426229508196,359.22999999999996L137.70491803278688,343.03666666666663L136.0655737704918,340.4433333333333L134.4262295081967,352.9433333333333L132.78688524590163,342.1L131.14754098360655,342.10333333333335L129.5081967213115,358.46333333333337L127.86885245901641,354.30333333333334L126.22950819672131,342.81666666666666L124.59016393442623,337.7133333333333L122.95081967213115,340.7366666666666L121.31147540983606,342.3933333333333L119.67213114754098,340.83L118.0327868852459,351.87333333333333L116.39344262295081,352.7966666666666L114.75409836065573,347.62666666666667L113.11475409836065,350.3933333333333L111.47540983606557,316.6733333333333L109.8360655737705,335.87666666666667L108.19672131147541,333.2366666666667L106.55737704918033,352.12L104.91803278688525,358.2966666666667L103.27868852459017,343.06L101.63934426229508,344.7633333333334L100,345.1066666666667L98.36065573770492,343.67333333333335L96.72131147540983,352.59000000000003L95.08196721311475,353.95L93.44262295081968,353.73333333333335L91.80327868852459,347.3066666666667L90.1639344262295,353.06666666666666L88.52459016393442,347.39666666666665L86.88524590163934,346.85L85.24590163934425,346.05L83.60655737704919,351.81L81.9672131147541,342.78666666666663L80.32786885245902,339.94666666666666L78.68852459016394,335.7266666666667L77.04918032786885,300.68333333333334L75.40983606557377,338.6966666666667L73.77049180327869,300.6766666666667L72.1311475409836,345.48L70.49180327868852,342.3466666666667L68.85245901639344,283.34000000000003L67.21311475409836,287.1L65.57377049180327,330.0466666666667L63.934426229508205,328.55333333333334L62.295081967213115,339.21999999999997L60.65573770491803,351.45L59.01639344262295,345.95666666666665L57.377049180327866,299.99333333333334L55.73770491803278,333.02L54.09836065573771,338.37333333333333L52.459016393442624,315.9166666666667L50.81967213114754,300.02L49.18032786885246,345.18L47.540983606557376,346.1166666666667L45.90163934426229,342.2033333333333L44.26229508196721,339.9766666666667L42.62295081967213,343.17333333333335L40.98360655737705,342.01666666666665L39.34426229508197,340.11L37.704918032786885,345L36.0655737704918,345.6566666666667L34.42622950819672,352.83000000000004L32.78688524590164,349.99666666666667L31.147540983606557,339.56666666666666L29.508196721311474,338.35333333333335L27.86885245901639,340.36L26.229508196721312,342.6666666666667L24.59016393442623,338.26L22.950819672131146,330.02666666666664L21.311475409836063,326.12333333333333L19.672131147540984,343.5366666666667L18.0327868852459,345.2933333333333L16.39344262295082,347.5833333333333L14.754098360655737,348.35L13.114754098360656,343.36L11.475409836065573,330L9.836065573770492,333.36333333333334L8.19672131147541,346.69L6.557377049180328,344.8L4.918032786885246,344.9266666666666L3.278688524590164,357.15666666666664L1.639344262295082,346.49666666666667L0,356.5833333333333Z" fill="#4c78a8"/></g></g><path class="foreground" aria-hidden="true" d="" display="none"/></g></g></g></svg>