<svg xmlns="http://www.w3.org/2000/svg" xmlns:xlink="http://www.w3.org/1999/xlink" version="1.1" class="marks" width="850" height="447" viewBox="0 0 850 447"><rect width="850" height="447" fill="white"/><g fill="none" stroke-miterlimit="10" transform="translate(45,10)"><g class="mark-group role-frame root" role="graphics-object" aria-roledescription="group mark container"><g transform="translate(0,0)"><path class="background" aria-hidden="true" d="M0.5,0.5h800v400h-800Z" stroke="#ddd"/><g><g class="mark-group role-axis" aria-hidden="true"><g transform="translate(0.5,400.5)"><path class="background" aria-hidden="true" d="M0,0h0v0h0Z" pointer-events="none"/><g><g class="mark-rule role-axis-grid" pointer-events="none"><line transform="translate(82,-400)" x2="0" y2="400" stroke="#ddd" stroke-width="1" opacity="1"/><line transform="translate(157,-400)" x2="0" y2="400" stroke="#ddd" stroke-width="1" opacity="1"/><line transform="translate(239,-400)" x2="0" y2="400" stroke="#ddd" stroke-width="1" opacity="1"/><line transform="translate(319,-400)" x2="0" y2="400" stroke="#ddd" stroke-width="1" opacity="1"/><line transform="translate(401,-400)" x2="0" y2="400" stroke="#ddd" stroke-width="1" opacity="1"/><line transform="translate(481,-400)" x2="0" y2="400" stroke="#ddd" stroke-width="1" opacity="1"/><line transform="translate(563,-400)" x2="0" y2="400" stroke="#ddd" stroke-width="1" opacity="1"/><line transform="translate(646,-400)" x2="0" y2="400" stroke="#ddd" stroke-width="1" opacity="1"/><line transform="translate(725,-400)" x2="0" y2="400" stroke="#ddd" stroke-width="1" opacity="1"/></g></g><path class="foreground" aria-hidden="true" d="" pointer-events="none" display="none"/></g></g><g class="mark-group role-axis" aria-hidden="true"><g transform="translate(0.5,0.5)"><path class="background" aria-hidden="true" d="M0,0h0v0h0Z" pointer-events="none"/><g><g class="mark-rule role-axis-grid" pointer-events="none"><line transform="translate(0,400)" x2="800" y2="0" stroke="#ddd" stroke-width="1" opacity="1"/><line transform="translate(0,367)" x2="800" y2="0" stroke="#ddd" stroke-width="1" opacity="1"/><line transform="translate(0,333)" x2="800" y2="0" stroke="#ddd" stroke-width="1" opacity="1"/><line transform="translate(0,300)" x2="800" y2="0" stroke="#ddd" stroke-width="1" opacity="1"/><line transform="translate(0,267)" x2="800" y2="0" stroke="#ddd" stroke-width="1" opacity="1"/><line transform="translate(0,233)" x2="800" y2="0" stroke="#ddd" stroke-width="1" opacity="1"/><line transform="translate(0,200)" x2="800" y2="0" stroke="#ddd" stroke-width="1" opacity="1"/><line transform="translate(0,167)" x2="800" y2="0" stroke="#ddd" stroke-width="1" opacity="1"/><line transform="translate(0,133)" x2="800" y2="0" stroke="#ddd" stroke-width="1" opacity="1"/><line transform="translate(0,100)" x2="800" y2="0" stroke="#ddd" stroke-width="1" opacity="1"/><line transform="translate(0,67)" x2="800" y2="0" stroke="#ddd" stroke-width="1" opacity="1"/><line transform="translate(0,33)" x2="800" y2="0" stroke="#ddd" stroke-width="1" opacity="1"/><line transform="translate(0,0)" x2="800" y2="0" stroke="#ddd" stroke-width="1" opacity="1"/></g></g><path class="foreground" aria-hidden="true" d="" pointer-events="none" display="none"/></g></g><g class="mark-group role-axis" role="graphics-symbol" aria-roledescription="axis" aria-label="X-axis titled 'date' for a time scale with values from Saturday, 01 January 2022, 2:00:00 AM to Saturday, 29 October 2022, 3:00:00 AM"><g transform="translate(0.5,400.5)"><path class="background" aria-hidden="true" d="M0,0h0v0h0Z" pointer-events="none"/><g><g class="mark-rule role-axis-tick" pointer-events="none"><line transform="translate(82,0)" x2="0" y2="5" stroke="#888" stroke-width="1" opacity="1"/><line transform="translate(157,0)" x2="0" y2="5" stroke="#888" stroke-width="1" opacity="1"/><line transform="translate(239,0)" x2="0" y2="5" stroke="#888" stroke-width="1" opacity="1"/><line transform="translate(319,0)" x2="0" y2="5" stroke="#888" stroke-width="1" opacity="1"/><line transform="translate(401,0)" x2="0" y2="5" stroke="#888" stroke-width="1" opacity="1"/><line transform="translate(481,0)" x2="0" y2="5" stroke="#888" stroke-width="1" opacity="1"/><line transform="translate(563,0)" x2="0" y2="5" stroke="#888" stroke-width="1" opacity="1"/><line transform="translate(646,0)" x2="0" y2="5" stroke="#888" stroke-width="1" opacity="1"/><line transform="translate(725,0)" x2="0" y2="5" stroke="#888" stroke-width="1" opacity="1"/></g><g class="mark-text role-axis-label" pointer-events="none"><text text-anchor="middle" transform="translate(82.17054263565892,15)" font-family="sans-serif" font-size="10px" fill="#000" opacity="1">February</text><text text-anchor="middle" transform="translate(156.58914728682169,15)" font-family="sans-serif" font-size="10px" fill="#000" opacity="1">March</text><text text-anchor="middle" transform="translate(238.8704318936877,15)" font-family="sans-serif" font-size="10px" fill="#000" opacity="1">April</text><text text-anchor="middle" transform="translate(318.6046511627907,15)" font-family="sans-serif" font-size="10px" fill="#000" opacity="1">May</text><text text-anchor="middle" transform="translate(400.99667774086384,15)" font-family="sans-serif" font-size="10px" fill="#000" opacity="1">June</text><text text-anchor="middle" transform="translate(480.7308970099668,15)" font-family="sans-serif" font-size="10px" fill="#000" opacity="1">July</text><text text-anchor="middle" transform="translate(563.12292358804,15)" font-family="sans-serif" font-size="10px" fill="#000" opacity="1">August</text><text text-anchor="middle" transform="translate(645.514950166113,15)" font-family="sans-serif" font-size="10px" fill="#000" opacity="1">September</text><text text-anchor="middle" transform="translate(725.249169435216,15)" font-family="sans-serif" font-size="10px" fill="#000" opacity="1">October</text></g><g class="mark-rule role-axis-domain" pointer-events="none"><line transform="translate(0,0)" x2="800" y2="0" stroke="#888" stroke-width="1" opacity="1"/></g><g class="mark-text role-axis-title" pointer-events="none"><text text-anchor="middle" transform="translate(400,30)" font-family="sans-serif" font-size="11px" font-weight="bold" fill="#000" opacity="1">date</text></g></g><path class="foreground" aria-hidden="true" d="" pointer-events="none" display="none"/></g></g><g class="mark-group role-axis" role="graphics-symbol" aria-roledescription="axis" aria-label="Y-axis titled 'min, max' for a linear scale with values from −10 to 110"><g transform="translate(0.5,0.5)"><path class="background" aria-hidden="true" d="M0,0h0v0h0Z" pointer-events="none"/><g><g class="mark-rule role-axis-tick" pointer-events="none"><line transform="translate(0,400)" x2="-5" y2="0" stroke="#888" stroke-width="1" opacity="1"/><line transform="translate(0,367)" x2="-5" y2="0" stroke="#888" stroke-width="1" opacity="1"/><line transform="translate(0,333)" x2="-5" y2="0" stroke="#888" stroke-width="1" opacity="1"/><line transform="translate(0,300)" x2="-5" y2="0" stroke="#888" stroke-width="1" opacity="1"/><line transform="translate(0,267)" x2="-5" y2="0" stroke="#888" stroke-width="1" opacity="1"/><line transform="translate(0,233)" x2="-5" y2="0" stroke="#888" stroke-width="1" opacity="1"/><line transform="translate(0,200)" x2="-5" y2="0" stroke="#888" stroke-width="1" opacity="1"/><line transform="translate(0,167)" x2="-5" y2="0" stroke="#888" stroke-width="1" opacity="1"/><line transform="translate(0,133)" x2="-5" y2="0" stroke="#888" stroke-width="1" opacity="1"/><line transform="translate(0,100)" x2="-5" y2="0" stroke="#888" stroke-width="1" opacity="1"/><line transform="translate(0,67)" x2="-5" y2="0" stroke="#888" stroke-width="1" opacity="1"/><line transform="translate(0,33)" x2="-5" y2="0" stroke="#888" stroke-width="1" opacity="1"/><line transform="translate(0,0)" x2="-5" y2="0" stroke="#888" stroke-width="1" opacity="1"/></g><g class="mark-text role-axis-label" pointer-events="none"><text text-anchor="end" transform="translate(-7,403)" font-family="sans-serif" font-size="10px" fill="#000" opacity="1">−10</text><text text-anchor="end" transform="translate(-7,369.66666666666663)" font-family="sans-serif" font-size="10px" fill="#000" opacity="1">0</text><text text-anchor="end" transform="translate(-7,336.33333333333337)" font-family="sans-serif" font-size="10px" fill="#000" opacity="1">10</text><text text-anchor="end" transform="translate(-7,303)" font-family="sans-serif" font-size="10px" fill="#000" opacity="1">20</text><text text-anchor="end" transform="translate(-7,269.6666666666667)" font-family="sans-serif" font-size="10px" fill="#000" opacity="1">30</text><text text-anchor="end" transform="translate(-7,236.33333333333331)" font-family="sans-serif" font-size="10px" fill="#000" opacity="1">40</text><text text-anchor="end" transform="translate(-7,203)" font-family="sans-serif" font-size="10px" fill="#000" opacity="1">50</text><text text-anchor="end" transform="translate(-7,169.66666666666666)" font-family="sans-serif" font-size="10px" fill="#000" opacity="1">60</text><text text-anchor="end" transform="translate(-7,136.33333333333334)" font-family="sans-serif" font-size="10px" fill="#000" opacity="1">70</text><text text-anchor="end" transform="translate(-7,103)" font-family="sans-serif" font-size="10px" fill="#000" opacity="1">80</text><text text-anchor="end" transform="translate(-7,69.66666666666666)" font-family="sans-serif" font-size="10px" fill="#000" opacity="1">90</text><text text-anchor="end" transform="translate(-7,36.33333333333335)" font-family="sans-serif" font-size="10px" fill="#000" opacity="1">100</text><text text-anchor="end" transform="translate(-7,3)" font-family="sans-serif" font-size="10px" fill="#000" opacity="1">110</text></g><g class="mark-rule role-axis-domain" pointer-events="none"><line transform="translate(0,400)" x2="0" y2="-400" stroke="#888" stroke-width="1" opacity="1"/></g><g class="mark-text role-axis-title" pointer-events="none"><text text-anchor="middle" transform="translate(-29,200) rotate(-90) translate(0,-2)" font-family="sans-serif" font-size="11px" font-weight="bold" fill="#000" opacity="1">min, max</text></g></g><path class="foreground" aria-hidden="true" d="" pointer-events="none" display="none"/></g></g><g class="mark-area role-mark marks" role="graphics-object" aria-roledescription="area mark container"><path aria-label="date: Jan 01, 2022; min: 4.67108; max: 18.59628" role="graphics-symbol" aria-roledescription="area mark" d="M0,351.0964L2.6578073089700998,358.0321333333333L5.3156146179401995,358.4744L7.973421926910299,351.5138666666667L10.631229235880399,335.50960000000003L13.2890365448505,334.39360000000005L15.946843853820598,325.5524L18.6046511627907,331.52093333333335L21.262458471760798,332.46746666666667L23.920265780730897,311.35853333333336L26.578073089701,356.49039999999997L29.2358803986711,361.2561333333333L31.893687707641195,362.33906666666667L34.55149501661129,361.95466666666664L37.2093023255814,359.7474666666667L39.8671096345515,361.21066666666667L42.524916943521596,362.4961333333333L45.182724252491695,360.35506666666663L47.840531561461795,360.9130666666667L50.498338870431894,362.99213333333336L53.156146179402,360.4501333333333L55.81395348837209,330.3222666666667L58.4717607973422,361.8472L61.12956810631229,362.3225333333333L63.78737541528239,361.3264L66.44518272425249,355.9241333333334L69.10299003322258,342.8586666666667L71.76079734219269,356.0357333333333L74.4186046511628,361.28093333333334L77.0764119601329,365.00919999999996L79.734219269103,346.6902666666667L82.39202657807309,325.33746666666667L85.04983388704319,335.5964L87.70764119601328,327.7844L90.36544850498339,360.0905333333333L93.02325581395348,360.3592L95.68106312292359,361.76453333333336L98.33887043189368,360.95026666666666L100.99667774086379,356.3292L103.65448504983388,361.8058666666667L106.312292358804,361.9588L108.9700996677741,356.33746666666667L111.62790697674419,362.0208L114.28571428571428,362.4341333333333L116.9435215946844,361.3181333333333L119.60132890365449,360.88413333333335L122.25913621262458,360.8097333333333L124.91694352159467,361.1941333333333L127.57475083056478,361.3966666666667L130.2325581395349,360.72293333333334L132.89036544850498,358.45373333333333L135.54817275747507,359.6689333333333L138.20598006644516,354.25013333333334L140.86378737541528,361.95053333333334L143.52159468438538,362.182L146.1794019933555,360.8469333333333L148.8372093023256,360.83866666666665L151.49501661129568,360.9874666666667L154.1528239202658,361.02053333333333L156.8106312292359,361.71906666666666L159.468438538206,362.00426666666664L162.12624584717608,360.87173333333334L164.78405315614617,321.2165333333333L167.4418604651163,345.1568L170.09966777408638,356.3002666666667L172.75747508305648,345.9752L175.41528239202657,338.1714666666666L178.07308970099666,357.718L180.73089700996678,361.3264L183.38870431893687,356.3168L186.04651162790697,342.7016L188.70431893687706,359.24733333333336L191.36212624584718,349.0752L194.01993355481727,345.2146666666667L196.67774086378736,360.67746666666665L199.33554817275748,362.0910666666667L201.99335548172758,362.22746666666666L204.6511627906977,363.0128L207.30897009966776,362.03319999999997L209.96677740863788,360.90066666666667L212.624584717608,354.928L215.28239202657807,361.30986666666666L217.9401993355482,361.55786666666665L220.59800664451825,363.51706666666666L223.25581395348837,364.7694666666667L225.9136212624585,363.33933333333334L228.57142857142856,363.4302666666667L231.22923588039868,348.67426666666665L233.8870431893688,348.16586666666666L236.54485049833886,325.48213333333337L239.20265780730898,327.61493333333334L241.86046511627904,356.2176L244.51827242524917,352.0966666666667L247.1760797342193,359.63173333333333L249.83388704318935,359.6648L252.49169435215947,356.9078666666667L255.14950166112956,363.18640000000005L257.80730897009965,365.79453333333333L260.4651162790698,358.80920000000003L263.12292358803984,364.59999999999997L265.78073089700996,357.66426666666666L268.43853820598,350.8814666666667L271.09634551495014,342.39160000000004L273.75415282392026,348.2072L276.41196013289033,348.1782666666667L279.06976744186045,352.3612L281.72757475083057,361.23546666666664L284.3853820598007,348.06666666666666L287.04318936877075,339.58506666666665L289.7009966777409,354.0930666666667L292.358803986711,360.05746666666664L295.01661129568106,359.7598666666667L297.6744186046512,361.1734666666666L300.3322259136213,353.5226666666666L302.99003322259136,362.74826666666667L305.6478405315615,364.63306666666665L308.3056478405316,354.9404L310.96345514950167,358.1561333333333L313.6212624584718,360.9089333333333L316.27906976744185,361.1941333333333L318.936877076412,359.9004L321.5946843853821,363.17813333333334L324.25249169435216,363.15333333333336L326.9102990033223,352.7497333333333L329.56810631229234,359.2308L332.22591362126246,365.4556L334.8837209302326,366.2409333333333L337.54152823920265,362.6738666666667L340.19933554817277,361.6116L342.85714285714283,363.81466666666665L345.51495016611295,363.92626666666666L348.1727574750831,350.1168L350.83056478405314,345.9669333333333L353.48837209302326,351.65026666666665L356.1461794019933,363.86426666666665L358.80398671096344,364.1164L361.46179401993356,363.1368L364.1196013289036,361.4669333333334L366.77740863787375,340.57706666666667L369.43521594684387,330.8885333333333L372.09302325581393,341.73026666666664L374.75083056478405,335.3070666666666L377.4086378737541,322.12173333333334L380.06644518272424,333.57106666666664L382.72425249169436,356.8045333333333L385.3820598006644,357.8048L388.03986710963454,333.1949333333333L390.6976744186046,350.52599999999995L393.3554817275747,351.7784L396.01328903654485,350.5177333333333L398.67109634551497,362.73999999999995L401.32890365448503,362.94666666666666L403.98671096345515,361.54546666666664L406.6445182724253,361.86786666666666L409.3023255813954,310.42853333333335L411.96013289036546,364.8066666666667L414.6179401993355,358.6562666666667L417.27574750830564,356.6598666666667L419.93355481727576,325.29200000000003L422.5913621262459,314.84706666666665L425.249169435216,358.5157333333333L427.906976744186,364.9182666666666L430.56478405315613,365.84L433.22259136212625,361.03293333333335L435.8803986710964,362.1861333333333L438.5382059800665,362.8268L441.1960132890365,363.4592L443.8538205980066,355.7712L446.51162790697674,365.62093333333337L449.16943521594686,366.0508L451.827242524917,355.6306666666666L454.485049833887,363.37239999999997L457.1428571428571,365.468L459.80066445182723,365.6664L462.45847176079735,364.6248L465.1162790697675,363.8518666666667L467.7740863787376,357.5402666666667L470.4318936877076,355.9778666666666L473.0897009966777,359.97066666666666L475.74750830564784,355.1429333333333L478.40531561461796,352.8696L481.0631229235881,360.44186666666667L483.7209302325581,366.212L486.3787375415282,366.26573333333334L489.03654485049833,365.6002666666667L491.69435215946845,366.2781333333333L494.3521594684386,366.29879999999997L497.00996677740864,366.5013333333333L499.6677740863787,366.4848L502.3255813953488,337.4688L504.98338870431894,365.2241333333333L507.64119601328906,292.2584L510.2990033222591,303.36879999999996L512.9568106312292,284.0041333333333L515.6146179401993,304.67493333333334L518.2724252491695,311.776L520.9302325581396,313.2516L523.5880398671096,326.966L526.2458471760797,327.5736L528.9036544850499,354.2749333333333L531.5614617940199,358.98693333333335L534.2192691029901,359.9293333333333L536.87707641196,341.18053333333336L539.5348837209302,360.77666666666664L542.1926910299003,352.0346666666667L544.8504983388705,365.5713333333333L547.5083056478405,366.07146666666665L550.1661129568106,366.11693333333335L552.8239202657807,365.7325333333334L555.4817275747508,356.7136L558.1395348837209,358.6397333333333L560.7973421926911,362.0414666666667L563.4551495016611,361.95466666666664L566.1129568106312,366.05493333333334L568.7707641196014,366.05493333333334L571.4285714285714,366.0590666666667L574.0863787375415,366.01773333333335L576.7441860465116,366.3112L579.4019933554817,366.37733333333335L582.0598006644518,333.58346666666665L584.717607973422,365.18693333333334L587.375415282392,366.62946666666664L590.0332225913621,366.64599999999996L592.6910299003322,356.32506666666666L595.3488372093024,302.48013333333336L598.0066445182724,304.67080000000004L600.6644518272426,357.1021333333333L603.3222591362127,366.1582666666667L605.9800664451827,366.3277333333333L608.6378737541528,340.1596L611.295681063123,345.9710666666667L613.953488372093,366.46000000000004L616.6112956810632,366.4848L619.2691029900332,365.6829333333333L621.9269102990033,302.166L624.5847176079734,300.2564L627.2425249169436,286.2113333333333L629.9003322259136,321.0512L632.5581395348837,316.39706666666666L635.2159468438538,363.4922666666667L637.873754152824,363.794L640.531561461794,358.37106666666665L643.1893687707642,357.222L645.8471760797341,355.4818666666667L648.5049833887043,349.6166666666666L651.1627906976744,348.9884L653.8205980066446,343.00333333333333L656.4784053156146,343.6274666666667L659.1362126245847,342.45773333333335L661.7940199335548,328.2886666666667L664.4518272425249,331.19853333333333L667.109634551495,332.7361333333333L669.7674418604652,331.4010666666666L672.4252491694352,283.3510666666666L675.0830564784053,351.48493333333334L677.7408637873754,355.09746666666666L680.3986710963455,360.5948L683.0564784053156,360.6981333333334L685.7142857142857,360.53693333333337L688.3720930232558,360.4832L691.0299003322259,357.4948L693.6877076411961,362.8102666666667L696.3455149501661,363.0541333333333L699.0033222591362,337.16706666666664L701.6611295681063,347.28133333333335L704.3189368770765,347.178L706.9767441860465,341.84186666666665L709.6345514950167,348.9305333333333L712.2923588039866,361.29333333333335L714.9501661129568,361.4338666666667L717.6079734219269,345.72720000000004L720.2657807308971,345.80573333333336L722.9235880398671,301.3434666666667L725.5813953488372,336.93146666666667L728.2392026578073,333.2528L730.8970099667774,328.9293333333333L733.5548172757475,359.6482666666667L736.2126245847177,367.05933333333337L738.8704318936877,367.0758666666666L741.5282392026578,367.06346666666667L744.1860465116279,366.67906666666664L746.843853820598,365.8358666666667L749.5016611295681,366.64186666666666L752.1594684385383,366.4972L754.8172757475082,362.31426666666664L757.4750830564784,360.8428L760.1328903654485,357.1476L762.7906976744187,360.67746666666665L765.4485049833887,361.13626666666664L768.1063122923588,356.6474666666667L770.7641196013288,360.1732L773.421926910299,360.15253333333334L776.0797342192691,356.43253333333337L778.7375415282393,325.33746666666667L781.3953488372092,354.68L784.0531561461794,354.8164L786.7109634551495,351.30306666666667L789.3687707641196,343.8548L792.0265780730897,343.64813333333336L794.6843853820598,330.0081333333333L797.3421926910299,357.1682666666667L800,364.8852L800,358.74306666666666L797.3421926910299,303.89373333333333L794.6843853820598,277.79173333333335L792.0265780730897,291.41106666666667L789.3687707641196,284.0330666666666L786.7109634551495,231.47359999999998L784.0531561461794,326.81719999999996L781.3953488372092,307.92786666666666L778.7375415282393,227.56759999999997L776.0797342192691,230.28320000000005L773.421926910299,284.16533333333336L770.7641196013288,273.0590666666667L768.1063122923588,296.71413333333334L765.4485049833887,350.1374666666666L762.7906976744187,310.83773333333335L760.1328903654485,240.67853333333335L757.4750830564784,287.24879999999996L754.8172757475082,255.09559999999993L752.1594684385383,356.33746666666667L749.5016611295681,361.07013333333333L746.843853820598,359.578L744.1860465116279,361.26026666666667L741.5282392026578,360.49146666666667L738.8704318936877,361.24786666666665L736.2126245847177,321.2206666666667L733.5548172757475,166.6422666666667L730.8970099667774,207.78133333333332L728.2392026578073,147.32306666666668L725.5813953488372,212.03453333333334L722.9235880398671,121.58066666666664L720.2657807308971,215.57266666666663L717.6079734219269,208.98413333333332L714.9501661129568,277.85786666666667L712.2923588039866,230.27079999999995L709.6345514950167,218.86693333333335L706.9767441860465,204.3506666666667L704.3189368770765,217.05240000000003L701.6611295681063,170.30853333333332L699.0033222591362,148.5672L696.3455149501661,276.6633333333333L693.6877076411961,257.3193333333333L691.0299003322259,279.83773333333335L688.3720930232558,287.4968L685.7142857142857,258.1212L683.0564784053156,282.7434666666667L680.3986710963455,288.93933333333337L677.7408637873754,294.48213333333337L675.0830564784053,176.95906666666664L672.4252491694352,201.36639999999994L669.7674418604652,218.22213333333335L667.109634551495,180.69146666666663L664.4518272425249,156.77186666666665L661.7940199335548,139.32920000000001L659.1362126245847,140.05253333333334L656.4784053156146,139.37466666666668L653.8205980066446,160.95480000000006L651.1627906976744,250.92920000000004L648.5049833887043,126.11906666666664L645.8471760797341,107.67613333333327L643.1893687707642,75.78746666666666L640.531561461794,36.012400000000014L637.873754152824,135.00159999999997L635.2159468438538,257.092L632.5581395348837,166.2248L629.9003322259136,48.39999999999998L627.2425249169436,57.33213333333333L624.5847176079734,129.43813333333333L621.9269102990033,56.898133333333334L619.2691029900332,108.48213333333331L616.6112956810632,335.70386666666667L613.953488372093,293.50253333333336L611.295681063123,123.08519999999999L608.6378737541528,90.95680000000002L605.9800664451827,217.87493333333333L603.3222591362127,110.50746666666663L600.6644518272426,151.7002666666667L598.0066445182724,175.45866666666666L595.3488372093024,173.97066666666672L592.6910299003322,190.54119999999998L590.0332225913621,274.1750666666667L587.375415282392,248.4492L584.717607973422,190.49573333333333L582.0598006644518,10.728799999999978L579.4019933554817,290.67946666666666L576.7441860465116,338.2996L574.0863787375415,300.5168L571.4285714285714,360.02026666666666L568.7707641196014,330.8844L566.1129568106312,234.42480000000003L563.4551495016611,171.35013333333328L560.7973421926911,276.56L558.1395348837209,278.30426666666665L555.4817275747508,275.9193333333333L552.8239202657807,258.68333333333334L550.1661129568106,287.6952L547.5083056478405,359.6978666666667L544.8504983388705,270.27733333333333L542.1926910299003,242.79479999999998L539.5348837209302,284L536.87707641196,224.3436L534.2192691029901,242.66666666666669L531.5614617940199,230.80813333333333L528.9036544850499,199.4196L526.2458471760797,222.00413333333336L523.5880398671096,293.0065333333333L520.9302325581396,245.40293333333335L518.2724252491695,199.30800000000005L515.6146179401993,187.25106666666673L512.9568106312292,139.37466666666668L510.2990033222591,168.34106666666665L507.64119601328906,139.33333333333331L504.98338870431894,225.14546666666666L502.3255813953488,286.294L499.6677740863787,274.46026666666666L497.00996677740864,242.64186666666666L494.3521594684386,275.36133333333333L491.69435215946845,292.6138666666667L489.03654485049833,166.58026666666666L486.3787375415282,306.42746666666665L483.7209302325581,315.20666666666665L481.0631229235881,207.4548L478.40531561461796,168.67999999999998L475.74750830564784,205.09466666666665L473.0897009966777,266.9789333333333L470.4318936877076,213.29106666666667L467.7740863787376,300.52093333333335L465.1162790697675,302.8810666666667L462.45847176079735,309.45306666666664L459.80066445182723,304.67080000000004L457.1428571428571,211.89399999999998L454.485049833887,226.58800000000002L451.827242524917,160L449.16943521594686,334.79453333333333L446.51162790697674,323.92386666666664L443.8538205980066,232.044L441.1960132890365,265.4L438.5382059800665,262.1842666666667L435.8803986710964,262.7505333333333L433.22259136212625,278.9904L430.56478405315613,347.5541333333333L427.906976744186,351.6544L425.249169435216,214.32026666666667L422.5913621262459,261.2542666666667L419.93355481727576,247.97800000000004L417.27574750830564,267.46666666666664L414.6179401993355,253.32240000000002L411.96013289036546,309.2422666666667L409.3023255813954,284.07026666666667L406.6445182724253,273.01773333333335L403.98671096345515,274.452L401.32890365448503,262.5149333333333L398.67109634551497,264.25506666666666L396.01328903654485,251.7269333333333L393.3554817275747,293.796L390.6976744186046,298.72706666666664L388.03986710963454,273.212L385.3820598006644,276.28720000000004L382.72425249169436,268.6488L380.06644518272424,261.2584L377.4086378737541,263.33746666666667L374.75083056478405,272.468L372.09302325581393,271.5545333333333L369.43521594684387,159.9793333333333L366.77740863787375,214.19626666666667L364.1196013289036,217.4988L361.46179401993356,246.36599999999999L358.80398671096344,265.3752L356.1461794019933,293.33306666666664L353.48837209302326,292.77093333333335L350.83056478405314,266.33413333333334L348.1727574750831,298.4501333333333L345.51495016611295,288.32346666666666L342.85714285714283,284.558L340.19933554817277,260.75826666666666L337.54152823920265,287.1702666666667L334.8837209302326,324.58520000000004L332.22591362126246,253.03306666666668L329.56810631229234,259.3198666666667L326.9102990033223,243.94799999999998L324.25249169435216,254.97160000000002L321.5946843853821,267.90479999999997L318.936877076412,275.78293333333335L316.27906976744185,275.9234666666667L313.6212624584718,246.29573333333332L310.96345514950167,249.54039999999998L308.3056478405316,254.64919999999998L305.6478405315615,280.83386666666667L302.99003322259136,254.04573333333335L300.3322259136213,296.42893333333336L297.6744186046512,349.91426666666666L295.01661129568106,332.09546666666665L292.358803986711,332.82706666666667L289.7009966777409,321.20413333333335L287.04318936877075,294.3333333333333L284.3853820598007,330.94640000000004L281.72757475083057,336.2784L279.06976744186045,338.1136L276.41196013289033,333.9058666666666L273.75415282392026,305.26186666666666L271.09634551495014,287.40999999999997L268.43853820598,255.57093333333336L265.78073089700996,284.372L263.12292358803984,354.3038666666667L260.4651162790698,350.16226666666665L257.80730897009965,347.03333333333336L255.14950166112956,304.08386666666667L252.49169435215947,292.9156L249.83388704318935,321.2330666666667L247.1760797342193,316.8186666666667L244.51827242524917,329.42946666666666L241.86046511627904,332.2153333333334L239.20265780730898,280.4990666666667L236.54485049833886,232.92853333333335L233.8870431893688,302.15360000000004L231.22923588039868,263.3333333333333L228.57142857142856,349.7282666666666L225.9136212624585,323.6428L223.25581395348837,339.6057333333333L220.59800664451825,319.1705333333333L217.9401993355482,283.40066666666667L215.28239202657807,246.81239999999997L212.624584717608,250.4786666666667L209.96677740863788,335.36493333333334L207.30897009966776,340.98626666666667L204.6511627906977,359.578L201.99335548172758,296.4248L199.33554817275748,336.0841333333333L196.67774086378736,287.7985333333333L194.01993355481727,268.8306666666667L191.36212624584718,271.76946666666663L188.70431893687706,317.88506666666666L186.04651162790697,282.2846666666667L183.38870431893687,290.1752L180.73089700996678,331.74826666666667L178.07308970099666,127.1606666666666L175.41528239202657,253.58693333333332L172.75747508305648,158.90466666666669L170.09966777408638,312.90026666666665L167.4418604651163,317.09973333333335L164.78405315614617,197.17933333333332L162.12624584717608,317.0749333333333L159.468438538206,314.8925333333333L156.8106312292359,321.2L154.1528239202658,294.1804L151.49501661129568,341.8790666666667L148.8372093023256,306.4481333333333L146.1794019933555,311.2056L143.52159468438538,314.0204L140.86378737541528,278.3456L138.20598006644516,281.30920000000003L135.54817275747507,318.32733333333334L132.89036544850498,326.0690666666667L130.2325581395349,319.26146666666665L127.57475083056478,317.86440000000005L124.91694352159467,321.2909333333333L122.25913621262458,317.666L119.60132890365449,317.51306666666665L116.9435215946844,318.1496L114.28571428571428,342.6768L111.62790697674419,318.74066666666664L108.9700996677741,303.33573333333334L106.312292358804,313.34666666666664L103.65448504983388,314.12786666666665L100.99667774086379,308.2006666666667L98.33887043189368,302.5876L95.68106312292359,317.09973333333335L93.02325581395348,315.29760000000005L90.36544850498339,302.61653333333334L87.70764119601328,268.9505333333333L85.04983388704319,256.348L82.39202657807309,265.92906666666664L79.734219269103,264.22613333333334L77.0764119601329,327.42066666666665L74.4186046511628,349.06693333333334L71.76079734219269,304.5964L69.10299003322258,273.6294666666667L66.44518272425249,311.15186666666665L63.78737541528239,259.22066666666666L61.12956810631229,310.0937333333333L58.4717607973422,318.7282666666666L55.81395348837209,273.5509333333333L53.156146179402,301.7237333333333L50.498338870431894,310.9410666666667L47.840531561461795,312.9250666666667L45.182724252491695,247.90360000000007L42.524916943521596,304.4104L39.8671096345515,346.43399999999997L37.2093023255814,261.7792L34.55149501661129,308.10560000000004L31.893687707641195,351.66266666666667L29.2358803986711,305.24533333333335L26.578073089701,278.60186666666664L23.920265780730897,236.27239999999995L21.262458471760798,266.14813333333336L18.6046511627907,288.17466666666667L15.946843853820598,264.2757333333333L13.2890365448505,255.03773333333334L10.631229235880399,300.5292L7.973421926910299,297.2762666666667L5.3156146179401995,308.97773333333333L2.6578073089700998,327.23466666666667L0,304.67906666666664Z" fill="#4c78a8"/></g></g><path class="foreground" aria-hidden="true" d="" display="none"/></g></g></g></svg>